<svg xmlns="http://www.w3.org/2000/svg" fill="none" viewBox="0 0 64 64"><path fill="#000" d="M42 56H23v6h19v-6Z"/><path fill="url(#a)" d="M42 56H23v6h19v-6Z"/><path fill="#000" d="M15.17 2.45 1.74 15.9l3.53 3.53L18.71 6l-3.54-3.54Z"/><path fill="url(#b)" d="M15.17 2.45 1.74 15.9l3.53 3.53L18.71 6l-3.54-3.54Z"/><path fill="#000" d="m49.11 2.32-3.53 3.54L59 19.29l3.54-3.53L49.1 2.32Z"/><path fill="url(#c)" d="m49.11 2.32-3.53 3.54L59 19.29l3.54-3.53L49.1 2.32Z"/><path fill="#000" d="m44.56 9.7-2.7-.1a5.06 5.06 0 0 0-4.28 1.42l-5.5 5.5-5.76-5.74a3.84 3.84 0 0 0-3.85-.91 3.62 3.62 0 0 1-3.61-.9L18 8.1 7.4 18.7l1.72 1.73-.11 2.7a5.06 5.06 0 0 0 1.43 4.28l9.61 9.61a4.99 4.99 0 0 1 1.7-3.26l-3-3 .7-.7 3.13 3.13c.45-.25.93-.44 1.43-.54v-3.7l-1.73-1.72.71-.7 1.02 1V22.2a3.61 3.61 0 0 1 3.14-3.63 3.5 3.5 0 0 1 .99.05l-1.23-1.23.7-.7 1.8 1.79a3.54 3.54 0 0 1 3.4-1.91A3.6 3.6 0 0 1 36 19.9a3.6 3.6 0 0 1 1.83-.33A3.62 3.62 0 0 1 41 23.23v3.43a5 5 0 0 1 3.81 3.62l2.8-2.79.7.71L45 31.52v3.36c.9-.1 1.74-.5 2.38-1.13l6.84-6.84a3.84 3.84 0 0 0 .91-3.86 3.62 3.62 0 0 1 .9-3.61l.86-.85L46.3 7.98 44.55 9.7Z"/><path fill="url(#d)" d="m44.56 9.7-2.7-.1a5.06 5.06 0 0 0-4.28 1.42l-5.5 5.5-5.76-5.74a3.84 3.84 0 0 0-3.85-.91 3.62 3.62 0 0 1-3.61-.9L18 8.1 7.4 18.7l1.72 1.73-.11 2.7a5.06 5.06 0 0 0 1.43 4.28l9.61 9.61a4.99 4.99 0 0 1 1.7-3.26l-3-3 .7-.7 3.13 3.13c.45-.25.93-.44 1.43-.54v-3.7l-1.73-1.72.71-.7 1.02 1V22.2a3.61 3.61 0 0 1 3.14-3.63 3.5 3.5 0 0 1 .99.05l-1.23-1.23.7-.7 1.8 1.79a3.54 3.54 0 0 1 3.4-1.91A3.6 3.6 0 0 1 36 19.9a3.6 3.6 0 0 1 1.83-.33A3.62 3.62 0 0 1 41 23.23v3.43a5 5 0 0 1 3.81 3.62l2.8-2.79.7.71L45 31.52v3.36c.9-.1 1.74-.5 2.38-1.13l6.84-6.84a3.84 3.84 0 0 0 .91-3.86 3.62 3.62 0 0 1 .9-3.61l.86-.85L46.3 7.98 44.55 9.7Z"/><path fill="#000" d="M29.88 21.69a2.5 2.5 0 0 0-2.73-2.19 2.6 2.6 0 0 0-2.24 2.63v11.36a4 4 0 0 0-4 4v9.67A3.84 3.84 0 0 0 23 50.53a3.62 3.62 0 0 1 1.91 3.2v1.2h15V52.5l1.99-1.82a5.06 5.06 0 0 0 2.01-4.05V31.5a4 4 0 0 0-4-4v-4.32a2.62 2.62 0 0 0-2.27-2.67 2.5 2.5 0 0 0-2.69 2.1h.46v15.44h-1V22.6h.5v-2.43a2.62 2.62 0 0 0-2.27-2.67 2.5 2.5 0 0 0-2.73 2.49v1.7h.5v15.44h-1V21.7h.47Zm-4.57 20.35h-1v-8h1v8Zm14.1-14.24h1v10.44h-1V27.8Z"/><path fill="url(#e)" d="M29.88 21.69a2.5 2.5 0 0 0-2.73-2.19 2.6 2.6 0 0 0-2.24 2.63v11.36a4 4 0 0 0-4 4v9.67A3.84 3.84 0 0 0 23 50.53a3.62 3.62 0 0 1 1.91 3.2v1.2h15V52.5l1.99-1.82a5.06 5.06 0 0 0 2.01-4.05V31.5a4 4 0 0 0-4-4v-4.32a2.62 2.62 0 0 0-2.27-2.67 2.5 2.5 0 0 0-2.69 2.1h.46v15.44h-1V22.6h.5v-2.43a2.62 2.62 0 0 0-2.27-2.67 2.5 2.5 0 0 0-2.73 2.49v1.7h.5v15.44h-1V21.7h.47Zm-4.57 20.35h-1v-8h1v8Zm14.1-14.24h1v10.44h-1V27.8Z"/><defs><linearGradient id="a" x1="32.51" x2="32.51" y1="56" y2="62" gradientUnits="userSpaceOnUse"><stop stop-color="#EF8080"/><stop offset="1" stop-color="#F0145A"/></linearGradient><linearGradient id="b" x1="8.46" x2="11.99" y1="9.17" y2="12.71" gradientUnits="userSpaceOnUse"><stop stop-color="#EF8080"/><stop offset="1" stop-color="#F0145A"/></linearGradient><linearGradient id="c" x1="47.34" x2="60.78" y1="4.09" y2="17.52" gradientUnits="userSpaceOnUse"><stop stop-color="#EF8080"/><stop offset="1" stop-color="#F0145A"/></linearGradient><linearGradient id="d" x1="32.14" x2="32.14" y1="7.98" y2="37.03" gradientUnits="userSpaceOnUse"><stop stop-color="#EF8080"/><stop offset="1" stop-color="#F0145A"/></linearGradient><linearGradient id="e" x1="32.41" x2="32.41" y1="17.49" y2="54.93" gradientUnits="userSpaceOnUse"><stop stop-color="#EF8080"/><stop offset="1" stop-color="#F0145A"/></linearGradient></defs></svg>