<svg xmlns="http://www.w3.org/2000/svg" fill="none" viewBox="0 0 64 64"><path fill="url(#a)" fill-rule="evenodd" d="M53.45 35.08v17.3A5.53 5.53 0 0 1 48.06 58H15.97a5.53 5.53 0 0 1-5.39-5.63v-17.3h16.67v7.52l4.77 3.13 4.77-3.13v-7.51h16.66Z" clip-rule="evenodd"/><path fill="url(#b)" fill-rule="evenodd" d="M28.92 35.08v6.6l3.1 2.04 3.1-2.04v-6.6h-6.2Z" clip-rule="evenodd"/><path fill="url(#c)" fill-rule="evenodd" d="M12.07 15.14h39.89c1.88 0 3.42 1.71 3.42 3.8v10.25c0 2.09-1.54 3.8-3.42 3.8H12.07c-1.88 0-3.42-1.71-3.42-3.8V18.94c0-2.09 1.54-3.8 3.42-3.8Z" clip-rule="evenodd"/><path fill="url(#d)" fill-rule="evenodd" d="M23.71 5.95h16.61c1.54 0 2.8 1.27 2.8 2.81v4.38h-3.55v-2.59c0-.7-.57-1.27-1.27-1.27H25.73c-.7 0-1.27.57-1.27 1.27v2.59h-3.55V8.76a2.8 2.8 0 0 1 2.8-2.8Z" clip-rule="evenodd"/><defs><linearGradient id="a" x1="32.02" x2="32.02" y1="35.08" y2="58" gradientUnits="userSpaceOnUse"><stop stop-color="#EF8080"/><stop offset="1" stop-color="#F0145A"/></linearGradient><linearGradient id="b" x1="32.02" x2="32.02" y1="35.08" y2="43.72" gradientUnits="userSpaceOnUse"><stop stop-color="#EF8080"/><stop offset="1" stop-color="#F0145A"/></linearGradient><linearGradient id="c" x1="32.02" x2="32.02" y1="15.14" y2="32.99" gradientUnits="userSpaceOnUse"><stop stop-color="#EF8080"/><stop offset="1" stop-color="#F0145A"/></linearGradient><linearGradient id="d" x1="32.02" x2="32.02" y1="5.95" y2="13.14" gradientUnits="userSpaceOnUse"><stop stop-color="#EF8080"/><stop offset="1" stop-color="#F0145A"/></linearGradient></defs></svg>