<svg xmlns="http://www.w3.org/2000/svg" fill="none" viewBox="0 0 32 32"><path fill="#F0145A" d="M27.11 6.3a.82.82 0 0 0-.6-.25c-.1 0-.35.1-.72.28l-1.17.63c-.4.23-.9.43-1.46.62a5 5 0 0 1-1.56.28 2.5 2.5 0 0 1-1.16-.25 23.7 23.7 0 0 0-2.91-1.17 8.88 8.88 0 0 0-2.66-.39c-1.63 0-3.5.53-5.58 1.6a11 11 0 0 0-.94.5l-.2-1.46a2.11 2.11 0 0 0-1.39-3.72 2.12 2.12 0 0 0-1.1 3.93l2.86 21.05A1.25 1.25 0 0 0 11 27.6l-1.15-8.46c2.09-1.04 3.9-1.56 5.42-1.56.65 0 1.28.1 1.9.3.6.19 1.12.4 1.53.63a9 9 0 0 0 1.44.64c.55.19 1.1.29 1.64.29 1.36 0 3-.52 4.9-1.54.23-.13.4-.25.52-.37.1-.12.16-.29.16-.5V6.9a.82.82 0 0 0-.25-.6Z"/></svg>