<svg xmlns="http://www.w3.org/2000/svg" fill="none" viewBox="0 0 48 48"><g clip-path="url(#a)"><path fill="url(#b)" d="M32.25 12.46c.73.73 1.92.73 2.65 0l2.61-2.6c.73-.74.73-1.93 0-2.66L30.93.62a1.87 1.87 0 0 0-2.65 0l-2.6 2.6a1.87 1.87 0 0 0 0 2.66l6.57 6.58Z"/><path fill="url(#c)" d="M16.67 28.34c.73.73 1.91.73 2.64 0l2.61-2.61c.74-.73.74-1.92 0-2.65l-6.58-6.58a1.87 1.87 0 0 0-2.65 0l-2.6 2.6a1.88 1.88 0 0 0 0 2.65l6.58 6.59Z"/><path fill="url(#d)" d="m46.55 28.96-2.65-2.65a1.87 1.87 0 0 0-2.65 0l-1.16 1.16-11.2-11.2 2.43-2.43-6.74-6.73-2.43 2.43-3.09 3.09L16.7 15l6.73 6.73 2.38-2.37L37 30.56l-1.05 1.05a1.87 1.87 0 0 0 0 2.65l2.65 2.65c.73.73 1.92.73 2.65 0l5.3-5.3c.73-.73.73-1.91 0-2.65Z"/><path fill="url(#e)" d="M26.98 37.01c0-1.2-.97-2.17-2.18-2.17H7.84c-1.2 0-2.18.97-2.18 2.17v3.53H.9v7.39h30.56v-7.39h-4.48v-3.53Z"/></g><defs><linearGradient id="b" x1="31.59" x2="31.59" y1=".07" y2="13.01" gradientUnits="userSpaceOnUse"><stop stop-color="#EF8080"/><stop offset="1" stop-color="#F0145A"/></linearGradient><linearGradient id="c" x1="16" x2="16" y1="15.95" y2="28.88" gradientUnits="userSpaceOnUse"><stop stop-color="#EF8080"/><stop offset="1" stop-color="#F0145A"/></linearGradient><linearGradient id="d" x1="31.89" x2="31.89" y1="7.11" y2="37.46" gradientUnits="userSpaceOnUse"><stop stop-color="#EF8080"/><stop offset="1" stop-color="#F0145A"/></linearGradient><linearGradient id="e" x1="16.18" x2="16.18" y1="34.84" y2="47.93" gradientUnits="userSpaceOnUse"><stop stop-color="#EF8080"/><stop offset="1" stop-color="#F0145A"/></linearGradient><clipPath id="a"><path fill="#fff" d="M0 0h48v48H0z"/></clipPath></defs></svg>