<svg xmlns="http://www.w3.org/2000/svg" fill="none" viewBox="0 0 64 64"><g clip-path="url(#a)"><path fill="#000" d="M60.53 37.73a5.6 5.6 0 0 0-6.34 1.43l-1.22-.5-3.48-1.45a18.19 18.19 0 0 0 0-10.43l3.48-1.44 1.22-.5a5.61 5.61 0 0 0 6.34 1.43 5.63 5.63 0 1 0-7.77-4.9l-1.23.51-3.48 1.44a18.38 18.38 0 0 0-7.37-7.37l1.44-3.48.5-1.23.3.01a5.63 5.63 0 1 0-3.76-1.44l-.5 1.22-1.45 3.48a18.2 18.2 0 0 0-10.42 0l-1.45-3.48-.5-1.22a5.63 5.63 0 1 0-3.47 1.43l.51 1.23 1.44 3.48a18.38 18.38 0 0 0-7.37 7.37l-3.48-1.44-1.23-.5a5.63 5.63 0 1 0-1.43 3.46l1.22.5 3.48 1.45a18.2 18.2 0 0 0 0 10.42l-3.48 1.45-1.22.5a5.61 5.61 0 0 0-6.34-1.43 5.63 5.63 0 1 0 7.77 4.9l1.23-.51 3.48-1.44a18.38 18.38 0 0 0 7.37 7.37l-1.44 3.48-.5 1.23-.3-.01a5.63 5.63 0 1 0 3.76 1.44l.5-1.22 1.44-3.48a18.2 18.2 0 0 0 10.43 0l1.45 3.48.5 1.22a5.63 5.63 0 1 0 3.47-1.43l-.51-1.23-1.44-3.48a18.38 18.38 0 0 0 7.37-7.37l3.48 1.44 1.23.5a5.63 5.63 0 1 0 7.77-4.9ZM32 46.5a14.51 14.51 0 0 1 0-29 14.51 14.51 0 0 1 0 29Z"/><path fill="url(#b)" d="M60.53 37.73a5.6 5.6 0 0 0-6.34 1.43l-1.22-.5-3.48-1.45a18.19 18.19 0 0 0 0-10.43l3.48-1.44 1.22-.5a5.61 5.61 0 0 0 6.34 1.43 5.63 5.63 0 1 0-7.77-4.9l-1.23.51-3.48 1.44a18.38 18.38 0 0 0-7.37-7.37l1.44-3.48.5-1.23.3.01a5.63 5.63 0 1 0-3.76-1.44l-.5 1.22-1.45 3.48a18.2 18.2 0 0 0-10.42 0l-1.45-3.48-.5-1.22a5.63 5.63 0 1 0-3.47 1.43l.51 1.23 1.44 3.48a18.38 18.38 0 0 0-7.37 7.37l-3.48-1.44-1.23-.5a5.63 5.63 0 1 0-1.43 3.46l1.22.5 3.48 1.45a18.2 18.2 0 0 0 0 10.42l-3.48 1.45-1.22.5a5.61 5.61 0 0 0-6.34-1.43 5.63 5.63 0 1 0 7.77 4.9l1.23-.51 3.48-1.44a18.38 18.38 0 0 0 7.37 7.37l-1.44 3.48-.5 1.23-.3-.01a5.63 5.63 0 1 0 3.76 1.44l.5-1.22 1.44-3.48a18.2 18.2 0 0 0 10.43 0l1.45 3.48.5 1.22a5.63 5.63 0 1 0 3.47-1.43l-.51-1.23-1.44-3.48a18.38 18.38 0 0 0 7.37-7.37l3.48 1.44 1.23.5a5.63 5.63 0 1 0 7.77-4.9ZM32 46.5a14.51 14.51 0 0 1 0-29 14.51 14.51 0 0 1 0 29Z"/><path fill="#000" d="M32 21.25a10.76 10.76 0 0 0 0 21.5 10.76 10.76 0 0 0 0-21.5Zm1.88 14.87h-3.75v-8.25h3.75v8.25Z"/><path fill="url(#c)" d="M32 21.25a10.76 10.76 0 0 0 0 21.5 10.76 10.76 0 0 0 0-21.5Zm1.88 14.87h-3.75v-8.25h3.75v8.25Z"/></g><defs><linearGradient id="b" x1="32" x2="32" y1="0" y2="64" gradientUnits="userSpaceOnUse"><stop stop-color="#EF8080"/><stop offset="1" stop-color="#F0145A"/></linearGradient><linearGradient id="c" x1="32" x2="32" y1="21.25" y2="42.75" gradientUnits="userSpaceOnUse"><stop stop-color="#EF8080"/><stop offset="1" stop-color="#F0145A"/></linearGradient><clipPath id="a"><path fill="#fff" d="M0 0h64v64H0z"/></clipPath></defs></svg>