<svg xmlns="http://www.w3.org/2000/svg" fill="none" viewBox="0 0 32 32"><path fill="#F0145A" d="M17.23 18.33v-.56a1.23 1.23 0 1 0-2.46 0v.56a1.23 1.23 0 1 0 2.46 0Z"/><path fill="#F0145A" d="M18.08 19.01c-.28.9-1.1 1.55-2.08 1.55s-1.8-.65-2.08-1.55H5.44c-.54 0-1.04-.12-1.5-.34v5.64c0 1.1.9 2 2 2h20.12a2 2 0 0 0 2-2v-5.64c-.46.22-.96.34-1.5.34h-8.48Zm8.4-10.11h-4.8a3.8 3.8 0 0 0-3.76-3.2h-3.84a3.8 3.8 0 0 0-3.76 3.2h-4.8c-1.14 0-2.08.9-2.08 2v4.61c0 1.1.9 2 2 2h8.39c.03-.57.27-1.09.66-1.46l.04-.03c.09-.08.18-.16.28-.22.03-.03.07-.04.11-.06.08-.05.16-.1.25-.13l.21-.07.19-.06a2.16 2.16 0 0 1 .86 0l.19.06.21.07c.09.03.17.08.25.13.04.02.08.03.11.06.1.06.19.14.28.22l.03.03c.4.37.64.89.67 1.46h8.39a2 2 0 0 0 2-2V10.9c0-1.1-.94-2-2.08-2Zm-14.23 0c.25-.77.97-1.33 1.83-1.33h3.84c.86 0 1.58.56 1.83 1.33h-7.5Z"/></svg>