<svg xmlns="http://www.w3.org/2000/svg" fill="none" viewBox="0 0 64 64"><path fill="url(#a)" d="M23.73 28.13a2 2 0 0 0 2-2v-7.8a6.33 6.33 0 0 1 12.65 0v7.8a2 2 0 0 0 4 0v-7.8a10.34 10.34 0 0 0-20.65 0v7.8c0 1.1.9 2 2 2Z"/><path fill="url(#b)" d="M55 23.63H44.38v2.5a4 4 0 0 1-8 0v-2.5h-8.65v2.5a4 4 0 0 1-8 0v-2.5H9c-.55 0-.9.44-.76.97l7 28.5A4.1 4.1 0 0 0 19 56h26a4.1 4.1 0 0 0 3.77-2.9l7-28.5c.12-.54-.22-.97-.77-.97Z"/><path fill="#fff" d="M28.6 34.4a1.4 1.4 0 1 1 2.8 0v6.95V40a1.4 1.4 0 1 1 2.8 0v1.68c.01-.77.63-2.38 1.4-2.38.77 0 1.4.63 1.4 1.4 0 0 .04 1.04.13 1.1.23-.47.71-1.8 1.27-1.8.77 0 1.4.63 1.4 1.4v7a2.8 2.8 0 0 1-2.8 2.8h-4.68a5.6 5.6 0 0 1-3.96-1.64l-2.21-2.21L23 45.94c0-1.34 1.05-1.74 2.1-1.74.9 0 1.71.14 3.5 1.05V34.4Z"/><defs><linearGradient id="a" x1="32.06" x2="32.06" y1="8" y2="28.13" gradientUnits="userSpaceOnUse"><stop stop-color="#EF8080"/><stop offset="1" stop-color="#F0145A"/></linearGradient><linearGradient id="b" x1="32" x2="32" y1="23.63" y2="56" gradientUnits="userSpaceOnUse"><stop stop-color="#EF8080"/><stop offset="1" stop-color="#F0145A"/></linearGradient></defs></svg>