<svg xmlns="http://www.w3.org/2000/svg" fill="none" viewBox="0 0 64 64"><path fill="url(#a)" d="M41.23 37.7c2.35 0 4.68.58 6.73 1.7.37.2.71.44 1.06.67a44.87 44.87 0 0 0 5.13-20.33v-1.17a1.24 1.24 0 0 0-.98-1.16A36.3 36.3 0 0 1 33.71 5.78l-.79-.9a1.2 1.2 0 0 0-.92-.41c-.38-.05-.68.13-.91.39l-1.2 1.33a36.43 36.43 0 0 1-18.3 11.04l-.8.2c-.54.12-.92.6-.93 1.15-.44 17.3 9.77 29.75 14.18 34.3a41.7 41.7 0 0 0 3.79 3.45 14.17 14.17 0 0 1 13.4-18.64Z"/><path fill="url(#b)" d="M46.78 41.56a11.7 11.7 0 1 0-5.55 21.98 11.68 11.68 0 0 0 5.55-21.98Zm.44 8.73-9.15 7.12-3.12-4.88a1.23 1.23 0 1 1 2.08-1.33l1.66 2.6 7.02-5.45a1.23 1.23 0 1 1 1.51 1.94Z"/><defs><linearGradient id="a" x1="32" x2="32" y1="4.46" y2="56.33" gradientUnits="userSpaceOnUse"><stop stop-color="#EF8080"/><stop offset="1" stop-color="#F0145A"/></linearGradient><linearGradient id="b" x1="41.23" x2="41.23" y1="40.16" y2="63.54" gradientUnits="userSpaceOnUse"><stop stop-color="#EF8080"/><stop offset="1" stop-color="#F0145A"/></linearGradient></defs></svg>