<svg xmlns="http://www.w3.org/2000/svg" fill="none" viewBox="0 0 689 644"><g fill="#fff" fill-opacity=".1" fill-rule="evenodd" clip-path="url(#a)" clip-rule="evenodd"><path d="M564.2 304.9h-3.6l10.8-33.46a5.5 5.5 0 0 1 5.22-3.7h5.13c4.37.02 6.05 1.74 7.07 4.57.5 1.36.53 3.28.13 4.55l-2.33 7.13a5.4 5.4 0 0 1-4.8 3.6s3.02-9.14 3.96-12.13a3.39 3.39 0 0 0-3.4-4.42c-2.01-.02-3.27 0-5.27 0a2.68 2.68 0 0 0-2.55 1.8L564.2 304.9Zm14-9.59h7.93l-4.47 13.62-3.63-.03 3.37-10.27h-4.3l1.1-3.31Z"/><path d="M595.85 277.98h3.6l-10.82 33.46a5.5 5.5 0 0 1-5.23 3.7h-5.13c-4.38-.02-6.06-1.74-7.08-4.57a7.94 7.94 0 0 1-.13-4.55l2.34-7.13a5.4 5.4 0 0 1 4.81-3.6s-3.03 9.14-3.98 12.13a3.39 3.39 0 0 0 3.4 4.42c2.02.02 3.27 0 5.28 0a2.68 2.68 0 0 0 2.55-1.8l10.4-32.06ZM393.04 500.12h-7.93l4.48-13.6 3.63.02-3.37 10.27h4.3l-1.11 3.31Z"/><path d="M375.4 517.46h-3.6L382.61 484a5.5 5.5 0 0 1 5.23-3.7h5.13c4.38.02 6.06 1.74 7.08 4.57.49 1.36.53 3.28.13 4.55l-2.35 7.13a5.4 5.4 0 0 1-4.8 3.6s3.03-9.15 3.97-12.14a3.39 3.39 0 0 0-3.4-4.4c-2-.03-3.27-.02-5.28 0a2.68 2.68 0 0 0-2.54 1.8l-10.4 32.05Zm126.32-113.28h-7.92l4.47-13.61 3.63.02-3.36 10.28h4.28l-1.1 3.3Z"/><path d="M484.08 421.51h-3.6l10.82-33.45a5.5 5.5 0 0 1 5.23-3.7c2.02-.02 3.11-.01 5.14 0 4.37.01 6.05 1.73 7.07 4.56a7.9 7.9 0 0 1 .13 4.56c-1.04 3.2-1.29 3.93-2.34 7.12a5.4 5.4 0 0 1-4.81 3.61s3.03-9.15 3.98-12.14a3.39 3.39 0 0 0-3.4-4.41c-2.02-.03-3.27-.01-5.28 0a2.68 2.68 0 0 0-2.55 1.8l-10.39 32.05Zm42.8 11.24h7.92l-4.47 13.6-3.63-.02 3.37-10.27h-4.3l1.11-3.31Z"/><path d="M544.52 415.42h3.6l-10.82 33.45a5.5 5.5 0 0 1-5.23 3.7h-5.13c-4.38-.01-6.06-1.74-7.08-4.57a7.94 7.94 0 0 1-.13-4.55c1.04-3.2 1.3-3.93 2.35-7.12a5.4 5.4 0 0 1 4.8-3.61s-3.03 9.15-3.97 12.14a3.39 3.39 0 0 0 3.4 4.41c2 .02 3.27.01 5.28 0a2.68 2.68 0 0 0 2.54-1.8l10.4-32.06ZM287.95 552.33h7.93l-4.48 13.6-3.63-.02 3.37-10.27h-4.3l1.11-3.31Z"/><path d="M305.6 535h3.6l-10.83 33.45a5.5 5.5 0 0 1-5.23 3.7h-5.13c-4.38-.02-6.06-1.74-7.08-4.57a7.93 7.93 0 0 1-.13-4.55c1.04-3.2 1.3-3.94 2.35-7.13a5.4 5.4 0 0 1 4.8-3.6s-3.03 9.15-3.97 12.14a3.39 3.39 0 0 0 3.4 4.4c2 .03 3.27.02 5.27 0a2.68 2.68 0 0 0 2.55-1.8L305.6 535Zm120.23-59.2h7.92l-4.47 13.6-3.63-.02 3.36-10.27h-4.29l1.1-3.32Z"/><path d="M443.47 458.46h3.6l-10.82 33.46a5.5 5.5 0 0 1-5.23 3.7h-5.14c-4.37-.02-6.05-1.74-7.07-4.57a7.93 7.93 0 0 1-.13-4.55l2.34-7.13a5.4 5.4 0 0 1 4.8-3.6s-3.02 9.14-3.97 12.13a3.39 3.39 0 0 0 3.4 4.42c2.01.02 3.27 0 5.28 0a2.68 2.68 0 0 0 2.55-1.81l10.39-32.05ZM345.73 592.4h7.92l-4.47 13.62-3.63-.02 3.37-10.28h-4.3l1.11-3.31Z"/><path d="M363.37 575.08h3.6l-10.82 33.45a5.5 5.5 0 0 1-5.23 3.7h-5.13c-4.38-.01-6.06-1.73-7.08-4.57a7.93 7.93 0 0 1-.13-4.55c1.04-3.2 1.29-3.93 2.35-7.12a5.4 5.4 0 0 1 4.8-3.61s-3.03 9.15-3.98 12.14a3.39 3.39 0 0 0 3.4 4.41c2.02.02 3.28.01 5.28 0a2.68 2.68 0 0 0 2.55-1.8l10.4-32.05ZM629.4 293.64h-3.6l10.8-33.46a5.5 5.5 0 0 1 5.22-3.7h5.13c4.38.02 6.06 1.74 7.08 4.57.49 1.36.53 3.28.13 4.55-1.04 3.2-1.28 3.94-2.34 7.13a5.4 5.4 0 0 1-4.8 3.6s3.02-9.15 3.97-12.14a3.39 3.39 0 0 0-3.4-4.4c-2.01-.03-3.27-.02-5.28 0a2.68 2.68 0 0 0-2.54 1.8l-10.37 32.05Zm14-9.59h7.92l-4.47 13.61-3.64-.02 3.37-10.27h-4.29l1.1-3.32Z"/><path d="M661.04 266.72h3.6l-10.82 33.45a5.5 5.5 0 0 1-5.23 3.7c-2.02.02-3.12.02-5.14 0-4.37-.01-6.05-1.73-7.07-4.56a7.94 7.94 0 0 1-.13-4.55l2.34-7.13a5.4 5.4 0 0 1 4.8-3.6s-3.02 9.14-3.97 12.13a3.39 3.39 0 0 0 3.4 4.42c2.01.02 3.27 0 5.28 0a2.68 2.68 0 0 0 2.54-1.81l10.4-32.05Zm16.29 29.73h-7.93l4.48-13.6 3.63.02-3.37 10.27h4.29l-1.1 3.31Z"/><path d="M659.68 313.79h-3.6l10.82-33.46a5.5 5.5 0 0 1 5.23-3.7h5.14c4.37.02 6.06 1.74 7.08 4.57.49 1.36.53 3.28.12 4.55l-2.34 7.13a5.4 5.4 0 0 1-4.8 3.6s3.03-9.14 3.97-12.13a3.39 3.39 0 0 0-3.4-4.42c-2.01-.02-3.27 0-5.28 0a2.68 2.68 0 0 0-2.54 1.8l-10.4 32.06ZM488.52 509.01h-7.92l4.48-13.6 3.63.02-3.37 10.27h4.29l-1.1 3.31Z"/><path d="M470.88 526.35h-3.6l10.82-33.46a5.5 5.5 0 0 1 5.23-3.7h5.14c4.37.02 6.06 1.74 7.08 4.57.49 1.36.53 3.28.12 4.55l-2.34 7.13a5.4 5.4 0 0 1-4.8 3.6s3.03-9.15 3.97-12.14a3.39 3.39 0 0 0-3.4-4.4c-2.01-.03-3.27-.02-5.28 0a2.68 2.68 0 0 0-2.54 1.8l-10.4 32.05ZM433.3 421.86h7.92l-4.48 13.6-3.63-.02 3.37-10.27h-4.3l1.11-3.31Z"/><path d="M450.93 404.52h3.6l-10.82 33.46a5.5 5.5 0 0 1-5.22 3.7h-5.14c-4.38-.02-6.06-1.74-7.08-4.57a7.94 7.94 0 0 1-.13-4.55l2.35-7.13a5.4 5.4 0 0 1 4.8-3.6s-3.03 9.15-3.97 12.14a3.39 3.39 0 0 0 3.4 4.41c2.01.02 3.27.01 5.28 0a2.68 2.68 0 0 0 2.54-1.8l10.4-32.06ZM248.12 626.67h-7.92l4.47-13.61 3.63.02-3.37 10.27h4.3l-1.1 3.32Z"/><path d="M230.48 644h-3.6l10.82-33.46a5.5 5.5 0 0 1 5.23-3.7h5.13c4.38.02 6.06 1.74 7.08 4.57.49 1.36.53 3.28.13 4.55l-2.34 7.13a5.4 5.4 0 0 1-4.81 3.6s3.03-9.14 3.98-12.13a3.39 3.39 0 0 0-3.4-4.41c-2.02-.03-3.27-.02-5.28 0a2.68 2.68 0 0 0-2.55 1.8L230.47 644Zm344-304.13h-7.92l4.48-13.6 3.63.02-3.37 10.27h4.29l-1.1 3.31Z"/><path d="M556.84 357.2h-3.6l10.82-33.45a5.5 5.5 0 0 1 5.23-3.7c2.02-.02 3.12-.01 5.14 0 4.37.01 6.06 1.73 7.07 4.57.5 1.36.53 3.27.13 4.55-1.04 3.2-1.29 3.93-2.34 7.12a5.4 5.4 0 0 1-4.8 3.61s3.02-9.15 3.97-12.14a3.39 3.39 0 0 0-3.4-4.41c-2.01-.03-3.27-.01-5.28 0a2.68 2.68 0 0 0-2.54 1.8l-10.4 32.05ZM155.4 479.45h-3.6L162.6 446a5.5 5.5 0 0 1 5.23-3.7c2.02-.02 3.11-.02 5.14 0 4.37.01 6.05 1.73 7.07 4.56.5 1.36.53 3.28.13 4.55-1.04 3.2-1.28 3.94-2.34 7.13a5.4 5.4 0 0 1-4.8 3.6s3.03-9.14 3.97-12.13a3.39 3.39 0 0 0-3.4-4.41c-2.01-.03-3.27-.02-5.28 0a2.68 2.68 0 0 0-2.54 1.8l-10.37 32.05Zm14.03-9.58h7.92l-4.48 13.6-3.63-.02 3.37-10.27h-4.29l1.1-3.31Z"/><path d="M187.07 452.53h3.6L179.85 486a5.5 5.5 0 0 1-5.23 3.7h-5.14c-4.37-.02-6.06-1.74-7.07-4.57a7.93 7.93 0 0 1-.13-4.55c1.04-3.2 1.28-3.94 2.34-7.13a5.4 5.4 0 0 1 4.8-3.6s-3.02 9.15-3.97 12.14a3.39 3.39 0 0 0 3.4 4.4c2.01.03 3.27.02 5.28 0a2.68 2.68 0 0 0 2.54-1.8l10.4-32.05Zm95.15-88.43h-7.93l4.48-13.61 3.63.02-3.37 10.28h4.3l-1.11 3.3Z"/><path d="M264.57 381.43h-3.6l10.83-33.45a5.5 5.5 0 0 1 5.23-3.7c2.02-.02 3.11-.02 5.13 0 4.38.01 6.06 1.73 7.08 4.56.49 1.36.53 3.28.13 4.55l-2.35 7.13a5.4 5.4 0 0 1-4.8 3.61s3.03-9.15 3.97-12.14a3.39 3.39 0 0 0-3.4-4.41c-2-.03-3.27-.01-5.28 0a2.68 2.68 0 0 0-2.54 1.8l-10.4 32.05Zm14.03-9.58h7.93l-4.47 13.6-3.64-.02 3.37-10.27h-4.29l1.1-3.31Z"/><path d="M296.25 354.51h3.6l-10.82 33.46a5.5 5.5 0 0 1-5.23 3.7h-5.14c-4.37-.02-6.06-1.74-7.08-4.57a7.94 7.94 0 0 1-.12-4.55l2.34-7.13a5.4 5.4 0 0 1 4.8-3.6s-3.02 9.15-3.97 12.14a3.39 3.39 0 0 0 3.4 4.41c2.01.02 3.27.01 5.28 0a2.68 2.68 0 0 0 2.54-1.8l10.4-32.06Zm91.04-78.68h7.92l-4.47 13.61-3.63-.02 3.37-10.28h-4.3l1.11-3.31Z"/><path d="M404.93 258.5h3.6l-10.82 33.45a5.5 5.5 0 0 1-5.23 3.7c-2.02.02-3.11.02-5.13 0-4.38-.01-6.06-1.73-7.08-4.57a7.94 7.94 0 0 1-.13-4.55c1.04-3.2 1.29-3.93 2.35-7.12a5.4 5.4 0 0 1 4.8-3.61s-3.03 9.15-3.98 12.14a3.39 3.39 0 0 0 3.4 4.41c2.02.03 3.28.01 5.28 0a2.68 2.68 0 0 0 2.55-1.8l10.4-32.05ZM202.12 480.71h-7.93l4.48-13.6 3.63.02-3.37 10.27h4.3l-1.11 3.31Z"/><path d="M184.47 498.05h-3.6l10.83-33.46a5.5 5.5 0 0 1 5.23-3.7h5.13c4.38.02 6.06 1.74 7.08 4.57.49 1.36.53 3.28.13 4.55l-2.34 7.13a5.4 5.4 0 0 1-4.81 3.6s3.03-9.15 3.98-12.14a3.39 3.39 0 0 0-3.4-4.4c-2.02-.03-3.28-.02-5.28 0a2.68 2.68 0 0 0-2.55 1.8l-10.4 32.05Zm14.03-9.59h7.93l-4.47 13.61-3.64-.02 3.38-10.28h-4.3l1.1-3.3Z"/><path d="M216.15 471.13h3.6l-10.82 33.45a5.5 5.5 0 0 1-5.23 3.7c-2.02.02-3.11.02-5.14 0-4.37-.01-6.05-1.73-7.07-4.56a7.94 7.94 0 0 1-.13-4.55l2.34-7.13a5.4 5.4 0 0 1 4.81-3.6s-3.03 9.14-3.98 12.13a3.39 3.39 0 0 0 3.4 4.42c2.01.02 3.27 0 5.28 0a2.68 2.68 0 0 0 2.55-1.81l10.4-32.05Zm94.75-85.55h-7.93l4.48-13.6 3.63.02-3.37 10.27H312l-1.1 3.31Z"/><path d="M293.25 402.92h-3.6l10.82-33.46a5.5 5.5 0 0 1 5.23-3.7h5.14c4.38.02 6.06 1.74 7.08 4.57.49 1.36.53 3.28.13 4.55L315.7 382a5.4 5.4 0 0 1-4.8 3.6s3.03-9.15 3.97-12.14a3.39 3.39 0 0 0-3.4-4.4c-2.01-.03-3.27-.02-5.28 0a2.68 2.68 0 0 0-2.54 1.8l-10.4 32.05Zm14.03-9.59h7.93l-4.48 13.61-3.63-.02 3.37-10.27h-4.29l1.1-3.32Z"/><path d="M324.93 376h3.6l-10.82 33.45a5.5 5.5 0 0 1-5.23 3.7c-2.02.02-3.12.02-5.14 0-4.38-.01-6.06-1.73-7.08-4.56a7.93 7.93 0 0 1-.13-4.55l2.35-7.13a5.4 5.4 0 0 1 4.8-3.6s-3.03 9.14-3.97 12.13a3.39 3.39 0 0 0 3.4 4.42c2.01.02 3.27 0 5.28 0a2.68 2.68 0 0 0 2.54-1.81l10.4-32.05Zm94.67-86.36h-7.93l4.48-13.61 3.63.02-3.37 10.28h4.29l-1.1 3.3Z"/><path d="M401.95 306.97h-3.6l10.82-33.45a5.5 5.5 0 0 1 5.23-3.7c2.02-.02 3.12-.01 5.14 0 4.38.01 6.06 1.73 7.08 4.56.49 1.37.53 3.28.13 4.56l-2.35 7.12a5.4 5.4 0 0 1-4.8 3.61s3.03-9.15 3.97-12.14a3.39 3.39 0 0 0-3.4-4.41c-2.01-.03-3.27-.01-5.28 0a2.68 2.68 0 0 0-2.54 1.8l-10.4 32.05Zm14.04-9.58h7.92l-4.48 13.6-3.63-.01 3.37-10.28h-4.29l1.1-3.31Z"/><path d="M433.63 280.06h3.6l-10.82 33.45a5.5 5.5 0 0 1-5.23 3.7c-2.02.02-3.12.01-5.14 0-4.37-.01-6.06-1.73-7.08-4.57a7.93 7.93 0 0 1-.12-4.55c1.04-3.2 1.29-3.93 2.34-7.12a5.4 5.4 0 0 1 4.8-3.61s-3.03 9.15-3.97 12.14a3.39 3.39 0 0 0 3.4 4.41c2.01.02 3.27.01 5.28 0a2.68 2.68 0 0 0 2.54-1.8l10.4-32.05ZM230.8 502.2h-7.93l4.48-13.61 3.63.02-3.37 10.28h4.29l-1.1 3.3Z"/><path d="M213.15 519.53h-3.6l10.82-33.45a5.5 5.5 0 0 1 5.23-3.7c2.02-.02 3.12-.02 5.14 0 4.38.01 6.06 1.73 7.08 4.56.49 1.37.53 3.28.13 4.55l-2.35 7.13a5.4 5.4 0 0 1-4.8 3.61s3.03-9.15 3.97-12.14a3.39 3.39 0 0 0-3.4-4.41c-2-.03-3.27-.01-5.28 0a2.68 2.68 0 0 0-2.54 1.8l-10.4 32.05Zm14.04-9.58h7.92l-4.48 13.6-3.63-.02 3.37-10.27h-4.29l1.1-3.31Z"/><path d="M244.83 492.62h3.6l-10.82 33.45a5.5 5.5 0 0 1-5.23 3.7h-5.14c-4.37-.01-6.06-1.74-7.08-4.57a7.93 7.93 0 0 1-.12-4.55c1.04-3.2 1.29-3.93 2.34-7.12a5.4 5.4 0 0 1 4.8-3.61s-3.03 9.15-3.97 12.14a3.39 3.39 0 0 0 3.4 4.41c2.01.02 3.27.01 5.28 0a2.68 2.68 0 0 0 2.54-1.8l10.4-32.05Zm94.85-86.22h-7.92l4.48-13.6 3.63.02-3.37 10.27h4.29l-1.1 3.31Z"/><path d="M322.04 423.74h-3.6l10.82-33.46a5.5 5.5 0 0 1 5.23-3.7h5.14c4.37.02 6.06 1.74 7.07 4.57.5 1.36.54 3.28.13 4.55l-2.34 7.13a5.4 5.4 0 0 1-4.8 3.6s3.02-9.15 3.97-12.14a3.39 3.39 0 0 0-3.4-4.4c-2.01-.03-3.27-.02-5.28 0a2.68 2.68 0 0 0-2.54 1.8l-10.4 32.05Zm14.03-9.59H344l-4.48 13.61-3.63-.02 3.37-10.27h-4.3l1.11-3.32Z"/><path d="M353.72 396.82h3.6l-10.83 33.45a5.5 5.5 0 0 1-5.23 3.71h-5.13c-4.38-.02-6.06-1.74-7.08-4.57a7.94 7.94 0 0 1-.13-4.55c1.04-3.2 1.3-3.94 2.35-7.13a5.4 5.4 0 0 1 4.8-3.6s-3.03 9.14-3.97 12.13a3.39 3.39 0 0 0 3.4 4.42c2 .02 3.27 0 5.28 0a2.68 2.68 0 0 0 2.54-1.81l10.4-32.05Zm94.65-86.36h-7.93l4.48-13.61 3.63.02-3.37 10.28h4.29l-1.1 3.3Z"/><path d="M430.72 327.8h-3.6l10.82-33.46a5.5 5.5 0 0 1 5.24-3.7c2.01-.02 3.11-.02 5.13 0 4.38.01 6.06 1.73 7.08 4.56.49 1.37.53 3.28.13 4.55l-2.35 7.13a5.4 5.4 0 0 1-4.8 3.61s3.03-9.15 3.97-12.14a3.39 3.39 0 0 0-3.4-4.41c-2.01-.03-3.27-.01-5.28 0a2.68 2.68 0 0 0-2.54 1.8l-10.4 32.05Zm14.04-9.6h7.92l-4.48 13.62-3.63-.02 3.37-10.28h-4.29l1.1-3.31Z"/><path d="M462.4 300.88h3.6l-10.82 33.45a5.5 5.5 0 0 1-5.23 3.7c-2.02.02-3.12.01-5.14 0-4.37-.01-6.06-1.73-7.08-4.57a7.94 7.94 0 0 1-.12-4.55c1.04-3.2 1.28-3.93 2.34-7.12a5.4 5.4 0 0 1 4.8-3.61s-3.02 9.15-3.97 12.14a3.39 3.39 0 0 0 3.4 4.41c2.01.02 3.27.01 5.28 0a2.68 2.68 0 0 0 2.54-1.8l10.4-32.06ZM259.58 523.02h-7.92l4.48-13.61 3.63.02-3.37 10.27h4.29l-1.1 3.32Z"/><path d="M241.94 540.35h-3.6l10.82-33.46a5.5 5.5 0 0 1 5.23-3.7h5.14c4.38.02 6.06 1.74 7.08 4.57.49 1.36.53 3.28.13 4.55l-2.35 7.13a5.4 5.4 0 0 1-4.8 3.6s3.03-9.14 3.97-12.13a3.39 3.39 0 0 0-3.4-4.42c-2.01-.02-3.27 0-5.28 0a2.68 2.68 0 0 0-2.54 1.81l-10.4 32.05Zm14.03-9.58h7.93l-4.48 13.6-3.63-.02 3.37-10.27h-4.29l1.1-3.31Z"/><path d="M273.62 513.43h3.6L266.4 546.9a5.5 5.5 0 0 1-5.23 3.7h-5.14c-4.37-.02-6.06-1.74-7.08-4.57a7.93 7.93 0 0 1-.13-4.55l2.35-7.13a5.4 5.4 0 0 1 4.8-3.6s-3.03 9.15-3.97 12.14a3.39 3.39 0 0 0 3.4 4.4c2.01.03 3.27.02 5.28 0a2.68 2.68 0 0 0 2.54-1.8l10.4-32.05Zm96.36-86.88h-7.92l4.47-13.6 3.64.02-3.38 10.27h4.3l-1.1 3.31Z"/><path d="M352.34 443.89h-3.6l10.82-33.46a5.5 5.5 0 0 1 5.23-3.7h5.14c4.37.02 6.06 1.74 7.07 4.57.5 1.36.53 3.28.13 4.55l-2.34 7.13a5.4 5.4 0 0 1-4.8 3.6s3.02-9.15 3.97-12.13a3.39 3.39 0 0 0-3.4-4.42c-2.01-.02-3.27 0-5.28 0a2.68 2.68 0 0 0-2.54 1.8l-10.4 32.06Zm14.03-9.59h7.93l-4.48 13.61-3.63-.02 3.37-10.27h-4.3l1.11-3.32Z"/><path d="M384.01 416.97h3.6l-10.82 33.46a5.5 5.5 0 0 1-5.23 3.7h-5.13c-4.38-.02-6.06-1.74-7.08-4.57a7.94 7.94 0 0 1-.13-4.55c1.04-3.2 1.3-3.94 2.35-7.13a5.4 5.4 0 0 1 4.8-3.6s-3.03 9.14-3.98 12.13a3.39 3.39 0 0 0 3.4 4.42c2.02.02 3.28 0 5.28 0a2.68 2.68 0 0 0 2.55-1.81l10.4-32.05Zm94.67-86.36h-7.92l4.48-13.6 3.63.01-3.37 10.28h4.29l-1.1 3.31Z"/><path d="M461.04 347.94h-3.6l10.82-33.45a5.5 5.5 0 0 1 5.23-3.7c2.02-.02 3.12-.01 5.14 0 4.37.01 6.06 1.73 7.08 4.57.49 1.36.53 3.27.12 4.55-1.04 3.2-1.28 3.93-2.34 7.12a5.4 5.4 0 0 1-4.8 3.61s3.02-9.15 3.97-12.14a3.39 3.39 0 0 0-3.4-4.41c-2.01-.02-3.27-.01-5.28 0a2.68 2.68 0 0 0-2.54 1.8l-10.4 32.05Zm14.03-9.58H483l-4.48 13.6-3.63-.01 3.37-10.28h-4.29l1.1-3.31Z"/><path d="M492.72 321.03h3.6l-10.82 33.45a5.5 5.5 0 0 1-5.24 3.7c-2.01.02-3.11.01-5.13 0-4.38-.01-6.06-1.73-7.08-4.57a7.94 7.94 0 0 1-.13-4.55l2.35-7.12a5.4 5.4 0 0 1 4.8-3.61s-3.03 9.15-3.97 12.14a3.39 3.39 0 0 0 3.4 4.41c2.01.03 3.27.01 5.28 0a2.68 2.68 0 0 0 2.54-1.8l10.4-32.05ZM209.45 430.04h-7.92l4.48-13.61 3.63.02-3.37 10.27h4.29l-1.1 3.32Z"/><path d="M191.81 447.37h-3.6l10.82-33.45a5.5 5.5 0 0 1 5.23-3.71h5.14c4.38.02 6.06 1.74 7.08 4.57.49 1.36.53 3.28.12 4.55-1.04 3.2-1.28 3.94-2.34 7.13a5.4 5.4 0 0 1-4.8 3.6s3.03-9.14 3.97-12.13a3.39 3.39 0 0 0-3.4-4.42c-2.01-.02-3.27 0-5.28 0a2.68 2.68 0 0 0-2.54 1.81l-10.4 32.05Zm14.03-9.58h7.93l-4.48 13.6-3.63-.02 3.37-10.27h-4.29l1.1-3.31Z"/><path d="M223.49 420.45h3.6l-10.83 33.46a5.5 5.5 0 0 1-5.22 3.7h-5.14c-4.38-.02-6.06-1.74-7.08-4.57a7.93 7.93 0 0 1-.13-4.55l2.35-7.13a5.4 5.4 0 0 1 4.8-3.6s-3.03 9.15-3.97 12.14a3.39 3.39 0 0 0 3.4 4.4c2.01.03 3.27.02 5.28 0a2.68 2.68 0 0 0 2.54-1.8l10.4-32.05Zm95.14-88.51h-7.92l4.48-13.6 3.63.02-3.37 10.27h4.29l-1.1 3.31Z"/><path d="M301 349.28h-3.61l10.82-33.46a5.5 5.5 0 0 1 5.23-3.7h5.14c4.38.02 6.06 1.74 7.08 4.57.49 1.36.53 3.28.13 4.55l-2.35 7.13a5.4 5.4 0 0 1-4.8 3.6s3.03-9.15 3.97-12.14a3.39 3.39 0 0 0-3.4-4.4c-2.01-.03-3.27-.02-5.28 0a2.68 2.68 0 0 0-2.54 1.8l-10.4 32.05Zm14.02-9.58h7.93l-4.48 13.6-3.63-.02 3.37-10.27h-4.29l1.1-3.32Z"/><path d="M332.67 322.36h3.6l-10.82 33.45a5.5 5.5 0 0 1-5.23 3.7c-2.02.02-3.12.02-5.14 0-4.38-.01-6.06-1.73-7.08-4.56a7.93 7.93 0 0 1-.13-4.55l2.35-7.13a5.4 5.4 0 0 1 4.8-3.6s-3.03 9.14-3.97 12.13a3.39 3.39 0 0 0 3.4 4.41c2.01.03 3.27.02 5.28 0a2.68 2.68 0 0 0 2.54-1.8l10.4-32.05Zm-94.13 126.2h-7.93l4.48-13.61 3.63.02-3.37 10.28h4.3l-1.11 3.3Z"/><path d="M220.9 465.9h-3.6l10.82-33.46a5.5 5.5 0 0 1 5.23-3.7c2.02-.02 3.11-.02 5.13 0 4.38.01 6.06 1.73 7.08 4.56.49 1.36.53 3.28.13 4.55-1.04 3.2-1.3 3.94-2.35 7.13a5.4 5.4 0 0 1-4.8 3.61s3.03-9.15 3.97-12.14a3.39 3.39 0 0 0-3.4-4.41c-2-.03-3.27-.01-5.28 0a2.68 2.68 0 0 0-2.54 1.8l-10.4 32.05Zm14.03-9.6h7.92l-4.47 13.62-3.64-.03 3.37-10.27h-4.29l1.1-3.31Z"/><path d="M252.57 438.98h3.6l-10.82 33.45a5.5 5.5 0 0 1-5.23 3.7h-5.14c-4.37-.01-6.06-1.74-7.07-4.57a7.93 7.93 0 0 1-.13-4.55c1.04-3.2 1.29-3.93 2.34-7.12a5.4 5.4 0 0 1 4.8-3.61s-3.02 9.15-3.97 12.14a3.39 3.39 0 0 0 3.4 4.41c2.01.02 3.27.01 5.28 0a2.68 2.68 0 0 0 2.54-1.8l10.4-32.05Zm-80.56 116.39h3.6l-10.8 33.45a5.5 5.5 0 0 1-5.22 3.7c-2.02.02-3.11.02-5.13 0-4.37-.01-6.06-1.73-7.08-4.56a7.94 7.94 0 0 1-.13-4.56c1.04-3.2 1.29-3.93 2.34-7.12a5.4 5.4 0 0 1 4.8-3.61s-3.02 9.15-3.97 12.14a3.39 3.39 0 0 0 3.4 4.41c2.02.03 3.27.01 5.28 0a2.68 2.68 0 0 0 2.54-1.8l10.37-32.05Zm175.3-201.87h-7.92l4.48-13.6 3.63.02-3.37 10.27h4.29l-1.1 3.31Z"/><path d="M329.67 370.84h-3.6l10.82-33.46a5.5 5.5 0 0 1 5.23-3.7h5.14c4.37.02 6.06 1.74 7.07 4.57.5 1.36.54 3.28.13 4.55l-2.34 7.13a5.4 5.4 0 0 1-4.8 3.6s3.02-9.15 3.97-12.14a3.39 3.39 0 0 0-3.4-4.4c-2.01-.03-3.27-.02-5.28 0a2.68 2.68 0 0 0-2.54 1.8l-10.4 32.05Zm14.03-9.59h7.93l-4.48 13.61-3.63-.02 3.37-10.27h-4.3l1.11-3.32Z"/><path d="M361.35 343.92h3.6l-10.83 33.45a5.5 5.5 0 0 1-5.23 3.7c-2.01.02-3.11.02-5.13 0-4.38-.01-6.06-1.73-7.08-4.56a7.94 7.94 0 0 1-.13-4.55l2.35-7.13a5.4 5.4 0 0 1 4.8-3.6s-3.03 9.14-3.97 12.13a3.39 3.39 0 0 0 3.4 4.41c2 .03 3.27.02 5.28 0a2.68 2.68 0 0 0 2.54-1.8l10.4-32.05Zm-94.14 126.2h-7.92l4.48-13.61 3.63.02-3.37 10.28h4.29l-1.1 3.3Z"/><path d="M249.57 487.45h-3.6L256.79 454a5.5 5.5 0 0 1 5.23-3.7c2.02-.02 3.12-.02 5.14 0 4.38.01 6.06 1.73 7.08 4.56.49 1.36.53 3.28.13 4.55l-2.35 7.13a5.4 5.4 0 0 1-4.8 3.61s3.03-9.15 3.97-12.14a3.39 3.39 0 0 0-3.4-4.41c-2.01-.03-3.27-.02-5.28 0a2.68 2.68 0 0 0-2.54 1.8l-10.4 32.05Zm14.03-9.58h7.93l-4.48 13.6-3.63-.02 3.37-10.27h-4.29l1.1-3.31Z"/><path d="M281.25 460.54h3.6l-10.82 33.45a5.5 5.5 0 0 1-5.23 3.7h-5.14c-4.38-.01-6.06-1.74-7.08-4.57a7.94 7.94 0 0 1-.13-4.55l2.35-7.12a5.4 5.4 0 0 1 4.8-3.61s-3.03 9.15-3.97 12.14a3.39 3.39 0 0 0 3.4 4.41c2.01.02 3.27.01 5.28 0a2.68 2.68 0 0 0 2.54-1.8l10.4-32.05Zm-94.47 125.3h-7.92l4.48-13.6 3.63.02-3.37 10.27h4.29l-1.1 3.31Z"/><path d="M169.14 603.18h-3.6l10.82-33.46a5.5 5.5 0 0 1 5.23-3.7h5.14c4.38.02 6.06 1.74 7.08 4.57.49 1.36.53 3.28.13 4.55l-2.35 7.13a5.4 5.4 0 0 1-4.8 3.6s3.03-9.15 3.97-12.14a3.39 3.39 0 0 0-3.4-4.4c-2.01-.03-3.27-.02-5.28 0a2.68 2.68 0 0 0-2.54 1.8l-10.4 32.05Zm14.04-9.58h7.92l-4.48 13.6-3.63-.02 3.37-10.27h-4.29l1.1-3.32Z"/><path d="M200.82 576.26h3.6l-10.82 33.46a5.5 5.5 0 0 1-5.23 3.7h-5.14c-4.38-.02-6.06-1.74-7.08-4.57a7.94 7.94 0 0 1-.13-4.55l2.35-7.13a5.4 5.4 0 0 1 4.8-3.6s-3.03 9.14-3.97 12.13a3.39 3.39 0 0 0 3.4 4.42c2.01.02 3.27 0 5.28 0a2.68 2.68 0 0 0 2.54-1.81l10.4-32.05ZM376.1 374.32h-7.92l4.47-13.6 3.64.02L372.9 371h4.3l-1.1 3.31Z"/><path d="M358.46 391.65h-3.6l10.82-33.45a5.5 5.5 0 0 1 5.23-3.7h5.14c4.37.01 6.05 1.74 7.07 4.57.5 1.36.53 3.28.13 4.55l-2.34 7.13a5.4 5.4 0 0 1-4.81 3.6s3.03-9.15 3.98-12.14a3.39 3.39 0 0 0-3.4-4.41c-2.01-.02-3.27-.01-5.28 0a2.68 2.68 0 0 0-2.55 1.8l-10.4 32.05Zm14.04-9.58h7.92l-4.48 13.61-3.63-.02 3.37-10.28h-4.3l1.11-3.3Z"/><path d="M390.13 364.74h3.6l-10.82 33.45a5.5 5.5 0 0 1-5.23 3.7c-2.02.02-3.11.02-5.13 0-4.38-.01-6.06-1.73-7.08-4.56a7.94 7.94 0 0 1-.13-4.55c1.04-3.2 1.29-3.94 2.35-7.13a5.4 5.4 0 0 1 4.8-3.61s-3.03 9.15-3.98 12.14a3.39 3.39 0 0 0 3.4 4.41c2.02.03 3.28.02 5.28 0a2.68 2.68 0 0 0 2.55-1.8l10.4-32.05Zm77.03-69.03h-3.6l10.8-33.45a5.5 5.5 0 0 1 5.22-3.7c2.02-.02 3.11-.02 5.13 0 4.38.01 6.06 1.73 7.08 4.56.49 1.36.53 3.28.13 4.55l-2.34 7.13a5.4 5.4 0 0 1-4.8 3.61s3.03-9.15 3.97-12.14a3.39 3.39 0 0 0-3.4-4.41c-2.02-.03-3.27-.01-5.28 0a2.68 2.68 0 0 0-2.54 1.8l-10.37 32.05Zm14.01-9.58h7.93l-4.48 13.6-3.63-.02 3.37-10.27h-4.29l1.1-3.31Z"/><path d="M498.82 268.8h3.6l-10.82 33.45a5.5 5.5 0 0 1-5.23 3.7h-5.14c-4.38-.01-6.06-1.74-7.08-4.57a7.93 7.93 0 0 1-.13-4.55l2.35-7.12a5.4 5.4 0 0 1 4.8-3.61s-3.03 9.15-3.97 12.14a3.39 3.39 0 0 0 3.4 4.41c2.01.02 3.27.01 5.28 0a2.68 2.68 0 0 0 2.54-1.8l10.4-32.06ZM295.98 490.94h-7.92l4.48-13.61 3.63.02-3.37 10.27h4.29l-1.1 3.32Z"/><path d="M278.34 508.27h-3.6l10.82-33.45a5.5 5.5 0 0 1 5.23-3.7c2.02-.02 3.12-.02 5.14 0 4.38.01 6.06 1.73 7.08 4.56.49 1.36.53 3.28.13 4.55l-2.35 7.13a5.4 5.4 0 0 1-4.8 3.6s3.03-9.14 3.97-12.13a3.39 3.39 0 0 0-3.4-4.41c-2.01-.03-3.27-.02-5.28 0a2.68 2.68 0 0 0-2.54 1.8l-10.4 32.05Zm14.03-9.58h7.93l-4.48 13.6-3.63-.02 3.37-10.27h-4.29l1.1-3.31Z"/><path d="M310.02 481.35h3.6l-10.82 33.46a5.5 5.5 0 0 1-5.23 3.7h-5.14c-4.38-.02-6.06-1.74-7.08-4.57a7.94 7.94 0 0 1-.13-4.55l2.35-7.13a5.4 5.4 0 0 1 4.8-3.6s-3.03 9.15-3.97 12.14a3.39 3.39 0 0 0 3.4 4.4c2.01.03 3.27.02 5.28 0a2.68 2.68 0 0 0 2.54-1.8l10.4-32.05Zm96.38-86.88h-7.92l4.47-13.6 3.63.02-3.37 10.27h4.3l-1.11 3.31Z"/><path d="M388.76 411.8h-3.6l10.82-33.45a5.5 5.5 0 0 1 5.23-3.7h5.14c4.37.02 6.05 1.74 7.07 4.57.5 1.36.53 3.28.13 4.55l-2.34 7.13a5.4 5.4 0 0 1-4.81 3.6s3.03-9.15 3.98-12.14a3.39 3.39 0 0 0-3.4-4.4c-2.02-.03-3.27-.02-5.28 0a2.68 2.68 0 0 0-2.55 1.8l-10.4 32.05Zm14.03-9.58h7.92l-4.47 13.61-3.63-.02 3.37-10.27h-4.3l1.11-3.32Z"/><path d="M420.43 384.9h3.6l-10.82 33.45a5.5 5.5 0 0 1-5.23 3.7h-5.13c-4.38-.02-6.06-1.74-7.08-4.57a7.93 7.93 0 0 1-.13-4.55l2.34-7.13a5.4 5.4 0 0 1 4.81-3.6s-3.03 9.14-3.98 12.13a3.39 3.39 0 0 0 3.4 4.42c2.02.02 3.28 0 5.28 0a2.68 2.68 0 0 0 2.55-1.81l10.4-32.05Zm94.67-86.37h-7.92l4.47-13.61 3.64.02-3.37 10.28h4.29l-1.1 3.31Z"/><path d="M497.46 315.86h-3.6l10.82-33.45a5.5 5.5 0 0 1 5.23-3.7c2.02-.02 3.12-.01 5.14 0 4.37.01 6.06 1.73 7.07 4.57.5 1.36.53 3.27.13 4.55-1.04 3.2-1.29 3.93-2.34 7.12a5.4 5.4 0 0 1-4.8 3.61s3.02-9.15 3.97-12.14a3.39 3.39 0 0 0-3.4-4.41c-2.01-.03-3.27-.01-5.28 0a2.68 2.68 0 0 0-2.54 1.8l-10.4 32.05Zm14.04-9.58h7.92l-4.48 13.61-3.63-.02 3.37-10.28h-4.3l1.11-3.31Z"/><path d="M529.13 288.95h3.6l-10.82 33.45a5.5 5.5 0 0 1-5.23 3.7c-2.02.02-3.11.01-5.13 0-4.38-.01-6.06-1.73-7.08-4.57a7.94 7.94 0 0 1-.13-4.55c1.04-3.2 1.3-3.93 2.35-7.12a5.4 5.4 0 0 1 4.8-3.61s-3.03 9.15-3.98 12.14a3.39 3.39 0 0 0 3.4 4.41c2.02.03 3.28.01 5.29 0a2.68 2.68 0 0 0 2.54-1.8l10.4-32.05ZM246.1 395.51h-7.93l4.48-13.6 3.63.01-3.37 10.28h4.29l-1.1 3.31Z"/><path d="M228.45 412.84h-3.6l10.82-33.45a5.5 5.5 0 0 1 5.23-3.7h5.14c4.37.01 6.06 1.73 7.08 4.57.48 1.36.53 3.28.12 4.55-1.04 3.2-1.28 3.93-2.34 7.12a5.4 5.4 0 0 1-4.8 3.61s3.03-9.15 3.97-12.14a3.39 3.39 0 0 0-3.4-4.41c-2.01-.03-3.27-.01-5.28 0a2.68 2.68 0 0 0-2.54 1.8l-10.4 32.05Zm14.03-9.58h7.93l-4.48 13.61-3.63-.02 3.37-10.28h-4.3l1.11-3.3Z"/><path d="M260.13 385.93h3.6l-10.83 33.45a5.5 5.5 0 0 1-5.22 3.7c-2.02.02-3.12.02-5.14 0-4.38-.01-6.06-1.73-7.08-4.56a7.94 7.94 0 0 1-.13-4.56l2.35-7.12a5.4 5.4 0 0 1 4.8-3.61s-3.03 9.15-3.97 12.14a3.39 3.39 0 0 0 3.4 4.41c2.01.03 3.27.01 5.28 0a2.68 2.68 0 0 0 2.54-1.8l10.4-32.05Zm94.67-86.36h-7.93l4.48-13.61 3.63.02-3.37 10.27h4.29l-1.1 3.32Z"/><path d="M337.15 316.9h-3.6l10.82-33.45a5.5 5.5 0 0 1 5.23-3.7c2.02-.02 3.12-.02 5.14 0 4.38.01 6.06 1.73 7.08 4.56.49 1.36.53 3.28.13 4.55L359.6 296a5.4 5.4 0 0 1-4.8 3.61s3.03-9.15 3.97-12.14a3.39 3.39 0 0 0-3.4-4.41c-2.01-.03-3.27-.01-5.28 0a2.68 2.68 0 0 0-2.54 1.8l-10.4 32.05Zm14.04-9.58h7.92l-4.48 13.6-3.63-.02 3.37-10.27h-4.29l1.1-3.31Z"/><path d="M368.83 289.99h3.6l-10.82 33.45a5.5 5.5 0 0 1-5.23 3.7h-5.14c-4.37-.02-6.06-1.74-7.08-4.57a7.93 7.93 0 0 1-.12-4.55c1.04-3.2 1.28-3.94 2.34-7.13a5.4 5.4 0 0 1 4.8-3.6s-3.03 9.15-3.97 12.14a3.39 3.39 0 0 0 3.4 4.41c2.01.02 3.27.01 5.28 0a2.68 2.68 0 0 0 2.54-1.8l10.4-32.06ZM148.37 529.46h-3.6l10.8-33.46a5.5 5.5 0 0 1 5.22-3.7h5.14c4.37.02 6.05 1.74 7.07 4.57.49 1.36.53 3.28.13 4.55-1.04 3.2-1.28 3.94-2.34 7.13a5.4 5.4 0 0 1-4.8 3.6s3.03-9.14 3.97-12.13a3.39 3.39 0 0 0-3.4-4.42c-2.01-.02-3.27 0-5.28 0a2.68 2.68 0 0 0-2.54 1.81l-10.37 32.05ZM180 502.54h3.6L172.8 536a5.5 5.5 0 0 1-5.23 3.7h-5.13c-4.37-.02-6.06-1.74-7.08-4.57a7.94 7.94 0 0 1-.13-4.55l2.34-7.13a5.4 5.4 0 0 1 4.8-3.6s-3.02 9.15-3.97 12.14a3.39 3.39 0 0 0 3.4 4.4c2.02.03 3.27.02 5.28 0a2.68 2.68 0 0 0 2.54-1.8L180 502.54Zm94.79-85.47h-7.93l4.48-13.6 3.63.01-3.37 10.28h4.3l-1.11 3.31Z"/><path d="M257.14 434.4h-3.6l10.83-33.45a5.5 5.5 0 0 1 5.23-3.7c2.02-.02 3.11-.01 5.13 0 4.38.01 6.06 1.73 7.08 4.57.5 1.36.53 3.28.13 4.55-1.04 3.2-1.29 3.93-2.34 7.12a5.4 5.4 0 0 1-4.81 3.61s3.03-9.15 3.98-12.14a3.39 3.39 0 0 0-3.4-4.41c-2.02-.03-3.27-.01-5.28 0a2.68 2.68 0 0 0-2.55 1.8l-10.4 32.05Zm14.04-9.58h7.92l-4.47 13.61-3.63-.02 3.37-10.28h-4.3l1.1-3.3Z"/><path d="M288.82 407.49h3.6l-10.82 33.45a5.5 5.5 0 0 1-5.23 3.7c-2.02.02-3.11.01-5.14 0-4.37-.01-6.05-1.73-7.07-4.56a7.93 7.93 0 0 1-.13-4.56c1.04-3.2 1.29-3.93 2.34-7.12a5.4 5.4 0 0 1 4.81-3.61s-3.03 9.15-3.98 12.14a3.39 3.39 0 0 0 3.4 4.41c2.02.03 3.27.01 5.28 0a2.68 2.68 0 0 0 2.55-1.8l10.4-32.05Zm94.65-86.44h-7.92l4.47-13.6 3.64.02-3.37 10.27h4.29l-1.1 3.31Z"/><path d="M365.83 338.39h-3.6l10.82-33.46a5.5 5.5 0 0 1 5.23-3.7h5.14c4.37.02 6.06 1.74 7.07 4.57.5 1.36.54 3.28.13 4.55l-2.34 7.13a5.4 5.4 0 0 1-4.8 3.6s3.02-9.15 3.97-12.14a3.39 3.39 0 0 0-3.4-4.4c-2.01-.03-3.27-.02-5.28 0a2.68 2.68 0 0 0-2.54 1.8l-10.4 32.05Zm14.03-9.59h7.93l-4.48 13.61-3.63-.02 3.37-10.27h-4.3l1.11-3.32Z"/><path d="M397.5 311.47h3.6l-10.82 33.45a5.5 5.5 0 0 1-5.23 3.7c-2.01.02-3.11.02-5.13 0-4.38-.01-6.06-1.73-7.08-4.56a7.94 7.94 0 0 1-.13-4.55l2.35-7.13a5.4 5.4 0 0 1 4.8-3.61s-3.03 9.15-3.97 12.14a3.39 3.39 0 0 0 3.4 4.41c2 .03 3.27.01 5.28 0a2.68 2.68 0 0 0 2.54-1.8l10.4-32.05ZM194.67 533.69h-7.92l4.47-13.61 3.64.02-3.37 10.27h4.29l-1.1 3.32Z"/><path d="M177.03 551.02h-3.6l10.82-33.46a5.5 5.5 0 0 1 5.23-3.7h5.14c4.37.02 6.06 1.74 7.07 4.57.5 1.36.54 3.28.13 4.55l-2.34 7.13a5.4 5.4 0 0 1-4.8 3.6s3.03-9.14 3.97-12.13a3.39 3.39 0 0 0-3.4-4.42c-2.01-.02-3.27 0-5.28 0a2.68 2.68 0 0 0-2.54 1.81l-10.4 32.05Zm14.03-9.58H199l-4.48 13.6-3.63-.02 3.37-10.27h-4.3l1.11-3.31Z"/><path d="M208.7 524.1h3.6l-10.82 33.46a5.5 5.5 0 0 1-5.22 3.7h-5.14c-4.38-.02-6.06-1.74-7.08-4.57a7.93 7.93 0 0 1-.13-4.55l2.35-7.13a5.4 5.4 0 0 1 4.8-3.6s-3.03 9.15-3.97 12.13a3.39 3.39 0 0 0 3.4 4.42c2 .02 3.27 0 5.28 0a2.68 2.68 0 0 0 2.54-1.8l10.4-32.06Zm94.86-86.21h-7.93l4.48-13.61 3.63.02-3.37 10.28h4.3l-1.11 3.3Z"/><path d="M285.92 455.22h-3.6l10.82-33.45a5.5 5.5 0 0 1 5.23-3.7c2.02-.02 3.11-.01 5.13 0 4.38.01 6.06 1.73 7.08 4.56a7.9 7.9 0 0 1 .13 4.56c-1.04 3.2-1.29 3.93-2.34 7.12a5.4 5.4 0 0 1-4.81 3.61s3.03-9.15 3.98-12.14a3.39 3.39 0 0 0-3.4-4.41c-2.02-.03-3.27-.01-5.28 0a2.68 2.68 0 0 0-2.55 1.8l-10.4 32.05Zm14.03-9.58h7.92l-4.47 13.6-3.63-.01 3.37-10.28h-4.3l1.1-3.31Z"/><path d="M317.6 428.3h3.6l-10.83 33.46a5.5 5.5 0 0 1-5.23 3.7c-2.02.02-3.11.01-5.14 0-4.37-.01-6.05-1.73-7.07-4.57a7.93 7.93 0 0 1-.13-4.55c1.04-3.2 1.29-3.93 2.34-7.12a5.4 5.4 0 0 1 4.81-3.61s-3.03 9.15-3.98 12.14a3.39 3.39 0 0 0 3.4 4.41c2.02.02 3.27.01 5.28 0a2.68 2.68 0 0 0 2.55-1.8l10.4-32.05Zm94.64-86.36h-7.92l4.48-13.6 3.63.02-3.37 10.27h4.29l-1.1 3.31Z"/><path d="M394.6 359.28H391l10.82-33.46a5.5 5.5 0 0 1 5.23-3.7h5.14c4.37.02 6.06 1.74 7.07 4.57.5 1.36.54 3.28.13 4.55l-2.34 7.13a5.4 5.4 0 0 1-4.8 3.6s3.02-9.15 3.97-12.13a3.39 3.39 0 0 0-3.4-4.42c-2.01-.02-3.27 0-5.28 0a2.68 2.68 0 0 0-2.54 1.8l-10.4 32.06Zm14.03-9.58h7.93l-4.48 13.6-3.63-.02 3.37-10.27h-4.3l1.11-3.31Z"/><path d="M426.28 332.36h3.6l-10.83 33.46a5.5 5.5 0 0 1-5.23 3.7h-5.13c-4.38-.02-6.06-1.74-7.08-4.57a7.94 7.94 0 0 1-.13-4.55c1.04-3.2 1.3-3.94 2.35-7.13a5.4 5.4 0 0 1 4.8-3.6s-3.03 9.14-3.97 12.13a3.39 3.39 0 0 0 3.4 4.42c2 .02 3.27 0 5.28 0a2.68 2.68 0 0 0 2.54-1.8l10.4-32.06ZM223.44 554.5h-7.92l4.47-13.6 3.64.02-3.37 10.27h4.29l-1.1 3.31Z"/><path d="M205.8 571.84h-3.6l10.82-33.46a5.5 5.5 0 0 1 5.23-3.7h5.14c4.37.02 6.06 1.74 7.08 4.57.48 1.36.53 3.28.12 4.55l-2.34 7.13a5.4 5.4 0 0 1-4.8 3.6s3.02-9.14 3.97-12.13a3.39 3.39 0 0 0-3.4-4.42c-2.01-.02-3.27 0-5.28 0a2.68 2.68 0 0 0-2.54 1.8l-10.4 32.06Zm14.03-9.59h7.93l-4.48 13.62-3.63-.03 3.37-10.27h-4.3l1.11-3.32Z"/><path d="M237.48 544.92h3.6l-10.83 33.46a5.5 5.5 0 0 1-5.23 3.7h-5.13c-4.38-.02-6.06-1.74-7.08-4.57a7.94 7.94 0 0 1-.13-4.55c1.04-3.2 1.3-3.94 2.35-7.13a5.4 5.4 0 0 1 4.8-3.6s-3.03 9.14-3.97 12.13a3.39 3.39 0 0 0 3.4 4.42c2 .02 3.27 0 5.28 0a2.68 2.68 0 0 0 2.54-1.8l10.4-32.06Zm96.38-86.88h-7.93l4.48-13.6 3.63.02-3.37 10.27h4.3l-1.11 3.31Z"/><path d="M316.21 475.38h-3.6l10.83-33.46a5.5 5.5 0 0 1 5.23-3.7c2.02-.02 3.11-.01 5.13 0 4.38.01 6.06 1.73 7.08 4.57.49 1.36.53 3.28.13 4.55-1.04 3.2-1.29 3.93-2.34 7.12a5.4 5.4 0 0 1-4.81 3.61s3.03-9.15 3.98-12.14a3.39 3.39 0 0 0-3.4-4.41c-2.02-.02-3.28-.01-5.28 0a2.68 2.68 0 0 0-2.55 1.8l-10.4 32.06Zm14.04-9.58h7.92l-4.47 13.6-3.63-.02 3.37-10.27h-4.3l1.1-3.32Z"/><path d="M347.9 448.46h3.6l-10.83 33.45a5.5 5.5 0 0 1-5.23 3.7c-2.02.02-3.12.02-5.14 0-4.37-.01-6.05-1.73-7.07-4.56a7.93 7.93 0 0 1-.13-4.55l2.34-7.13a5.4 5.4 0 0 1 4.8-3.61s-3.02 9.15-3.97 12.14a3.39 3.39 0 0 0 3.4 4.41c2.01.03 3.27.01 5.28 0a2.68 2.68 0 0 0 2.55-1.8l10.4-32.05Zm94.66-86.36h-7.92l4.47-13.61 3.63.02-3.37 10.28h4.3l-1.11 3.3Z"/><path d="M424.92 379.43h-3.6l10.82-33.45a5.5 5.5 0 0 1 5.23-3.7c2.02-.02 3.11-.02 5.14 0 4.37.01 6.05 1.73 7.07 4.56.5 1.36.53 3.28.13 4.55l-2.34 7.13a5.4 5.4 0 0 1-4.81 3.61s3.03-9.15 3.98-12.14a3.39 3.39 0 0 0-3.4-4.42c-2.02-.02-3.27 0-5.28 0a2.68 2.68 0 0 0-2.55 1.81l-10.4 32.05Zm14.03-9.58h7.93l-4.48 13.6-3.63-.02 3.37-10.27h-4.3l1.11-3.31Z"/><path d="M456.6 352.51h3.6l-10.83 33.46a5.5 5.5 0 0 1-5.23 3.7h-5.13c-4.38-.02-6.06-1.74-7.08-4.57a7.93 7.93 0 0 1-.13-4.55l2.34-7.13a5.4 5.4 0 0 1 4.81-3.6s-3.03 9.15-3.98 12.14a3.39 3.39 0 0 0 3.4 4.4c2.02.03 3.27.02 5.28 0a2.68 2.68 0 0 0 2.55-1.8l10.4-32.05Zm108.68-95.13h3.6l-10.8 33.46a5.5 5.5 0 0 1-5.22 3.7h-5.14c-4.37-.02-6.05-1.74-7.07-4.57a7.95 7.95 0 0 1-.13-4.55c1.04-3.2 1.28-3.94 2.34-7.13a5.4 5.4 0 0 1 4.8-3.6s-3.03 9.15-3.97 12.14a3.39 3.39 0 0 0 3.4 4.41c2.01.02 3.27.01 5.28 0a2.68 2.68 0 0 0 2.54-1.8l10.37-32.06Zm-418.26 45.3h-3.6l10.8-33.46a5.5 5.5 0 0 1 5.23-3.7h5.13c4.37.02 6.05 1.74 7.07 4.57.5 1.36.54 3.28.14 4.55l-2.34 7.13a5.4 5.4 0 0 1-4.8 3.6s3.02-9.15 3.96-12.14a3.39 3.39 0 0 0-3.4-4.41c-2-.02-3.27-.01-5.27 0a2.68 2.68 0 0 0-2.54 1.8l-10.38 32.06Zm31.63-26.92h3.6l-10.8 33.45a5.5 5.5 0 0 1-5.22 3.7c-2.02.02-3.12.02-5.14 0-4.37-.01-6.05-1.73-7.07-4.56a7.94 7.94 0 0 1-.13-4.55l2.33-7.13a5.4 5.4 0 0 1 4.8-3.61s-3.02 9.15-3.96 12.14a3.39 3.39 0 0 0 3.4 4.41c2.01.03 3.27.01 5.28 0a2.68 2.68 0 0 0 2.54-1.8l10.37-32.05Zm15.08 28.1h-7.92l4.47-13.6 3.64.02-3.37 10.27h4.29l-1.1 3.31Z"/><path d="M176.09 321.2h-3.6l10.82-33.46a5.5 5.5 0 0 1 5.23-3.7h5.14c4.37.02 6.06 1.74 7.07 4.57.5 1.36.54 3.28.13 4.55l-2.34 7.13a5.4 5.4 0 0 1-4.8 3.6s3.02-9.14 3.97-12.13a3.39 3.39 0 0 0-3.4-4.42c-2.01-.02-3.27 0-5.28 0a2.68 2.68 0 0 0-2.54 1.8l-10.4 32.06Zm14.03-9.58h7.93l-4.48 13.6-3.63-.02 3.37-10.27h-4.3l1.11-3.31Z"/><path d="M207.77 294.28h3.6l-10.83 33.46a5.5 5.5 0 0 1-5.22 3.7h-5.14c-4.38-.02-6.06-1.74-7.08-4.57a7.93 7.93 0 0 1-.13-4.55c1.04-3.2 1.3-3.94 2.35-7.13a5.4 5.4 0 0 1 4.8-3.6s-3.03 9.14-3.97 12.13a3.39 3.39 0 0 0 3.4 4.42c2 .02 3.27 0 5.28 0a2.68 2.68 0 0 0 2.54-1.8l10.4-32.06Zm14.66 31.14h-7.93l4.48-13.6 3.63.02-3.37 10.27h4.3l-1.11 3.31Z"/><path d="M204.78 342.76h-3.6l10.83-33.46a5.5 5.5 0 0 1 5.23-3.7h5.13c4.38.02 6.06 1.74 7.08 4.57.49 1.36.53 3.28.13 4.55l-2.34 7.13a5.4 5.4 0 0 1-4.81 3.6s3.03-9.15 3.98-12.14a3.39 3.39 0 0 0-3.4-4.4c-2.02-.03-3.27-.02-5.28 0a2.68 2.68 0 0 0-2.55 1.8l-10.4 32.05Zm14.04-9.59h7.92l-4.47 13.61-3.64-.02 3.38-10.27h-4.3l1.1-3.32Z"/><path d="M236.46 315.84h3.6l-10.82 33.46a5.5 5.5 0 0 1-5.23 3.7h-5.14c-4.37-.02-6.05-1.74-7.07-4.57a7.93 7.93 0 0 1-.13-4.55l2.34-7.13a5.4 5.4 0 0 1 4.81-3.6s-3.03 9.14-3.98 12.13a3.39 3.39 0 0 0 3.4 4.42c2.01.02 3.27 0 5.28 0a2.68 2.68 0 0 0 2.55-1.81l10.4-32.05Zm14.74 30.4h-7.93l4.48-13.6 3.63.02-3.37 10.27h4.3l-1.11 3.31Z"/><path d="M233.55 363.58h-3.6l10.83-33.46a5.5 5.5 0 0 1 5.23-3.7h5.13c4.38.02 6.06 1.74 7.08 4.57.49 1.36.53 3.28.13 4.55-1.04 3.2-1.29 3.94-2.35 7.13a5.4 5.4 0 0 1-4.8 3.6s3.03-9.15 3.98-12.14a3.39 3.39 0 0 0-3.4-4.4c-2.02-.03-3.28-.02-5.28 0a2.68 2.68 0 0 0-2.55 1.8l-10.4 32.05Zm14.04-9.58h7.92l-4.47 13.6-3.63-.02 3.37-10.27h-4.3l1.1-3.32Z"/><path d="M265.23 336.66h3.6l-10.82 33.45a5.5 5.5 0 0 1-5.23 3.7c-2.02.02-3.12.02-5.14 0-4.37-.01-6.05-1.73-7.07-4.56a7.94 7.94 0 0 1-.13-4.55l2.34-7.13a5.4 5.4 0 0 1 4.81-3.6s-3.03 9.14-3.98 12.13a3.39 3.39 0 0 0 3.4 4.41c2.02.03 3.27.02 5.28 0a2.68 2.68 0 0 0 2.55-1.8l10.4-32.05Zm-52.71-47.54h-3.6l10.8-33.46a5.5 5.5 0 0 1 5.23-3.7h5.13c4.37.02 6.06 1.74 7.08 4.57.49 1.36.53 3.28.13 4.55l-2.34 7.13a5.4 5.4 0 0 1-4.8 3.6s3.02-9.15 3.97-12.13a3.39 3.39 0 0 0-3.4-4.42c-2.02-.02-3.28 0-5.28 0a2.68 2.68 0 0 0-2.54 1.8l-10.38 32.06Zm14.02-9.59h7.93l-4.48 13.61-3.63-.02 3.37-10.27h-4.3l1.11-3.32Z"/><path d="M244.18 262.2h3.6l-10.82 33.46a5.5 5.5 0 0 1-5.23 3.7h-5.13c-4.38-.02-6.06-1.74-7.08-4.57a7.94 7.94 0 0 1-.13-4.55c1.04-3.2 1.29-3.94 2.35-7.13a5.4 5.4 0 0 1 4.8-3.6s-3.03 9.14-3.97 12.13a3.39 3.39 0 0 0 3.4 4.42c2 .02 3.27 0 5.28 0a2.68 2.68 0 0 0 2.54-1.81l10.4-32.05Zm14.67 31.07h-7.93l4.48-13.61 3.63.02-3.37 10.28h4.3l-1.11 3.31Z"/><path d="M241.2 310.6h-3.6l10.83-33.45a5.5 5.5 0 0 1 5.23-3.7c2.02-.02 3.11-.01 5.13 0 4.38.01 6.06 1.73 7.08 4.57.49 1.36.53 3.27.13 4.55l-2.35 7.12a5.4 5.4 0 0 1-4.8 3.61s3.03-9.15 3.97-12.14a3.39 3.39 0 0 0-3.4-4.41c-2-.03-3.27-.01-5.28 0a2.68 2.68 0 0 0-2.54 1.8l-10.4 32.05Zm14.04-9.58h7.92l-4.48 13.61-3.63-.02 3.37-10.28h-4.29l1.1-3.31Z"/><path d="M272.88 283.69h3.6l-10.82 33.45a5.5 5.5 0 0 1-5.23 3.7c-2.02.02-3.12.01-5.14 0-4.37-.01-6.06-1.73-7.07-4.57a7.93 7.93 0 0 1-.13-4.55c1.04-3.2 1.29-3.93 2.34-7.12a5.4 5.4 0 0 1 4.8-3.61s-3.02 9.15-3.97 12.14a3.39 3.39 0 0 0 3.4 4.41c2.01.03 3.27.01 5.28 0a2.68 2.68 0 0 0 2.54-1.8l10.4-32.05ZM178.42 409h-7.93l4.48-13.61 3.63.02-3.37 10.27h4.3l-1.11 3.31Z"/><path d="M160.77 426.33h-3.6L168 392.87a5.5 5.5 0 0 1 5.23-3.7h5.13c4.38.02 6.06 1.74 7.08 4.57.49 1.36.53 3.28.13 4.55-1.04 3.2-1.3 3.94-2.35 7.13a5.4 5.4 0 0 1-4.8 3.6s3.03-9.14 3.97-12.13a3.39 3.39 0 0 0-3.4-4.42c-2-.02-3.27 0-5.28 0a2.68 2.68 0 0 0-2.54 1.8l-10.4 32.06Zm14.03-9.58h7.93l-4.47 13.6-3.64-.02 3.37-10.27h-4.29l1.1-3.31Z"/><path d="M192.45 399.41h3.6l-10.82 33.46a5.5 5.5 0 0 1-5.23 3.7h-5.14c-4.37-.02-6.06-1.74-7.07-4.57a7.93 7.93 0 0 1-.13-4.55l2.34-7.13a5.4 5.4 0 0 1 4.8-3.6s-3.02 9.15-3.97 12.13a3.39 3.39 0 0 0 3.4 4.42c2.01.02 3.27 0 5.28 0a2.68 2.68 0 0 0 2.55-1.8l10.39-32.06Zm95.17-85.25h-7.93l4.48-13.6 3.63.02-3.37 10.27h4.3l-1.11 3.31Z"/><path d="M269.97 331.5h-3.6l10.83-33.46a5.5 5.5 0 0 1 5.23-3.7h5.13c4.38.02 6.06 1.74 7.08 4.57.49 1.36.53 3.28.13 4.55-1.04 3.2-1.3 3.94-2.35 7.13a5.4 5.4 0 0 1-4.8 3.6s3.03-9.15 3.97-12.14a3.39 3.39 0 0 0-3.4-4.4c-2-.03-3.27-.02-5.28 0a2.68 2.68 0 0 0-2.54 1.8l-10.4 32.05Zm14.03-9.59h7.93l-4.48 13.61-3.63-.02 3.37-10.27h-4.29l1.1-3.32Z"/><path d="M301.65 304.58h3.6l-10.82 33.45a5.5 5.5 0 0 1-5.23 3.7c-2.02.02-3.12.02-5.14 0-4.37-.01-6.06-1.73-7.07-4.56a7.94 7.94 0 0 1-.13-4.55l2.34-7.13a5.4 5.4 0 0 1 4.8-3.61s-3.02 9.15-3.97 12.14a3.39 3.39 0 0 0 3.4 4.42c2.01.02 3.27 0 5.28 0a2.68 2.68 0 0 0 2.54-1.81l10.4-32.05Zm-130.02 21.19h3.6l-10.8 33.45a5.5 5.5 0 0 1-5.23 3.7c-2.01.02-3.1.02-5.13 0-4.37-.01-6.05-1.73-7.07-4.56a7.94 7.94 0 0 1-.13-4.55c1.03-3.2 1.28-3.94 2.33-7.13a5.4 5.4 0 0 1 4.8-3.61s-3.02 9.15-3.96 12.14a3.39 3.39 0 0 0 3.4 4.41c2 .03 3.27.01 5.27 0a2.68 2.68 0 0 0 2.54-1.8l10.38-32.05Zm14.67 31.07h-7.92l4.48-13.61 3.63.02-3.37 10.27h4.29l-1.1 3.32Z"/><path d="M168.66 374.17h-3.6l10.82-33.45a5.5 5.5 0 0 1 5.23-3.7c2.02-.02 3.12-.02 5.14 0 4.38.01 6.06 1.73 7.08 4.56.49 1.36.53 3.28.13 4.55l-2.35 7.13a5.4 5.4 0 0 1-4.8 3.61s3.03-9.15 3.97-12.14a3.39 3.39 0 0 0-3.4-4.42c-2.01-.02-3.27 0-5.28 0a2.68 2.68 0 0 0-2.54 1.81l-10.4 32.05Zm14.04-9.58h7.92l-4.48 13.6-3.63-.02 3.37-10.27h-4.29l1.1-3.31Z"/><path d="M200.34 347.25h3.6l-10.82 33.46a5.5 5.5 0 0 1-5.23 3.7h-5.14c-4.37-.02-6.06-1.74-7.08-4.57a7.94 7.94 0 0 1-.12-4.55c1.04-3.2 1.28-3.94 2.34-7.13a5.4 5.4 0 0 1 4.8-3.6s-3.03 9.15-3.97 12.14a3.39 3.39 0 0 0 3.4 4.4c2.01.03 3.27.02 5.28 0a2.68 2.68 0 0 0 2.54-1.8l10.4-32.05Zm14.73 30.48h-7.92l4.48-13.6 3.63.01-3.37 10.28h4.29l-1.1 3.31Z"/><path d="M197.43 395.06h-3.6l10.82-33.45a5.5 5.5 0 0 1 5.23-3.7c2.02-.02 3.12-.01 5.14 0 4.38.01 6.06 1.73 7.08 4.57.49 1.36.53 3.27.13 4.55l-2.35 7.12a5.4 5.4 0 0 1-4.8 3.61s3.03-9.15 3.97-12.14a3.39 3.39 0 0 0-3.4-4.41c-2.01-.02-3.27-.01-5.28 0a2.68 2.68 0 0 0-2.54 1.8l-10.4 32.05Zm14.04-9.58h7.92l-4.48 13.61-3.63-.02 3.37-10.28h-4.29l1.1-3.3Z"/><path d="M229.1 368.15h3.61l-10.82 33.45a5.5 5.5 0 0 1-5.23 3.7c-2.02.02-3.12.01-5.14 0-4.38-.01-6.06-1.73-7.08-4.56a7.93 7.93 0 0 1-.13-4.56l2.35-7.12a5.4 5.4 0 0 1 4.8-3.61s-3.03 9.15-3.97 12.14a3.39 3.39 0 0 0 3.4 4.41c2.01.03 3.27.01 5.28 0a2.68 2.68 0 0 0 2.54-1.8l10.4-32.05Zm78.76-69.55h-3.6l10.8-33.45a5.5 5.5 0 0 1 5.23-3.7c2.01-.02 3.11-.02 5.13 0 4.37.01 6.06 1.73 7.08 4.56.49 1.36.53 3.28.13 4.55l-2.34 7.13a5.4 5.4 0 0 1-4.8 3.61s3.02-9.15 3.96-12.14a3.39 3.39 0 0 0-3.4-4.42c-2-.02-3.26 0-5.27 0a2.68 2.68 0 0 0-2.54 1.81l-10.38 32.05Zm14.02-9.58h7.93l-4.48 13.6-3.63-.02 3.37-10.27h-4.3l1.11-3.31Z"/><path d="M339.52 271.68h3.6l-10.82 33.46a5.5 5.5 0 0 1-5.23 3.7h-5.13c-4.38-.02-6.06-1.74-7.08-4.57a7.93 7.93 0 0 1-.13-4.55l2.34-7.13a5.4 5.4 0 0 1 4.81-3.6s-3.03 9.15-3.98 12.14a3.39 3.39 0 0 0 3.4 4.4c2.02.03 3.28.02 5.28 0a2.68 2.68 0 0 0 2.55-1.8l10.4-32.05ZM31.55 222.06h-3.6l10.8-33.45a5.5 5.5 0 0 1 5.22-3.7h5.14c4.37.02 6.05 1.74 7.07 4.57.5 1.36.53 3.28.13 4.55-1.04 3.2-1.28 3.93-2.34 7.12a5.4 5.4 0 0 1-4.8 3.61s3.03-9.15 3.97-12.14a3.39 3.39 0 0 0-3.4-4.41c-2.01-.02-3.27-.01-5.28 0a2.68 2.68 0 0 0-2.54 1.8l-10.37 32.06ZM263.43 18.45h7.93l-4.48 13.6-3.63-.02 3.37-10.27h-4.3l1.11-3.31Z"/><path d="M281.07 1.11h3.6l-10.82 33.46a5.5 5.5 0 0 1-5.23 3.7h-5.13c-4.38-.02-6.06-1.74-7.08-4.57a7.93 7.93 0 0 1-.13-4.55c1.04-3.2 1.3-3.94 2.35-7.13a5.4 5.4 0 0 1 4.8-3.6s-3.03 9.15-3.98 12.13a3.39 3.39 0 0 0 3.4 4.42c2.02.02 3.28 0 5.28 0a2.68 2.68 0 0 0 2.55-1.8l10.4-32.06ZM187.03 128.2h-7.92l4.48-13.61 3.63.02-3.37 10.28h4.29l-1.1 3.3Z"/><path d="M169.4 145.53h-3.61l10.82-33.45a5.5 5.5 0 0 1 5.23-3.7c2.02-.02 3.12-.02 5.14 0 4.38.01 6.06 1.73 7.08 4.56.49 1.37.53 3.28.13 4.56l-2.35 7.12a5.4 5.4 0 0 1-4.8 3.61s3.03-9.15 3.97-12.14a3.39 3.39 0 0 0-3.4-4.41c-2.01-.03-3.27-.01-5.28 0a2.68 2.68 0 0 0-2.54 1.8l-10.4 32.05Zm14.03-9.58h7.92l-4.48 13.6-3.63-.02 3.37-10.27h-4.29l1.1-3.31Z"/><path d="M201.07 118.62h3.6l-10.82 33.45a5.5 5.5 0 0 1-5.23 3.7h-5.14c-4.38-.02-6.06-1.73-7.08-4.57a7.93 7.93 0 0 1-.13-4.55l2.35-7.12a5.4 5.4 0 0 1 4.8-3.61s-3.03 9.15-3.97 12.14a3.39 3.39 0 0 0 3.4 4.41c2.01.02 3.27.01 5.28 0a2.68 2.68 0 0 0 2.54-1.8l10.4-32.05Zm-94.13 126.19H99l4.48-13.6 3.63.02-3.37 10.27h4.3l-1.11 3.31Z"/><path d="M89.3 262.15h-3.6l10.82-33.46a5.5 5.5 0 0 1 5.23-3.7h5.13c4.38.02 6.06 1.74 7.08 4.57.49 1.36.53 3.28.13 4.55l-2.35 7.13a5.4 5.4 0 0 1-4.8 3.6s3.03-9.15 3.97-12.14a3.39 3.39 0 0 0-3.4-4.4c-2-.03-3.27-.02-5.28 0a2.68 2.68 0 0 0-2.54 1.8l-10.4 32.05Zm14.03-9.59h7.92l-4.47 13.61-3.64-.02 3.37-10.27h-4.29l1.1-3.32Z"/><path d="M120.97 235.23h3.6l-10.82 33.46a5.5 5.5 0 0 1-5.23 3.7h-5.14c-4.37-.02-6.06-1.74-7.07-4.57a7.94 7.94 0 0 1-.13-4.55l2.34-7.13a5.4 5.4 0 0 1 4.8-3.6s-3.02 9.14-3.97 12.13a3.39 3.39 0 0 0 3.4 4.42c2.01.02 3.27 0 5.28 0a2.68 2.68 0 0 0 2.54-1.81l10.4-32.05Zm94.85-86.21h-7.92l4.47-13.61 3.64.02-3.37 10.28h4.29l-1.1 3.3Z"/><path d="M198.18 166.35h-3.6l10.82-33.45a5.5 5.5 0 0 1 5.23-3.7c2.02-.02 3.12-.02 5.14 0 4.37.01 6.06 1.73 7.07 4.56.5 1.37.54 3.28.13 4.56-1.04 3.2-1.29 3.93-2.34 7.12a5.4 5.4 0 0 1-4.8 3.61s3.02-9.15 3.97-12.14a3.39 3.39 0 0 0-3.4-4.41c-2.01-.03-3.27-.01-5.28 0a2.68 2.68 0 0 0-2.54 1.8l-10.4 32.05Zm14.03-9.58h7.93l-4.48 13.6-3.63-.02 3.37-10.27h-4.3l1.11-3.31Z"/><path d="M229.86 139.44h3.6l-10.83 33.45a5.5 5.5 0 0 1-5.22 3.7c-2.02.02-3.12.01-5.14 0-4.38-.02-6.06-1.73-7.08-4.57a7.93 7.93 0 0 1-.13-4.55c1.04-3.2 1.3-3.93 2.35-7.12a5.4 5.4 0 0 1 4.8-3.61s-3.03 9.15-3.97 12.14a3.39 3.39 0 0 0 3.4 4.41c2 .03 3.27.01 5.28 0a2.68 2.68 0 0 0 2.54-1.8l10.4-32.05Zm-94.14 126.19h-7.92l4.48-13.6 3.63.02-3.37 10.27h4.29l-1.1 3.31Z"/><path d="M118.08 282.96h-3.6l10.82-33.45a5.5 5.5 0 0 1 5.23-3.7h5.14c4.38.02 6.06 1.73 7.08 4.57.49 1.36.53 3.28.13 4.55l-2.35 7.13a5.4 5.4 0 0 1-4.8 3.6s3.03-9.15 3.97-12.14a3.39 3.39 0 0 0-3.4-4.41c-2.01-.02-3.27-.01-5.28 0a2.68 2.68 0 0 0-2.54 1.8l-10.4 32.05Zm14.04-9.58h7.92L135.56 287l-3.63-.02 3.37-10.28h-4.29l1.1-3.3Z"/><path d="M149.76 256.05h3.6l-10.82 33.45a5.5 5.5 0 0 1-5.23 3.7c-2.02.02-3.12.02-5.14 0-4.37-.01-6.06-1.73-7.08-4.56a7.94 7.94 0 0 1-.13-4.55l2.35-7.13a5.4 5.4 0 0 1 4.8-3.61s-3.03 9.15-3.97 12.14a3.39 3.39 0 0 0 3.4 4.41c2.01.03 3.27.02 5.28 0a2.68 2.68 0 0 0 2.54-1.8l10.4-32.05Zm96.36-86.88h-7.92l4.47-13.61 3.64.02-3.38 10.28h4.3l-1.1 3.3Z"/><path d="M228.48 186.5h-3.6l10.82-33.45a5.5 5.5 0 0 1 5.23-3.7c2.02-.02 3.12-.01 5.14 0 4.37.01 6.06 1.73 7.08 4.56.48 1.37.53 3.28.12 4.56-1.04 3.2-1.29 3.93-2.34 7.12a5.4 5.4 0 0 1-4.8 3.61s3.02-9.15 3.97-12.14a3.39 3.39 0 0 0-3.4-4.41c-2.01-.03-3.27-.01-5.28 0a2.68 2.68 0 0 0-2.54 1.8l-10.4 32.05Zm14.03-9.58h7.93l-4.48 13.6-3.63-.01 3.37-10.28h-4.3l1.11-3.31Z"/><path d="M260.15 159.59h3.6l-10.82 33.45a5.5 5.5 0 0 1-5.23 3.7c-2.01.02-3.11.01-5.13 0-4.38-.01-6.06-1.73-7.08-4.57a7.94 7.94 0 0 1-.13-4.55c1.04-3.2 1.3-3.93 2.35-7.12a5.4 5.4 0 0 1 4.8-3.61s-3.03 9.15-3.97 12.14a3.39 3.39 0 0 0 3.4 4.41c2 .03 3.27.01 5.28 0a2.68 2.68 0 0 0 2.54-1.8l10.4-32.05Zm94.67-86.36h-7.92l4.48-13.61 3.63.02-3.37 10.27h4.29l-1.1 3.32Z"/><path d="M337.18 90.56h-3.6L344.4 57.1a5.5 5.5 0 0 1 5.23-3.7h5.14c4.38.02 6.06 1.74 7.08 4.57.49 1.36.53 3.28.13 4.55l-2.35 7.13a5.4 5.4 0 0 1-4.8 3.6s3.03-9.14 3.97-12.13a3.39 3.39 0 0 0-3.4-4.42c-2.01-.02-3.27 0-5.28 0a2.68 2.68 0 0 0-2.54 1.81l-10.4 32.05Zm14.03-9.58h7.93l-4.48 13.6-3.63-.02 3.37-10.27h-4.29l1.1-3.31Z"/><path d="M368.86 63.64h3.6L361.64 97.1a5.5 5.5 0 0 1-5.23 3.7h-5.14c-4.38-.02-6.06-1.74-7.08-4.57a7.94 7.94 0 0 1-.13-4.55l2.35-7.13a5.4 5.4 0 0 1 4.8-3.6s-3.03 9.14-3.97 12.13a3.39 3.39 0 0 0 3.4 4.42c2.01.02 3.27 0 5.28 0a2.68 2.68 0 0 0 2.54-1.8l10.4-32.06ZM194.78 74.56h-7.93l4.48-13.61 3.63.02-3.37 10.28h4.29l-1.1 3.3Z"/><path d="M177.13 91.9h-3.6l10.82-33.46a5.5 5.5 0 0 1 5.24-3.7c2.01-.02 3.11-.02 5.13 0 4.38.01 6.06 1.73 7.08 4.57.49 1.36.53 3.27.13 4.55l-2.35 7.12a5.4 5.4 0 0 1-4.8 3.61s3.03-9.15 3.97-12.14a3.39 3.39 0 0 0-3.4-4.41c-2.01-.03-3.27-.01-5.28 0a2.68 2.68 0 0 0-2.54 1.8l-10.4 32.05Zm14.04-9.6h7.92l-4.48 13.62-3.63-.03 3.37-10.27h-4.29l1.1-3.31Z"/><path d="M208.8 64.98h3.61L201.6 98.43a5.5 5.5 0 0 1-5.23 3.7c-2.02.02-3.12.01-5.14 0-4.37-.02-6.06-1.73-7.08-4.57a7.94 7.94 0 0 1-.12-4.55c1.04-3.2 1.28-3.93 2.34-7.12a5.4 5.4 0 0 1 4.8-3.61s-3.03 9.15-3.97 12.14a3.39 3.39 0 0 0 3.4 4.41c2.01.02 3.27.01 5.28 0a2.68 2.68 0 0 0 2.54-1.8l10.4-32.05Zm-94.12 126.19h-7.93l4.48-13.6 3.63.02-3.37 10.27h4.3l-1.11 3.31Z"/><path d="M97.03 208.5h-3.6l10.83-33.45a5.5 5.5 0 0 1 5.23-3.7h5.13c4.38.02 6.06 1.74 7.08 4.57.49 1.36.53 3.28.13 4.55-1.04 3.2-1.3 3.94-2.35 7.13a5.4 5.4 0 0 1-4.8 3.6s3.03-9.15 3.97-12.14a3.39 3.39 0 0 0-3.4-4.4c-2-.03-3.27-.02-5.28 0a2.68 2.68 0 0 0-2.54 1.8l-10.4 32.05Zm14.04-9.58h7.92l-4.47 13.61-3.64-.02 3.37-10.27h-4.29l1.1-3.32Z"/><path d="M128.71 181.59h3.6l-10.82 33.45a5.5 5.5 0 0 1-5.23 3.71h-5.14c-4.37-.02-6.06-1.74-7.07-4.57a7.94 7.94 0 0 1-.13-4.55l2.34-7.13a5.4 5.4 0 0 1 4.8-3.6s-3.02 9.14-3.97 12.13a3.39 3.39 0 0 0 3.4 4.42c2.01.02 3.27 0 5.28 0a2.68 2.68 0 0 0 2.55-1.81l10.4-32.05ZM48.15 297.98h3.6l-10.8 33.46a5.5 5.5 0 0 1-5.22 3.7H30.6c-4.37-.02-6.06-1.74-7.08-4.57a7.94 7.94 0 0 1-.13-4.55l2.34-7.13a5.4 5.4 0 0 1 4.8-3.6s-3.02 9.15-3.97 12.14a3.39 3.39 0 0 0 3.4 4.4c2.02.03 3.27.02 5.28 0a2.68 2.68 0 0 0 2.54-1.8l10.37-32.05Zm175.3-201.86h-7.92L220 82.5l3.64.02-3.37 10.28h4.29l-1.1 3.3Z"/><path d="M205.8 113.45h-3.6L213.04 80a5.5 5.5 0 0 1 5.23-3.7c2.02-.02 3.12-.02 5.14 0 4.37.01 6.06 1.73 7.07 4.56.5 1.36.54 3.28.13 4.55-1.04 3.2-1.28 3.94-2.34 7.13a5.4 5.4 0 0 1-4.8 3.61s3.03-9.15 3.97-12.14a3.39 3.39 0 0 0-3.4-4.41c-2.01-.03-3.27-.01-5.28 0a2.68 2.68 0 0 0-2.54 1.8l-10.4 32.05Zm14.04-9.58h7.93l-4.48 13.6-3.63-.02 3.37-10.27h-4.3l1.11-3.31Z"/><path d="M237.49 86.54h3.6l-10.83 33.45a5.5 5.5 0 0 1-5.22 3.7c-2.02.02-3.12.01-5.14 0-4.38-.02-6.06-1.73-7.08-4.57a7.93 7.93 0 0 1-.13-4.55l2.35-7.12a5.4 5.4 0 0 1 4.8-3.61s-3.03 9.15-3.97 12.14a3.39 3.39 0 0 0 3.4 4.41c2.01.02 3.27.01 5.28 0a2.68 2.68 0 0 0 2.54-1.8l10.4-32.05Zm-94.14 126.19h-7.92l4.48-13.6 3.63.02-3.37 10.27h4.29l-1.1 3.31Z"/><path d="M125.71 230.07h-3.6l10.82-33.46a5.5 5.5 0 0 1 5.23-3.7h5.14c4.38.02 6.06 1.74 7.08 4.57.49 1.36.53 3.28.13 4.55l-2.35 7.13a5.4 5.4 0 0 1-4.8 3.6s3.03-9.15 3.97-12.14a3.39 3.39 0 0 0-3.4-4.4c-2.01-.03-3.27-.02-5.28 0a2.68 2.68 0 0 0-2.54 1.8l-10.4 32.05Zm14.04-9.59h7.92l-4.48 13.61-3.63-.02 3.37-10.27h-4.29l1.1-3.32Z"/><path d="M157.39 203.15h3.6l-10.82 33.45a5.5 5.5 0 0 1-5.23 3.7c-2.02.02-3.12.02-5.14 0-4.38-.01-6.06-1.73-7.08-4.56a7.93 7.93 0 0 1-.13-4.55l2.35-7.13a5.4 5.4 0 0 1 4.8-3.6s-3.03 9.14-3.97 12.13a3.39 3.39 0 0 0 3.4 4.41c2.01.03 3.27.02 5.28 0a2.68 2.68 0 0 0 2.54-1.8l10.4-32.05ZM62.93 328.46H55l4.48-13.61 3.63.02-3.37 10.28h4.29l-1.1 3.3Z"/><path d="M45.28 345.8h-3.6l10.82-33.46a5.5 5.5 0 0 1 5.23-3.7c2.02-.02 3.12-.01 5.14 0 4.38.01 6.06 1.73 7.08 4.56.49 1.37.53 3.28.13 4.56l-2.35 7.12a5.4 5.4 0 0 1-4.8 3.61s3.03-9.15 3.97-12.14a3.39 3.39 0 0 0-3.4-4.41c-2.01-.03-3.27-.01-5.28 0a2.68 2.68 0 0 0-2.54 1.8l-10.4 32.05Zm14.04-9.6h7.92l-4.48 13.62-3.63-.02 3.37-10.28h-4.29l1.1-3.31Z"/><path d="M76.96 318.88h3.6l-10.82 33.45a5.5 5.5 0 0 1-5.23 3.7c-2.02.02-3.12.01-5.14 0-4.37-.01-6.06-1.73-7.08-4.57a7.94 7.94 0 0 1-.12-4.55c1.04-3.2 1.28-3.93 2.34-7.12a5.4 5.4 0 0 1 4.8-3.61s-3.03 9.15-3.97 12.14a3.39 3.39 0 0 0 3.4 4.41c2.01.02 3.27.01 5.28 0a2.68 2.68 0 0 0 2.54-1.8l10.4-32.05Zm175.28-201.94h-7.92l4.47-13.61 3.64.02-3.38 10.27h4.3l-1.1 3.32Z"/><path d="M234.6 134.27H231l10.82-33.45a5.5 5.5 0 0 1 5.23-3.7c2.02-.02 3.11-.02 5.14 0 4.37.01 6.06 1.73 7.07 4.56.5 1.36.53 3.28.13 4.55l-2.34 7.13a5.4 5.4 0 0 1-4.81 3.6s3.03-9.14 3.98-12.13a3.39 3.39 0 0 0-3.4-4.41c-2.01-.03-3.27-.02-5.28 0a2.68 2.68 0 0 0-2.54 1.8l-10.4 32.05Zm14.03-9.58h7.93l-4.48 13.6-3.63-.02 3.37-10.27h-4.3l1.11-3.31Z"/><path d="M266.27 107.35h3.6l-10.82 33.46a5.5 5.5 0 0 1-5.23 3.7h-5.13c-4.38-.02-6.06-1.74-7.08-4.57a7.94 7.94 0 0 1-.13-4.55c1.04-3.2 1.29-3.93 2.35-7.13a5.4 5.4 0 0 1 4.8-3.6s-3.03 9.15-3.97 12.14a3.39 3.39 0 0 0 3.4 4.4c2 .03 3.27.02 5.28 0a2.68 2.68 0 0 0 2.54-1.8l10.4-32.05Zm77.03-69.02h-3.6l10.8-33.46a5.5 5.5 0 0 1 5.22-3.7h5.13c4.38.02 6.06 1.74 7.08 4.57.49 1.36.53 3.28.13 4.55l-2.34 7.13a5.4 5.4 0 0 1-4.8 3.6s3.02-9.15 3.97-12.14a3.39 3.39 0 0 0-3.4-4.4c-2.01-.03-3.27-.02-5.28 0a2.68 2.68 0 0 0-2.54 1.8L343.3 38.33Zm14.01-9.59h7.93l-4.48 13.61-3.63-.02 3.37-10.27h-4.29l1.1-3.32Z"/><path d="M374.96 11.41h3.6l-10.82 33.46a5.5 5.5 0 0 1-5.23 3.7h-5.14c-4.38-.02-6.06-1.74-7.08-4.57a7.94 7.94 0 0 1-.13-4.55l2.35-7.13a5.4 5.4 0 0 1 4.8-3.6s-3.03 9.14-3.97 12.13a3.39 3.39 0 0 0 3.4 4.42c2.01.02 3.27 0 5.28 0a2.68 2.68 0 0 0 2.54-1.81l10.4-32.05ZM172.13 233.55h-7.93l4.48-13.6 3.63.02-3.37 10.27h4.29l-1.1 3.31Z"/><path d="M154.48 250.88h-3.6l10.82-33.45a5.5 5.5 0 0 1 5.23-3.7h5.14c4.38.02 6.06 1.74 7.08 4.57.49 1.36.53 3.28.13 4.55l-2.35 7.13a5.4 5.4 0 0 1-4.8 3.6s3.03-9.15 3.97-12.14a3.39 3.39 0 0 0-3.4-4.41c-2.01-.02-3.27-.01-5.28 0a2.68 2.68 0 0 0-2.54 1.8l-10.4 32.05Zm14.03-9.58h7.93l-4.48 13.61-3.63-.02 3.37-10.27h-4.29l1.1-3.32Z"/><path d="M186.16 223.97h3.6l-10.82 33.45a5.5 5.5 0 0 1-5.23 3.7c-2.02.02-3.12.02-5.14 0-4.38-.01-6.06-1.73-7.08-4.56a7.93 7.93 0 0 1-.13-4.55l2.35-7.13a5.4 5.4 0 0 1 4.8-3.61s-3.03 9.15-3.97 12.14a3.39 3.39 0 0 0 3.4 4.41c2.01.03 3.27.01 5.28 0a2.68 2.68 0 0 0 2.54-1.8l10.4-32.05Zm96.38-86.88h-7.92l4.47-13.61 3.64.02-3.38 10.28h4.3l-1.1 3.3Z"/><path d="M264.9 154.42h-3.6l10.82-33.45a5.5 5.5 0 0 1 5.23-3.7c2.02-.02 3.11-.02 5.14 0 4.37.01 6.05 1.73 7.07 4.56a7.9 7.9 0 0 1 .13 4.56c-1.04 3.2-1.29 3.93-2.34 7.12a5.4 5.4 0 0 1-4.81 3.61s3.03-9.15 3.98-12.14a3.39 3.39 0 0 0-3.4-4.41c-2.01-.03-3.27-.01-5.28 0a2.68 2.68 0 0 0-2.55 1.8l-10.4 32.05Zm14.03-9.58h7.93l-4.48 13.6-3.63-.01 3.37-10.28h-4.3l1.11-3.31Z"/><path d="M296.57 127.5h3.6l-10.82 33.46a5.5 5.5 0 0 1-5.23 3.7c-2.02.02-3.11.01-5.13 0-4.38-.01-6.06-1.73-7.08-4.57a7.94 7.94 0 0 1-.13-4.55c1.04-3.2 1.29-3.93 2.35-7.12a5.4 5.4 0 0 1 4.8-3.61s-3.03 9.15-3.98 12.14a3.39 3.39 0 0 0 3.4 4.41c2.02.02 3.28.01 5.28 0a2.68 2.68 0 0 0 2.55-1.8l10.4-32.05Zm94.67-86.36h-7.92l4.48-13.6 3.63.02-3.37 10.27h4.29l-1.1 3.31Z"/><path d="M373.6 58.48H370l10.82-33.46a5.5 5.5 0 0 1 5.23-3.7h5.14c4.37.02 6.06 1.74 7.07 4.57.5 1.36.54 3.28.13 4.55l-2.34 7.13a5.4 5.4 0 0 1-4.8 3.6s3.02-9.15 3.97-12.13a3.39 3.39 0 0 0-3.4-4.42c-2.01-.02-3.27 0-5.28 0a2.68 2.68 0 0 0-2.54 1.8l-10.4 32.06Zm14.03-9.58h7.93l-4.48 13.6-3.63-.02 3.37-10.27h-4.3l1.11-3.31Z"/><path d="M405.27 31.56h3.6l-10.82 33.46a5.5 5.5 0 0 1-5.23 3.7h-5.13c-4.38-.02-6.06-1.74-7.08-4.57a7.93 7.93 0 0 1-.13-4.55c1.04-3.2 1.3-3.94 2.35-7.13a5.4 5.4 0 0 1 4.8-3.6S384.6 58 383.66 61a3.39 3.39 0 0 0 3.4 4.42c2 .02 3.27 0 5.28 0a2.68 2.68 0 0 0 2.54-1.8l10.4-32.06ZM122.23 138.13h-7.92l4.48-13.61 3.63.02-3.37 10.27h4.29l-1.1 3.32Z"/><path d="M104.59 155.46h-3.6L111.8 122a5.5 5.5 0 0 1 5.23-3.7h5.14c4.38.02 6.06 1.74 7.08 4.57.49 1.36.53 3.28.13 4.55l-2.35 7.13a5.4 5.4 0 0 1-4.8 3.6s3.03-9.14 3.97-12.13a3.39 3.39 0 0 0-3.4-4.42c-2.01-.02-3.27 0-5.28 0a2.68 2.68 0 0 0-2.54 1.81l-10.4 32.05Zm14.03-9.58h7.93l-4.48 13.6-3.63-.02 3.37-10.27h-4.29l1.1-3.31Z"/><path d="M136.27 128.54h3.6L129.04 162a5.5 5.5 0 0 1-5.22 3.7h-5.14c-4.38-.02-6.06-1.74-7.08-4.57a7.93 7.93 0 0 1-.13-4.55l2.35-7.13a5.4 5.4 0 0 1 4.8-3.6s-3.03 9.15-3.97 12.14a3.39 3.39 0 0 0 3.4 4.4c2.01.03 3.27.02 5.28 0a2.68 2.68 0 0 0 2.54-1.8l10.4-32.05ZM24.5 272.07h-3.6l10.8-33.45a5.5 5.5 0 0 1 5.23-3.7h5.14c4.37.02 6.05 1.74 7.07 4.57.5 1.36.53 3.27.13 4.55-1.04 3.2-1.28 3.93-2.34 7.12a5.4 5.4 0 0 1-4.8 3.61s3.03-9.15 3.97-12.14a3.39 3.39 0 0 0-3.4-4.41c-2.01-.02-3.27-.01-5.28 0a2.68 2.68 0 0 0-2.54 1.8l-10.37 32.05Zm31.63-26.91h3.6l-10.8 33.45a5.5 5.5 0 0 1-5.22 3.7c-2.02.02-3.11.02-5.13 0-4.37-.01-6.06-1.73-7.08-4.56a7.94 7.94 0 0 1-.13-4.55l2.34-7.13a5.4 5.4 0 0 1 4.8-3.61s-3.02 9.15-3.97 12.14a3.39 3.39 0 0 0 3.4 4.41c2.02.03 3.27.01 5.28 0a2.68 2.68 0 0 0 2.54-1.8l10.37-32.05Zm91.19-77.72h7.92l-4.47 13.6-3.63-.02 3.37-10.27h-4.3l1.11-3.31Z"/><path d="M164.96 150.1h3.6l-10.82 33.46a5.5 5.5 0 0 1-5.23 3.7h-5.13c-4.38-.02-6.06-1.74-7.08-4.57a7.94 7.94 0 0 1-.13-4.55l2.34-7.13a5.4 5.4 0 0 1 4.81-3.6s-3.03 9.15-3.98 12.14a3.39 3.39 0 0 0 3.4 4.4c2.02.03 3.27.02 5.28 0a2.68 2.68 0 0 0 2.55-1.8l10.4-32.05Zm94.65-86.43h-7.92l4.48-13.61 3.63.02-3.37 10.28h4.29l-1.1 3.3Z"/><path d="M241.97 81h-3.6l10.82-33.45a5.5 5.5 0 0 1 5.23-3.7c2.02-.02 3.12-.02 5.14 0 4.37.01 6.06 1.73 7.08 4.56.49 1.36.53 3.28.12 4.55-1.04 3.2-1.28 3.94-2.34 7.13a5.4 5.4 0 0 1-4.8 3.61s3.02-9.15 3.97-12.14a3.39 3.39 0 0 0-3.4-4.41c-2.01-.03-3.27-.01-5.28 0a2.68 2.68 0 0 0-2.54 1.8L241.97 81ZM256 71.42h7.93l-4.48 13.6-3.63-.02 3.37-10.27h-4.3l1.11-3.31Z"/><path d="M273.65 54.08h3.6l-10.83 33.46a5.5 5.5 0 0 1-5.23 3.7h-5.13c-4.38-.02-6.06-1.74-7.08-4.57a7.94 7.94 0 0 1-.13-4.55L251.2 75a5.4 5.4 0 0 1 4.8-3.61s-3.03 9.15-3.97 12.14a3.39 3.39 0 0 0 3.4 4.41c2.01.02 3.27.01 5.28 0a2.68 2.68 0 0 0 2.54-1.8l10.4-32.06ZM70.81 276.3H62.9l4.48-13.6 3.63.01L67.63 273h4.29l-1.1 3.31Z"/><path d="M53.17 293.63h-3.6l10.82-33.45a5.5 5.5 0 0 1 5.23-3.7c2.02-.02 3.12-.01 5.14 0 4.37.01 6.06 1.73 7.08 4.57.49 1.36.53 3.27.12 4.55-1.04 3.2-1.29 3.93-2.34 7.12a5.4 5.4 0 0 1-4.8 3.61s3.03-9.15 3.97-12.14a3.39 3.39 0 0 0-3.4-4.41c-2.01-.02-3.27-.01-5.28 0a2.68 2.68 0 0 0-2.54 1.8l-10.4 32.05Zm14.03-9.58h7.93l-4.48 13.61-3.63-.02 3.37-10.28H66.1l1.1-3.3Z"/><path d="M84.85 266.72h3.6l-10.83 33.45a5.5 5.5 0 0 1-5.22 3.7c-2.02.02-3.12.02-5.14 0-4.38-.01-6.06-1.73-7.08-4.56a7.94 7.94 0 0 1-.13-4.56l2.35-7.12a5.4 5.4 0 0 1 4.8-3.61s-3.03 9.15-3.97 12.14a3.39 3.39 0 0 0 3.4 4.41c2.01.03 3.27.01 5.28 0a2.68 2.68 0 0 0 2.54-1.8l10.4-32.05Zm94.85-86.22h-7.92l4.47-13.6 3.63.02-3.37 10.27h4.3l-1.11 3.31Z"/><path d="M162.06 197.84h-3.6l10.82-33.46a5.5 5.5 0 0 1 5.23-3.7h5.14c4.37.02 6.05 1.74 7.07 4.57.5 1.36.53 3.28.13 4.55l-2.34 7.13a5.4 5.4 0 0 1-4.81 3.6s3.03-9.15 3.98-12.13a3.39 3.39 0 0 0-3.4-4.42c-2.02-.02-3.28 0-5.28 0a2.68 2.68 0 0 0-2.55 1.8l-10.4 32.06Zm14.03-9.59H184l-4.47 13.62-3.63-.03 3.37-10.27h-4.3l1.1-3.31Z"/><path d="M193.73 170.92h3.6l-10.82 33.46a5.5 5.5 0 0 1-5.23 3.7h-5.13c-4.38-.02-6.06-1.74-7.08-4.57a7.94 7.94 0 0 1-.13-4.55l2.34-7.13a5.4 5.4 0 0 1 4.81-3.6s-3.03 9.15-3.98 12.14a3.39 3.39 0 0 0 3.4 4.4c2.02.03 3.28.02 5.28 0a2.68 2.68 0 0 0 2.55-1.8l10.4-32.05Zm94.65-86.36h-7.92l4.48-13.6 3.63.01-3.37 10.28h4.29l-1.1 3.31Z"/><path d="M270.74 101.9h-3.6l10.82-33.46a5.5 5.5 0 0 1 5.23-3.7c2.02-.02 3.12-.01 5.14 0 4.37.01 6.06 1.73 7.07 4.57.5 1.36.54 3.27.13 4.55-1.04 3.2-1.29 3.93-2.34 7.12a5.4 5.4 0 0 1-4.8 3.61s3.03-9.15 3.97-12.14a3.39 3.39 0 0 0-3.4-4.41c-2.01-.03-3.27-.01-5.28 0a2.68 2.68 0 0 0-2.54 1.8l-10.4 32.05Zm14.03-9.59h7.93l-4.48 13.61-3.63-.02 3.37-10.28h-4.3l1.11-3.3Z"/><path d="M302.42 74.98h3.6l-10.83 33.45a5.5 5.5 0 0 1-5.23 3.7c-2.01.02-3.11.02-5.13 0-4.38-.01-6.06-1.73-7.08-4.56a7.93 7.93 0 0 1-.13-4.55l2.35-7.13a5.4 5.4 0 0 1 4.8-3.61s-3.03 9.15-3.97 12.14a3.39 3.39 0 0 0 3.4 4.41c2 .03 3.27.01 5.28 0a2.68 2.68 0 0 0 2.54-1.8l10.4-32.05ZM99.58 297.12h-7.92l4.48-13.61 3.63.02-3.37 10.28h4.29l-1.1 3.31Z"/><path d="M81.94 314.45h-3.6L89.16 281a5.5 5.5 0 0 1 5.23-3.7c2.02-.02 3.12-.01 5.14 0 4.37.01 6.06 1.73 7.08 4.57.48 1.36.53 3.27.12 4.55-1.04 3.2-1.29 3.93-2.34 7.12a5.4 5.4 0 0 1-4.8 3.61s3.02-9.15 3.97-12.14a3.39 3.39 0 0 0-3.4-4.41c-2.01-.03-3.27-.01-5.28 0a2.68 2.68 0 0 0-2.54 1.8l-10.4 32.05Zm14.03-9.58h7.93l-4.48 13.61-3.63-.02 3.37-10.28h-4.3l1.11-3.31Z"/><path d="M113.62 287.54h3.6l-10.83 33.45a5.5 5.5 0 0 1-5.22 3.7c-2.02.02-3.12.01-5.14 0-4.38-.01-6.06-1.73-7.08-4.57a7.94 7.94 0 0 1-.13-4.55l2.35-7.12a5.4 5.4 0 0 1 4.8-3.61s-3.03 9.15-3.97 12.14a3.39 3.39 0 0 0 3.4 4.41c2.01.03 3.27.01 5.28 0a2.68 2.68 0 0 0 2.54-1.8l10.4-32.05ZM210 200.66h-7.93l4.48-13.61 3.63.02-3.37 10.27h4.3l-1.11 3.32Z"/><path d="M192.35 217.99h-3.6l10.83-33.46a5.5 5.5 0 0 1 5.23-3.7h5.13c4.38.02 6.06 1.74 7.08 4.57.5 1.36.53 3.28.13 4.55l-2.34 7.13a5.4 5.4 0 0 1-4.81 3.6s3.03-9.14 3.98-12.13a3.39 3.39 0 0 0-3.4-4.42c-2.02-.02-3.28 0-5.28 0a2.68 2.68 0 0 0-2.55 1.81L192.35 218Zm14.04-9.59h7.92l-4.47 13.62-3.63-.03 3.37-10.27h-4.3l1.1-3.31Z"/><path d="M224.03 191.07h3.6l-10.82 33.46a5.5 5.5 0 0 1-5.23 3.7h-5.14c-4.37-.02-6.05-1.74-7.07-4.57a7.93 7.93 0 0 1-.13-4.55l2.34-7.13a5.4 5.4 0 0 1 4.81-3.6s-3.03 9.15-3.98 12.14a3.39 3.39 0 0 0 3.4 4.4c2.02.03 3.27.02 5.28 0a2.68 2.68 0 0 0 2.55-1.8l10.4-32.05Zm94.67-86.36h-7.92l4.47-13.6 3.63.02-3.37 10.27h4.3l-1.1 3.31Z"/><path d="M301.06 122.05h-3.6l10.82-33.46a5.5 5.5 0 0 1 5.23-3.7h5.14c4.37.02 6.06 1.74 7.07 4.57.5 1.36.53 3.28.13 4.55l-2.34 7.13a5.4 5.4 0 0 1-4.81 3.6s3.03-9.15 3.98-12.14a3.39 3.39 0 0 0-3.4-4.4c-2.01-.03-3.27-.02-5.28 0a2.68 2.68 0 0 0-2.55 1.8l-10.4 32.05Zm14.04-9.59h7.9l-4.47 13.61-3.63-.02 3.37-10.27h-4.3l1.11-3.32Z"/><path d="M332.73 95.13h3.6l-10.82 33.45a5.5 5.5 0 0 1-5.23 3.7c-2.02.02-3.11.02-5.13 0-4.38-.01-6.06-1.73-7.08-4.56a7.93 7.93 0 0 1-.13-4.55c1.04-3.2 1.29-3.94 2.35-7.13a5.4 5.4 0 0 1 4.8-3.6s-3.03 9.14-3.97 12.13a3.39 3.39 0 0 0 3.4 4.42c2 .02 3.27 0 5.27 0a2.68 2.68 0 0 0 2.55-1.81l10.4-32.05ZM441.42 0h3.6l-10.8 33.45a5.5 5.5 0 0 1-5.22 3.7c-2.02.02-3.12.02-5.14 0-4.37-.01-6.05-1.73-7.07-4.56a7.94 7.94 0 0 1-.13-4.55c1.04-3.2 1.28-3.94 2.34-7.13a5.4 5.4 0 0 1 4.8-3.6s-3.03 9.14-3.97 12.13a3.39 3.39 0 0 0 3.4 4.42c2.01.02 3.27 0 5.28 0a2.68 2.68 0 0 0 2.54-1.81L441.42 0ZM8.77 377.24h-3.6l10.8-33.45a5.5 5.5 0 0 1 5.23-3.7c2.01-.02 3.11-.01 5.13 0 4.37.01 6.06 1.73 7.08 4.57.49 1.36.53 3.27.13 4.55-1.04 3.2-1.29 3.93-2.34 7.12a5.4 5.4 0 0 1-4.8 3.61s3.02-9.15 3.96-12.14a3.39 3.39 0 0 0-3.4-4.41c-2-.02-3.27-.01-5.27 0a2.68 2.68 0 0 0-2.54 1.8L8.77 377.25Zm31.63-26.91H44l-10.8 33.45a5.5 5.5 0 0 1-5.22 3.7c-2.02.02-3.12.01-5.14 0-4.37-.01-6.05-1.73-7.07-4.56a7.94 7.94 0 0 1-.13-4.56l2.33-7.12a5.4 5.4 0 0 1 4.8-3.61s-3.02 9.15-3.96 12.14a3.39 3.39 0 0 0 3.4 4.41c2.01.03 3.27.01 5.28 0a2.68 2.68 0 0 0 2.54-1.8l10.37-32.05Zm15.08 28.1h-7.92l4.48-13.6 3.63.02-3.37 10.27h4.29l-1.1 3.31Z"/><path d="M37.84 395.77h-3.6l10.82-33.46a5.5 5.5 0 0 1 5.23-3.7h5.14c4.37.02 6.06 1.74 7.08 4.57.48 1.36.53 3.28.12 4.55l-2.34 7.13a5.4 5.4 0 0 1-4.8 3.6s3.02-9.15 3.97-12.14a3.39 3.39 0 0 0-3.4-4.4c-2.01-.03-3.27-.02-5.28 0a2.68 2.68 0 0 0-2.54 1.8l-10.4 32.05Zm14.03-9.59h7.93l-4.48 13.61-3.63-.02 3.37-10.27h-4.3l1.11-3.32Z"/><path d="M69.52 368.85h3.6L62.29 402.3a5.5 5.5 0 0 1-5.23 3.7c-2.01.02-3.11.02-5.13 0-4.38-.01-6.06-1.73-7.08-4.56a7.94 7.94 0 0 1-.13-4.55l2.35-7.13a5.4 5.4 0 0 1 4.8-3.6s-3.03 9.14-3.97 12.13a3.39 3.39 0 0 0 3.4 4.41c2.01.03 3.27.01 5.28 0a2.68 2.68 0 0 0 2.54-1.8l10.4-32.05ZM84.18 400h-7.93l4.48-13.62 3.63.03L81 396.68h4.3l-1.11 3.31Z"/><path d="M66.53 417.33h-3.6l10.83-33.46a5.5 5.5 0 0 1 5.23-3.7h5.14c4.37.02 6.05 1.74 7.07 4.57.5 1.36.53 3.28.13 4.55l-2.34 7.13a5.4 5.4 0 0 1-4.81 3.6s3.03-9.15 3.98-12.14a3.39 3.39 0 0 0-3.4-4.41c-2.02-.02-3.28-.01-5.28 0a2.68 2.68 0 0 0-2.55 1.8l-10.4 32.06Zm14.04-9.59h7.92l-4.47 13.61-3.63-.02 3.37-10.27h-4.3l1.1-3.32Z"/><path d="M98.21 390.4h3.6L91 423.87a5.5 5.5 0 0 1-5.23 3.7c-2.02.02-3.11.02-5.14 0-4.37-.01-6.05-1.73-7.07-4.56a7.94 7.94 0 0 1-.13-4.55l2.34-7.13a5.4 5.4 0 0 1 4.81-3.61s-3.03 9.15-3.98 12.14a3.39 3.39 0 0 0 3.4 4.41c2.02.03 3.27.01 5.28 0a2.68 2.68 0 0 0 2.55-1.8l10.4-32.05Zm14.74 30.41h-7.93l4.48-13.6 3.63.02-3.37 10.27h4.3l-1.11 3.31Z"/><path d="M95.3 438.14h-3.6l10.83-33.45a5.5 5.5 0 0 1 5.23-3.7h5.13c4.38.01 6.06 1.73 7.08 4.57.49 1.36.53 3.27.13 4.55-1.04 3.2-1.29 3.93-2.34 7.12a5.4 5.4 0 0 1-4.81 3.61s3.03-9.15 3.98-12.14a3.39 3.39 0 0 0-3.4-4.41c-2.02-.02-3.28-.01-5.28 0a2.68 2.68 0 0 0-2.55 1.8l-10.4 32.05Zm14.04-9.58h7.92l-4.47 13.61-3.64-.02 3.38-10.28h-4.3l1.1-3.3Z"/><path d="M126.98 411.23h3.6l-10.82 33.45a5.5 5.5 0 0 1-5.23 3.7c-2.02.02-3.11.02-5.14 0-4.37-.01-6.05-1.73-7.07-4.56a7.94 7.94 0 0 1-.13-4.56c1.04-3.2 1.29-3.93 2.34-7.12a5.4 5.4 0 0 1 4.81-3.61s-3.03 9.15-3.98 12.14a3.39 3.39 0 0 0 3.4 4.41c2.02.03 3.27.01 5.28 0a2.68 2.68 0 0 0 2.55-1.8l10.4-32.05Zm-52.71-47.54h-3.6l10.8-33.46a5.5 5.5 0 0 1 5.23-3.7h5.13c4.37.02 6.06 1.74 7.08 4.57.49 1.36.53 3.28.13 4.55l-2.34 7.13a5.4 5.4 0 0 1-4.8 3.6s3.02-9.15 3.97-12.14a3.39 3.39 0 0 0-3.4-4.41c-2.02-.02-3.28-.01-5.28 0a2.68 2.68 0 0 0-2.54 1.8L74.27 363.7Zm14.03-9.59h7.92l-4.48 13.61-3.63-.02 3.37-10.27h-4.3l1.11-3.32Z"/><path d="M105.94 336.77h3.6L98.7 370.22a5.5 5.5 0 0 1-5.23 3.7c-2.02.02-3.11.02-5.13 0-4.38-.01-6.06-1.73-7.08-4.56a7.94 7.94 0 0 1-.13-4.55c1.04-3.2 1.3-3.94 2.35-7.13a5.4 5.4 0 0 1 4.8-3.61s-3.03 9.15-3.98 12.14a3.39 3.39 0 0 0 3.4 4.42c2.02.02 3.28 0 5.28 0a2.68 2.68 0 0 0 2.55-1.81l10.4-32.05Zm14.66 31.07h-7.93l4.48-13.61 3.63.02-3.37 10.27h4.3l-1.11 3.32Z"/><path d="M102.95 385.17h-3.6l10.83-33.45a5.5 5.5 0 0 1 5.23-3.7c2.02-.02 3.11-.02 5.13 0 4.38.01 6.06 1.73 7.08 4.56.49 1.36.53 3.28.13 4.55l-2.35 7.13a5.4 5.4 0 0 1-4.8 3.61s3.03-9.15 3.97-12.14a3.39 3.39 0 0 0-3.4-4.41c-2-.03-3.27-.01-5.28 0a2.68 2.68 0 0 0-2.54 1.8l-10.4 32.05Zm14.04-9.58h7.92l-4.47 13.6-3.64-.02 3.37-10.27h-4.29l1.1-3.31Z"/><path d="M134.63 358.25h3.6l-10.82 33.46a5.5 5.5 0 0 1-5.23 3.7h-5.14c-4.37-.02-6.06-1.74-7.07-4.57a7.94 7.94 0 0 1-.13-4.55c1.04-3.2 1.29-3.94 2.34-7.12a5.4 5.4 0 0 1 4.8-3.61s-3.02 9.15-3.97 12.14a3.39 3.39 0 0 0 3.4 4.41c2.01.02 3.27.01 5.28 0a2.68 2.68 0 0 0 2.54-1.8l10.4-32.06ZM40.17 483.56h-7.93l4.48-13.6 3.63.02-3.37 10.27h4.3l-1.11 3.31Z"/><path d="M22.52 500.9h-3.6l10.83-33.46a5.5 5.5 0 0 1 5.23-3.7h5.13c4.38.02 6.06 1.74 7.08 4.57.49 1.36.53 3.28.13 4.55-1.04 3.2-1.3 3.94-2.35 7.13a5.4 5.4 0 0 1-4.8 3.6s3.03-9.15 3.97-12.14a3.39 3.39 0 0 0-3.4-4.4c-2-.03-3.27-.02-5.28 0a2.68 2.68 0 0 0-2.54 1.8l-10.4 32.05Zm14.04-9.59h7.92l-4.47 13.61-3.64-.02 3.37-10.27h-4.29l1.1-3.32Z"/><path d="M54.2 473.98h3.6l-10.82 33.46a5.5 5.5 0 0 1-5.23 3.7H36.6c-4.37-.02-6.06-1.74-7.07-4.57a7.94 7.94 0 0 1-.13-4.55l2.34-7.13a5.4 5.4 0 0 1 4.8-3.6s-3.02 9.14-3.97 12.13a3.39 3.39 0 0 0 3.4 4.42c2.01.02 3.27 0 5.28 0a2.68 2.68 0 0 0 2.54-1.81l10.4-32.05Zm95.17-85.25h-7.93l4.48-13.6 3.63.01-3.37 10.28h4.3l-1.11 3.31Z"/><path d="M131.72 406.06h-3.6l10.83-33.45a5.5 5.5 0 0 1 5.23-3.7c2.01-.02 3.11-.01 5.13 0 4.38.01 6.06 1.73 7.08 4.57.49 1.36.53 3.27.13 4.55l-2.35 7.12a5.4 5.4 0 0 1-4.8 3.61s3.03-9.15 3.97-12.14a3.39 3.39 0 0 0-3.4-4.41c-2-.02-3.27-.01-5.28 0a2.68 2.68 0 0 0-2.54 1.8l-10.4 32.05Zm14.04-9.58h7.92l-4.47 13.61-3.64-.02 3.37-10.28h-4.29l1.1-3.3Z"/><path d="M163.4 379.15h3.6l-10.82 33.45a5.5 5.5 0 0 1-5.23 3.7c-2.02.02-3.12.02-5.14 0-4.37-.01-6.06-1.73-7.07-4.56a7.93 7.93 0 0 1-.13-4.56c1.04-3.2 1.29-3.93 2.34-7.12a5.4 5.4 0 0 1 4.8-3.61s-3.02 9.15-3.97 12.14a3.39 3.39 0 0 0 3.4 4.41c2.01.03 3.27.01 5.28 0a2.68 2.68 0 0 0 2.54-1.8l10.4-32.05ZM33.37 400.34h3.6l-10.8 33.45a5.5 5.5 0 0 1-5.22 3.7c-2.01.02-3.1.01-5.13 0-4.37-.01-6.05-1.73-7.07-4.57a7.94 7.94 0 0 1-.13-4.55c1.03-3.2 1.28-3.93 2.33-7.12a5.4 5.4 0 0 1 4.8-3.61s-3.02 9.15-3.96 12.14a3.39 3.39 0 0 0 3.4 4.41c2.01.03 3.27.01 5.27 0a2.68 2.68 0 0 0 2.55-1.8l10.36-32.05Zm14.69 31.06h-7.93l4.48-13.6 3.63.02-3.37 10.27h4.29l-1.1 3.32Z"/><path d="M30.41 448.74h-3.6l10.82-33.46a5.5 5.5 0 0 1 5.23-3.7H48c4.38.02 6.06 1.74 7.08 4.57.49 1.36.53 3.28.13 4.55l-2.35 7.13a5.4 5.4 0 0 1-4.8 3.6s3.03-9.14 3.97-12.13a3.39 3.39 0 0 0-3.4-4.42c-2.01-.02-3.27 0-5.28 0a2.68 2.68 0 0 0-2.54 1.81l-10.4 32.05Zm14.04-9.58h7.92l-4.48 13.6-3.63-.02 3.37-10.27h-4.29l1.1-3.31Z"/><path d="M62.09 421.82h3.6l-10.82 33.46a5.5 5.5 0 0 1-5.23 3.7H44.5c-4.37-.02-6.06-1.74-7.08-4.57a7.94 7.94 0 0 1-.12-4.55c1.04-3.2 1.28-3.94 2.34-7.13a5.4 5.4 0 0 1 4.8-3.6s-3.03 9.15-3.97 12.13a3.39 3.39 0 0 0 3.4 4.42c2.01.02 3.27 0 5.28 0a2.68 2.68 0 0 0 2.54-1.8l10.4-32.06Zm14.74 30.48H68.9l4.48-13.61 3.63.02L73.64 449h4.29l-1.1 3.3Z"/><path d="M59.18 469.63h-3.6l10.82-33.45a5.5 5.5 0 0 1 5.23-3.7c2.02-.02 3.12-.02 5.14 0 4.38.01 6.06 1.73 7.08 4.56.49 1.36.53 3.28.13 4.56l-2.35 7.12a5.4 5.4 0 0 1-4.8 3.61s3.03-9.15 3.97-12.14a3.39 3.39 0 0 0-3.4-4.41c-2.01-.03-3.27-.01-5.28 0a2.68 2.68 0 0 0-2.54 1.8l-10.4 32.05Zm14.04-9.58h7.92l-4.48 13.6-3.63-.01 3.37-10.28h-4.29l1.1-3.31Z"/><path d="M90.86 442.72h3.6l-10.82 33.45a5.5 5.5 0 0 1-5.23 3.7c-2.02.02-3.12.01-5.14 0-4.37-.01-6.06-1.73-7.08-4.57a7.94 7.94 0 0 1-.12-4.55c1.04-3.2 1.28-3.93 2.34-7.12a5.4 5.4 0 0 1 4.8-3.61s-3.03 9.15-3.97 12.14a3.39 3.39 0 0 0 3.4 4.41c2.01.03 3.27.01 5.28 0a2.68 2.68 0 0 0 2.54-1.8l10.4-32.05Zm239.37-299.35h-3.6l10.8-33.45a5.5 5.5 0 0 1 5.22-3.7c2.02-.02 3.12-.02 5.14 0 4.37.01 6.05 1.73 7.07 4.56.5 1.36.54 3.28.13 4.55l-2.33 7.13a5.4 5.4 0 0 1-4.8 3.6s3.02-9.14 3.96-12.13a3.39 3.39 0 0 0-3.4-4.42c-2.01-.02-3.27 0-5.28 0a2.68 2.68 0 0 0-2.54 1.81l-10.37 32.05Zm31.63-26.92h3.6l-10.8 33.46a5.5 5.5 0 0 1-5.23 3.7h-5.13c-4.37-.02-6.05-1.74-7.07-4.57a7.95 7.95 0 0 1-.13-4.55c1.03-3.2 1.28-3.94 2.33-7.13a5.4 5.4 0 0 1 4.8-3.6s-3.02 9.15-3.96 12.14a3.39 3.39 0 0 0 3.4 4.4c2.01.03 3.27.02 5.27 0a2.68 2.68 0 0 0 2.55-1.8l10.37-32.05Zm15.08 28.11h-7.92l4.47-13.61 3.64.02-3.38 10.28h4.3l-1.1 3.3Z"/><path d="M359.3 161.9h-3.6l10.82-33.46a5.5 5.5 0 0 1 5.23-3.7c2.02-.02 3.12-.02 5.14 0 4.37.01 6.06 1.73 7.07 4.57.5 1.35.54 3.27.13 4.54l-2.34 7.13a5.4 5.4 0 0 1-4.8 3.61s3.02-9.15 3.97-12.14a3.39 3.39 0 0 0-3.4-4.41c-2.01-.03-3.27-.01-5.28 0a2.68 2.68 0 0 0-2.55 1.8l-10.4 32.05Zm14.03-9.59h7.93l-4.48 13.6-3.63-.01 3.37-10.28h-4.3l1.11-3.31Z"/><path d="M390.98 134.98h3.6l-10.83 33.45a5.5 5.5 0 0 1-5.23 3.7c-2.01.02-3.11.01-5.13 0-4.38-.01-6.06-1.73-7.08-4.57a7.93 7.93 0 0 1-.13-4.55l2.35-7.12a5.4 5.4 0 0 1 4.8-3.61s-3.03 9.15-3.97 12.14a3.39 3.39 0 0 0 3.4 4.41c2 .02 3.27.01 5.28 0a2.68 2.68 0 0 0 2.54-1.8l10.4-32.05Zm14.66 31.14h-7.93l4.48-13.61 3.63.02-3.37 10.28h4.3l-1.11 3.3Z"/><path d="M388 183.45h-3.6L395.21 150a5.5 5.5 0 0 1 5.23-3.7c2.02-.02 3.11-.02 5.13 0 4.38.01 6.06 1.73 7.08 4.56.49 1.36.53 3.28.13 4.55-1.04 3.2-1.3 3.94-2.35 7.13a5.4 5.4 0 0 1-4.8 3.61s3.03-9.15 3.98-12.14a3.39 3.39 0 0 0-3.4-4.41c-2.02-.03-3.28-.01-5.29 0a2.68 2.68 0 0 0-2.54 1.8L388 183.45Zm14.03-9.58h7.92l-4.47 13.6-3.64-.01 3.38-10.28h-4.3l1.1-3.31Z"/><path d="M419.67 156.54h3.6l-10.82 33.45a5.5 5.5 0 0 1-5.23 3.7c-2.02.02-3.12.01-5.14 0-4.37-.01-6.06-1.73-7.07-4.57a7.93 7.93 0 0 1-.13-4.55c1.04-3.2 1.29-3.93 2.34-7.12a5.4 5.4 0 0 1 4.8-3.61s-3.02 9.15-3.97 12.14a3.39 3.39 0 0 0 3.4 4.41c2.01.03 3.27.01 5.28 0a2.68 2.68 0 0 0 2.54-1.8l10.4-32.05Zm14.73 30.4h-7.92l4.48-13.61 3.63.02-3.37 10.28h4.3l-1.11 3.3Z"/><path d="M416.76 204.27h-3.6L424 170.82a5.5 5.5 0 0 1 5.23-3.7c2.02-.02 3.11-.02 5.13 0 4.38.01 6.06 1.73 7.08 4.56.49 1.36.53 3.28.13 4.55-1.04 3.2-1.3 3.94-2.35 7.13a5.4 5.4 0 0 1-4.8 3.61s3.03-9.15 3.97-12.14a3.39 3.39 0 0 0-3.4-4.41c-2-.03-3.27-.01-5.28 0a2.68 2.68 0 0 0-2.54 1.8l-10.4 32.05Zm14.04-9.58h7.92l-4.47 13.6-3.64-.02 3.37-10.27h-4.29l1.1-3.31Z"/><path d="M448.44 177.35h3.6l-10.82 33.46a5.5 5.5 0 0 1-5.23 3.7h-5.14c-4.37-.02-6.06-1.73-7.07-4.57a7.94 7.94 0 0 1-.13-4.55l2.34-7.13a5.4 5.4 0 0 1 4.8-3.6s-3.02 9.15-3.97 12.14a3.39 3.39 0 0 0 3.4 4.41c2.01.02 3.27.01 5.28 0a2.68 2.68 0 0 0 2.55-1.8l10.4-32.06Zm-52.71-47.54h-3.6l10.8-33.45a5.5 5.5 0 0 1 5.23-3.7c2.01-.02 3.11-.02 5.13 0 4.37.01 6.06 1.73 7.07 4.56a7.9 7.9 0 0 1 .14 4.56c-1.04 3.2-1.29 3.93-2.34 7.12a5.4 5.4 0 0 1-4.8 3.61s3.02-9.15 3.96-12.14a3.39 3.39 0 0 0-3.4-4.41c-2-.03-3.27-.01-5.27 0a2.68 2.68 0 0 0-2.54 1.8l-10.38 32.05Zm14.02-9.58h7.93l-4.48 13.6-3.63-.02 3.37-10.27h-4.3l1.11-3.31Z"/><path d="M427.4 102.9h3.6l-10.83 33.45a5.5 5.5 0 0 1-5.23 3.7c-2.02.02-3.11.01-5.13 0-4.38-.01-6.06-1.73-7.08-4.57a7.93 7.93 0 0 1-.13-4.55c1.04-3.2 1.29-3.93 2.34-7.12a5.4 5.4 0 0 1 4.81-3.61s-3.03 9.15-3.98 12.14a3.39 3.39 0 0 0 3.4 4.41c2.02.03 3.27.01 5.28 0a2.68 2.68 0 0 0 2.55-1.8l10.4-32.05Zm-65.77 146.79h-7.93l4.48-13.6 3.63.01-3.37 10.28h4.29l-1.1 3.31Z"/><path d="M343.98 267.02h-3.6l10.83-33.45a5.5 5.5 0 0 1 5.23-3.7c2.01-.02 3.11-.01 5.13 0 4.38.01 6.06 1.73 7.08 4.57.49 1.36.53 3.27.13 4.55l-2.35 7.12a5.4 5.4 0 0 1-4.8 3.61s3.03-9.15 3.97-12.14a3.39 3.39 0 0 0-3.4-4.41c-2-.02-3.27-.01-5.28 0a2.68 2.68 0 0 0-2.54 1.8l-10.4 32.05Zm14.04-9.58h7.92l-4.48 13.61-3.63-.02 3.37-10.28h-4.29l1.1-3.3Z"/><path d="M375.66 240.1h3.6l-10.82 33.46a5.5 5.5 0 0 1-5.23 3.7c-2.02.02-3.12.01-5.14 0-4.37-.01-6.06-1.73-7.07-4.56a7.93 7.93 0 0 1-.13-4.56c1.04-3.2 1.29-3.93 2.34-7.12a5.4 5.4 0 0 1 4.8-3.61s-3.02 9.15-3.97 12.14a3.39 3.39 0 0 0 3.4 4.41c2.01.03 3.27.01 5.28 0a2.68 2.68 0 0 0 2.54-1.8l10.4-32.05Zm95.17-85.24h-7.93l4.48-13.61 3.63.02-3.37 10.27h4.29l-1.1 3.32Z"/><path d="M453.18 172.2h-3.6l10.82-33.46a5.5 5.5 0 0 1 5.24-3.7c2.01-.02 3.11-.02 5.13 0 4.38.01 6.06 1.73 7.08 4.56.49 1.36.53 3.28.13 4.55l-2.35 7.13a5.4 5.4 0 0 1-4.8 3.61s3.03-9.15 3.97-12.14a3.39 3.39 0 0 0-3.4-4.41c-2.01-.03-3.27-.02-5.28 0a2.68 2.68 0 0 0-2.54 1.8l-10.4 32.05Zm55.3-62.22h7.92l-4.48 13.6-3.63-.02 3.37-10.27h-4.29l1.1-3.31Z"/><path d="M526.12 92.65h3.6L518.9 126.1a5.5 5.5 0 0 1-5.23 3.7h-5.14c-4.38-.02-6.06-1.73-7.08-4.57a7.93 7.93 0 0 1-.13-4.55l2.35-7.12a5.4 5.4 0 0 1 4.8-3.61s-3.03 9.15-3.97 12.14a3.39 3.39 0 0 0 3.4 4.41c2.01.02 3.27.01 5.28 0a2.68 2.68 0 0 0 2.54-1.8l10.4-32.05Zm-171.29 73.81h3.6l-10.8 33.46a5.5 5.5 0 0 1-5.22 3.7h-5.13c-4.37-.02-6.05-1.74-7.07-4.57a7.94 7.94 0 0 1-.14-4.55l2.34-7.13a5.4 5.4 0 0 1 4.8-3.6s-3.02 9.15-3.96 12.14a3.39 3.39 0 0 0 3.4 4.4c2 .03 3.27.02 5.27 0a2.68 2.68 0 0 0 2.54-1.8l10.37-32.05Zm14.68 31.07h-7.92l4.48-13.6 3.63.02-3.37 10.27h4.29l-1.1 3.31Z"/><path d="M351.87 214.87h-3.6l10.82-33.46a5.5 5.5 0 0 1 5.23-3.7c2.02-.02 3.12-.01 5.14 0 4.38.02 6.06 1.73 7.08 4.57.49 1.36.53 3.28.13 4.55l-2.35 7.13a5.4 5.4 0 0 1-4.8 3.6s3.03-9.15 3.97-12.14a3.39 3.39 0 0 0-3.4-4.41c-2.01-.02-3.27-.01-5.28 0a2.68 2.68 0 0 0-2.54 1.8l-10.4 32.06Zm14.03-9.59h7.93l-4.48 13.61-3.63-.02 3.37-10.28h-4.29l1.1-3.3Z"/><path d="M383.55 187.95h3.6l-10.82 33.45a5.5 5.5 0 0 1-5.23 3.7c-2.02.02-3.12.02-5.14 0-4.38-.01-6.06-1.73-7.08-4.56a7.94 7.94 0 0 1-.13-4.55l2.35-7.13a5.4 5.4 0 0 1 4.8-3.61s-3.03 9.15-3.97 12.14a3.39 3.39 0 0 0 3.4 4.41c2.01.03 3.27.01 5.28 0a2.68 2.68 0 0 0 2.54-1.8l10.4-32.05Zm14.73 30.48h-7.92l4.48-13.62 3.63.03-3.37 10.27h4.29l-1.1 3.31Z"/><path d="M380.64 235.76h-3.6l10.82-33.46a5.5 5.5 0 0 1 5.23-3.7h5.14c4.38.02 6.06 1.74 7.08 4.57.49 1.36.53 3.28.13 4.55l-2.35 7.13a5.4 5.4 0 0 1-4.8 3.6s3.03-9.14 3.97-12.13a3.39 3.39 0 0 0-3.4-4.42c-2.01-.02-3.27 0-5.28 0a2.68 2.68 0 0 0-2.54 1.8l-10.4 32.06Zm14.03-9.58h7.93l-4.48 13.6-3.63-.02 3.37-10.27h-4.29l1.1-3.31Z"/><path d="M412.32 208.84h3.6L405.1 242.3a5.5 5.5 0 0 1-5.23 3.7h-5.14c-4.38-.02-6.06-1.74-7.08-4.57a7.94 7.94 0 0 1-.13-4.55l2.35-7.13a5.4 5.4 0 0 1 4.8-3.6s-3.03 9.14-3.97 12.13a3.39 3.39 0 0 0 3.4 4.42c2.01.02 3.27 0 5.28 0a2.68 2.68 0 0 0 2.54-1.8l10.4-32.06Z"/></g><defs><clipPath id="a"><path fill="#fff" d="M0 0h689v644H0z"/></clipPath></defs></svg>