<svg xmlns="http://www.w3.org/2000/svg" fill="none" viewBox="0 0 42 47"><path fill="url(#a)" fill-rule="evenodd" d="M30.26 26.15H18.33l5.26-16 5.94.04-3.45 10.55H32l-1.75 5.4Z" clip-rule="evenodd"/><path fill="#F0145A" fill-rule="evenodd" d="M5.9 46.9H0L13.27 6.06A8.77 8.77 0 0 1 21.6 0h10.55a9 9 0 0 1 7.5 3.62 8.9 8.9 0 0 1 1.15 8.15l-2.7 8.33a8.74 8.74 0 0 1-7.85 6.05s-.02 0 5.03-15.56a4.07 4.07 0 0 0-.42-3.68c-.7-.96-1.88-1.53-3.44-1.53h-9.06a4.1 4.1 0 0 0-3.9 2.84L5.9 46.9Z" clip-rule="evenodd"/><defs><linearGradient id="a" x1="18.33" x2="31.6" y1="23.08" y2="30.02" gradientUnits="userSpaceOnUse"><stop stop-color="#F0145A"/><stop offset="1" stop-color="#693264"/></linearGradient></defs></svg>