<svg xmlns="http://www.w3.org/2000/svg" fill="none" viewBox="0 0 138 61"><path fill="#F8B829" fill-rule="evenodd" d="m26.54 4.67.22 1.52c-6.86 13.86 1.88 12.74 1.88 12.74l1.1-.2.18.33c16.23-1.83 25.11 6.58 25.11 6.58C56.21 5.74 26.54 4.67 26.54 4.67Z" clip-rule="evenodd"/><path fill="#005D86" d="M16.35 51.5c-.7 4.57 3.06 7.23 3.66 5.76 1.66-2.15 2.24-1.52 3.07-4.75.3-.4.65-.77 1.04-1.09.84-.86 1.65-1.75 2.42-2.65a41.17 41.17 0 0 0 5.83-8.5 15.53 15.53 0 0 0 1.8-10.18 18.48 18.48 0 0 0-2.64-4.94 5.54 5.54 0 0 1-.46-2.5 7.08 7.08 0 0 0-1.12-3.62 3.72 3.72 0 0 1-.99-2.88c.2-1.16.2-2.3.37-3.46a14 14 0 0 0-1.16-6.32s-1.08-1.89-2.03-1.41a10.4 10.4 0 0 0-11.28.13S-7.1 19.05 12.7 45.86c-.6 3.47 1.53 7.06 3.19 9.44"/><path fill="#fff" d="M26.45 20.9 23.48 7.4s-1.75-5.18-6.35 1.36l-.77-1c-4.23 5.96-9.97 13.1-8.7 20.85a9.88 9.88 0 0 0 4.48 7.07 9.44 9.44 0 0 0 11.93-1c2.4-1.98 4.34-6 2.38-13.8Z"/><path fill="#F19320" fill-rule="evenodd" d="M29.92 19.1s14.2-2.19 25.11 6.58c0 0-10.27-13.4-26.65-10.92.02 0-1.16 3.3 1.54 4.35Z" clip-rule="evenodd"/><path fill="#E95253" d="M55.03 25.68c.29-3.46-.59-6.91-2.5-9.82-.15-.2-1.33 2.36-1.35 2.6-.06 1.06.2 2.12.75 3.04.79 1.44 2.69 2.61 3.07 4.15"/><path fill="#9B5F48" d="M1.53 45.05c2.01.76 4.2.9 6.29.41 2.93.4 4.46 1.31 7.96 1.7 4.28 0 8.52-.45 12.77-.85 1.38-.12 4.45-.29 5.61.8.68.62.48 2.32.5 3.2a26.45 26.45 0 0 0-7.92-1.68c-3.07 0-6.24.14-9.35.1a35.6 35.6 0 0 1-6.33-.54c-1.95-.37-3.87-.87-5.82-1.27-1.4-.3-3.12-.54-3.7-1.87Z"/><path fill="#969595" d="M28.87 47.8c0 .48-.43 1.52-.83 1.52-.4 0-.82-1.02-.82-1.53v-1.72c0-.49.3-.98.7-.98a1.1 1.1 0 0 1 .92.98l.03 1.72Z"/><path fill="#838383" d="M27.22 48.04c0 .38-.31 1.17-.63 1.17s-.63-.8-.63-1.17v-1.36c0-.38.23-.76.55-.76a.8.8 0 0 1 .68.76l.03 1.36Z"/><path fill="#969595" d="M12 47.8c0 .48.44 1.52.83 1.52.4 0 .83-1.02.83-1.53v-1.72c0-.49-.3-.98-.7-.98a1.09 1.09 0 0 0-.92.98L12 47.79Z"/><path fill="#838383" d="M13.66 48.04c0 .38.3 1.17.63 1.17.32 0 .63-.8.63-1.17v-1.36c0-.38-.23-.76-.55-.76a.8.8 0 0 0-.68.76l-.03 1.36Z"/><path fill="#003B55" d="M29.58 14.46c.37-.87 1.04-3.57-.83-8.22-.34-.72-1.18-2.38-2.97-1.53-.27.4 3.23 2.58 2.51 10.27 0 0-.9 3.21 1.63 4.11a5.84 5.84 0 0 1-.57-2.53c-.06-.7.02-1.42.23-2.1Zm-.17.3h.01-.01Z"/><path fill="#F8B829" d="M26.54 11.62c.68 3.6-1.13 5.64-4.72 5.69-2.76 0-6.78-.58-7.16-3.94-.32-2.9 1.53-6.86 4.5-7.74 4.13-1.25 6.74 2.45 7.4 5.99h-.02Z"/><path fill="#005D86" d="M24.35 11.36a2.6 2.6 0 0 1-1.57 3.26c-.42.16-.87.2-1.31.14-1.75 0-4.19-.41-4.34-2.53a4.55 4.55 0 0 1 2.8-4.6c2.47-.7 4 1.52 4.37 3.67l.05.06Z"/><path fill="#151410" fill-rule="evenodd" d="M23 10.9a2.14 2.14 0 0 1-2.15 2.15 2.16 2.16 0 0 1-2.16-2.15 2.14 2.14 0 0 1 2.16-2.14A2.16 2.16 0 0 1 23 10.9Z" clip-rule="evenodd"/><path fill="#fff" fill-rule="evenodd" d="M21.14 9.55c0 .38-.33 0-.33 0s.33-.4.33 0Zm-1.21-.02c-.21 0-.26.23-.29.47a.41.41 0 0 0-.2.61s1.05-.97 1.12-.91a.8.8 0 0 0-.63-.17Z" clip-rule="evenodd"/><path fill="#fff" d="M54.2 44.71a.85.85 0 0 1 .65.28l1.8 1.92c-2.74 3.48-8 4.25-12.01 2.77a10.72 10.72 0 0 1-6.67-10.03A11 11 0 0 1 44 28.98a11.34 11.34 0 0 1 12.36 1.87l-1.54 2.07c-.83 1.2-2.1-.12-2.96-.53a7.06 7.06 0 0 0-4.08-.55 6.43 6.43 0 0 0-5.12 6.1 8.01 8.01 0 0 0 2.73 7.43 6.76 6.76 0 0 0 8.07-.43c.21-.15.47-.23.73-.23Zm8.67-17.09V50.1h-4.22V27.62h4.22Zm7.76 6.94V50.1h-4.18V34.56h4.18Zm.5-4.52c0 3.25-5.18 3.27-5.18 0 0-3.26 5.18-3.26 5.18 0Zm14.41 7.98c-.65.88-1.36.33-2.1 0a4.36 4.36 0 0 0-2.99-.47c-2.11.47-2.73 2.62-2.79 4.57-.06 1.95.36 4.18 2.29 4.96a3.96 3.96 0 0 0 3.06-.11c.76-.35 1.83-1.68 2.61-.66l1.2 1.53a8.21 8.21 0 0 1-8.62 2.12 7.66 7.66 0 0 1-4.8-7.38 7.67 7.67 0 0 1 4.6-7.73 8.23 8.23 0 0 1 8.65 1.75l-1.1 1.42Zm7.53-10.4v12.76h.7a1.23 1.23 0 0 0 1.07-.53l3.45-4.58a1.67 1.67 0 0 1 1.4-.7h3.83l-4.47 5.64c-.33.45-.74.83-1.22 1.12.45.34.82.77 1.1 1.26l4.83 7.5H100a1.54 1.54 0 0 1-1.4-.73l-3.53-5.7a1.12 1.12 0 0 0-1.12-.58h-.88v7.02h-4.14V27.62h4.14Zm16.55 0v12.76h.69a1.23 1.23 0 0 0 1.07-.53l3.45-4.58a1.67 1.67 0 0 1 1.41-.7h3.82l-4.5 5.67c-.32.45-.74.83-1.22 1.12.45.34.83.77 1.1 1.26l4.84 7.5h-3.75a1.54 1.54 0 0 1-1.4-.73l-3.52-5.71a1.12 1.12 0 0 0-1.12-.58h-.87v7.01h-4.19v-22.5h4.19Zm18.41 26.65a1.34 1.34 0 0 1-1.36.84h-3.07l2.92-6.31-6.28-14.3h3.67a1.2 1.2 0 0 1 1.16.74l2.98 7.46a20 20 0 0 1 .55 1.77c.19-.6.4-1.19.63-1.79l2.76-7.42a1.2 1.2 0 0 1 1.13-.75h3.35l-8.44 19.76Z"/></svg>