<svg xmlns="http://www.w3.org/2000/svg" fill="none" viewBox="0 0 174 44"><g fill="#fff" clip-path="url(#a)"><path d="M44.1 22A21.97 21.97 0 0 0 27.13.59a22.1 22.1 0 0 0-24.8 11.57 21.95 21.95 0 0 0 5.6 26.73 22.08 22.08 0 0 0 27.37.71H21.5A17.67 17.67 0 0 1 5.6 28.53 17.56 17.56 0 0 1 9.48 9.58a17.66 17.66 0 0 1 30.13 11.9V35.2A21.61 21.61 0 0 0 44.1 22Z"/><path d="M33.07 32.99v-9.24H26.2a4.74 4.74 0 1 1-.4-4.52h6.92a11.11 11.11 0 0 0-8.32-8.2 11.17 11.17 0 0 0-13.54 9.25 11.1 11.1 0 0 0 10.4 12.68l11.8.03ZM59.4 15.8a7.6 7.6 0 0 0-7.43 9.05 7.56 7.56 0 0 0 10.35 5.5 7.58 7.58 0 0 0 0-14 7.53 7.53 0 0 0-2.92-.55Zm0 11.52a3.83 3.83 0 0 1-3.88-3.96 3.88 3.88 0 0 1 5.43-3.8 3.9 3.9 0 0 1 2.34 3.8 3.8 3.8 0 0 1-3.9 3.96Zm13.73-8.65v-2.54h-3.7v14.35h3.7v-6.8a3.57 3.57 0 0 1 4.4-3.65v-4.12a4.42 4.42 0 0 0-4.4 2.76Zm17.17-.78a5.69 5.69 0 0 0-4.67-2.1 7.28 7.28 0 0 0-6.97 7.57 7.23 7.23 0 0 0 6.97 7.57 5.7 5.7 0 0 0 4.67-2.1v1.7H94v-14.4h-3.7v1.76Zm-3.98 9.52a3.86 3.86 0 0 1-3.99-4.05 3.96 3.96 0 0 1 3.97-3.96 3.97 3.97 0 0 1 3.97 3.96 3.85 3.85 0 0 1-3.95 4.05Zm18.9-11.61a4.89 4.89 0 0 0-4.28 2v-1.67h-3.69v14.35h3.7v-7.69c0-2.5 1.35-3.55 3.16-3.55a2.67 2.67 0 0 1 2.83 2.94v8.34h3.7v-8.8c0-3.8-2.37-5.92-5.42-5.92Zm19.45 2.18a5.45 5.45 0 0 0-4.58-2.18 7.22 7.22 0 0 0-7.15 7.33 7.15 7.15 0 0 0 7.15 7.33 5.47 5.47 0 0 0 4.58-2.18v1.55a3.33 3.33 0 0 1-3.75 3.52 3.71 3.71 0 0 1-3.76-2l-3.16 1.8a7.34 7.34 0 0 0 6.8 3.5c3.79 0 7.5-2.12 7.5-6.81V16.13h-3.63v1.85Zm-4 9.08a3.93 3.93 0 0 1-3.76-4.73 3.91 3.91 0 0 1 5.35-2.8 3.92 3.92 0 0 1 2.41 3.6 3.8 3.8 0 0 1-2.46 3.68c-.5.19-1.02.27-1.55.25Zm17.7-11.26a7.36 7.36 0 0 0-7.52 7.56 7.32 7.32 0 0 0 7.87 7.57 7.28 7.28 0 0 0 6.2-3.06l-2.94-1.72a4 4 0 0 1-3.22 1.47 3.76 3.76 0 0 1-4.09-2.69h10.88c.1-.48.14-.97.15-1.46a7.23 7.23 0 0 0-7.32-7.67Zm-3.76 6.2a3.56 3.56 0 0 1 3.77-2.93 3.48 3.48 0 0 1 3.56 2.93h-7.33ZM159 17.88a5.69 5.69 0 0 0-4.62-2.08 7.27 7.27 0 0 0-6.97 7.56 7.22 7.22 0 0 0 6.97 7.57 5.7 5.7 0 0 0 4.68-2.1v1.7h3.7v-14.4h-3.7l-.06 1.75Zm-4 9.52a3.86 3.86 0 0 1-3.95-4.05 3.95 3.95 0 0 1 3.97-3.96 3.97 3.97 0 0 1 3.97 3.96A3.84 3.84 0 0 1 155 27.4v-.01Zm14.63-8.8v-2.47h-3.7v14.35h3.7v-6.8a3.58 3.58 0 0 1 4.41-3.65v-4.12a4.42 4.42 0 0 0-4.4 2.76v-.07Z"/></g><defs><clipPath id="a"><path fill="#fff" d="M0 0h174v44H0z"/></clipPath></defs></svg>