<svg xmlns="http://www.w3.org/2000/svg" fill="none" viewBox="0 0 181 38"><path fill="#fff" d="m2.29 36.2 3.34-4.46-3.14-3.39h.96l4.51 5v-5h.76v5l4.51-5h.96l-3.15 3.4 3.36 4.44h-.93l-2.9-3.9-1.85 1.98v1.92h-.76v-1.92l-1.84-2-2.9 3.92h-.93Zm13.94 0v-7.85H17v6.84l5.35-6.84h.76v7.84h-.76v-6.84L17 36.19h-.76Zm8.37 0 .14-.7a2.08 2.08 0 0 0 1.03.07c.12-.03.25-.1.38-.2.14-.11.25-.26.34-.45a7.94 7.94 0 0 0 .48-2 53.6 53.6 0 0 0 .2-4.15v-.42h5.36v7.84h-.76v-7.16h-3.88v.2a38.83 38.83 0 0 1-.24 4.25 6.23 6.23 0 0 1-.62 2.09 1.41 1.41 0 0 1-.98.69 3.27 3.27 0 0 1-1.46-.07Zm10.27-3.93a4.08 4.08 0 0 1 1.15-2.88 3.8 3.8 0 0 1 1.3-.89c.5-.23 1.04-.34 1.61-.34.76 0 1.45.19 2.07.57a4.14 4.14 0 0 1 1.97 3.54A4.13 4.13 0 0 1 41 35.82c-.63.37-1.32.56-2.09.56a3.97 3.97 0 0 1-3.73-2.53c-.2-.5-.3-1.03-.3-1.58Zm.82 0c0 .95.3 1.75.93 2.41.63.66 1.4.98 2.31.98a3 3 0 0 0 1.6-.45 3.43 3.43 0 0 0 1.62-2.94c0-.94-.32-1.74-.95-2.4-.64-.67-1.4-1-2.3-1a3.24 3.24 0 0 0-2.79 1.7 3.47 3.47 0 0 0-.42 1.7Zm9.6 3.92v-7.84h.77v6.84l5.35-6.84h.76v7.84h-.76v-6.84l-5.35 6.84h-.76Zm1.36-10.89.63-.13c.2.74.69 1.11 1.45 1.11.77 0 1.26-.37 1.46-1.11l.64.13c-.1.51-.34.93-.72 1.27-.38.34-.84.5-1.38.5-.53 0-.99-.16-1.37-.5a2.19 2.19 0 0 1-.71-1.27Zm13.02 10.9v-7.85h.77v5.02l4.88-5.02h1l-3.45 3.47 3.56 4.37h-.96l-3.12-3.83-1.91 1.92v1.91h-.77Zm8.06-3.93a4.08 4.08 0 0 1 1.15-2.88 3.96 3.96 0 0 1 2.91-1.23c.76 0 1.45.19 2.07.57a4.14 4.14 0 0 1 1.97 3.54 4.13 4.13 0 0 1-1.99 3.55c-.62.37-1.31.56-2.08.56a3.97 3.97 0 0 1-3.73-2.53c-.2-.5-.3-1.03-.3-1.58Zm.81 0c0 .95.32 1.75.94 2.41.63.66 1.4.98 2.31.98.57 0 1.1-.15 1.6-.45a3.43 3.43 0 0 0 1.62-2.94c0-.94-.32-1.74-.95-2.4-.64-.67-1.4-1-2.3-1a3.24 3.24 0 0 0-2.79 1.7 3.47 3.47 0 0 0-.43 1.7Zm9.62 3.92v-7.84h.68l3.22 4.5 3.22-4.5h.67v7.84h-.76v-6.53l-3.17 4.33-3.13-4.33v6.53h-.73Zm10.67 0v-7.84h6.56v7.84h-.76v-7.16h-5.04v7.16h-.76Zm8.06 0 .15-.69a2.08 2.08 0 0 0 1.03.07c.12-.03.24-.1.38-.2.14-.11.25-.26.34-.45a7.97 7.97 0 0 0 .48-2 55.7 55.7 0 0 0 .2-4.15v-.42h5.36v7.84h-.76v-7.16h-3.88v.2a38.24 38.24 0 0 1-.24 4.25 6.23 6.23 0 0 1-.62 2.09 1.42 1.42 0 0 1-.98.69 3.27 3.27 0 0 1-1.46-.07Zm10.28-3.93a4.4 4.4 0 0 1 1.06-2.9 3.61 3.61 0 0 1 4.59-.65c.56.36.98.85 1.27 1.47a4.85 4.85 0 0 1 .43 2.4h-6.55c.07.94.4 1.7.99 2.25a3 3 0 0 0 2.1.83c1.04 0 1.94-.4 2.7-1.22l.54.46a4.04 4.04 0 0 1-3.26 1.48 3.76 3.76 0 0 1-2.72-1.13 3.94 3.94 0 0 1-.84-1.3 4.75 4.75 0 0 1-.31-1.7Zm.8-.36h5.74a3.93 3.93 0 0 0-.77-2.11 2.34 2.34 0 0 0-.88-.68 2.69 2.69 0 0 0-1.18-.26c-.78 0-1.44.3-1.99.87a3.5 3.5 0 0 0-.92 2.18Zm8.77 4.3v-7.85h.76v5.02l4.88-5.02h1l-3.44 3.47 3.55 4.37h-.96l-3.11-3.83-1.92 1.92v1.91h-.76Zm8.05-3.93a4.11 4.11 0 0 1 1.98-3.55 4.05 4.05 0 0 1 5.18.9l-.53.54c-.4-.41-.8-.73-1.21-.95-.4-.23-.88-.34-1.42-.34-.57 0-1.1.15-1.59.46a3.46 3.46 0 0 0-1.6 2.94c0 .95.32 1.75.95 2.41.63.66 1.4.98 2.3.98.94 0 1.82-.44 2.62-1.33l.56.5a5.2 5.2 0 0 1-1.43 1.14c-.51.27-1.1.4-1.8.4a3.94 3.94 0 0 1-3.49-2.03 4.22 4.22 0 0 1-.52-2.07ZM16.82 19.58a8.43 8.43 0 0 1-2.92 1.3c-1.12.33-2.28.49-3.48.49-1.6 0-2.96-.26-4.08-.76a7.03 7.03 0 0 1-2.68-2.1 9.19 9.19 0 0 1-1.52-3.35 19.2 19.2 0 0 1-.44-4.3c0-3.37.76-5.96 2.28-7.77C5.5 1.26 7.7.35 10.62.35a11.96 11.96 0 0 1 5.96 1.27l-1.24 4.22a9.54 9.54 0 0 0-1.84-.68 7.83 7.83 0 0 0-2.04-.23c-1.44 0-2.53.47-3.28 1.43-.75.93-1.12 2.43-1.12 4.5 0 .85.1 1.63.28 2.35.19.71.47 1.34.84 1.87s.85.95 1.44 1.27c.61.3 1.32.44 2.12.44.88 0 1.63-.1 2.24-.32a8.62 8.62 0 0 0 1.64-.84l1.2 3.95Zm15.2-7.85.2-2.82h-.12l-1.72 2.9-7.13 9h-3.28V.91h5.2v9.47l-.24 2.7h.16l1.64-2.82L33.93.9h3.29v19.91h-5.2v-9.08Zm24.17-6.25h-5.65v15.33h-5.36V5.48h-5.64V.9h16.65v4.58Zm14.36 6.25.2-2.82h-.12l-1.72 2.9-7.12 9H58.5V.91h5.2v9.47l-.24 2.7h.16l1.64-2.82L72.47.9h3.28v19.91h-5.2v-9.08Zm41.53-6.25h-6.32v15.33h-5.2V.91h16.73v19.9h-5.2V5.48Zm9.66-3.42c1.07-.48 2.33-.85 3.8-1.12 1.47-.29 3-.43 4.6-.43 1.39 0 2.55.17 3.48.51A4.98 4.98 0 0 1 137 4.61c.24.85.36 1.8.36 2.86a53 53 0 0 1-.12 3.55 76.01 76.01 0 0 0-.16 3.46c0 1.14.04 2.26.12 3.34.08 1.07.28 2.07.6 3.03h-4.25l-.84-2.75h-.2a7.25 7.25 0 0 1-2.24 2.15c-.93.59-2.15.88-3.64.88a7.5 7.5 0 0 1-2.52-.4 5.86 5.86 0 0 1-1.92-1.2 5.7 5.7 0 0 1-1.68-4.21c0-1.22.26-2.25.8-3.07a5.9 5.9 0 0 1 2.36-2.03 11.3 11.3 0 0 1 3.68-1.07c1.44-.22 3.04-.28 4.8-.2.19-1.49.08-2.55-.32-3.19-.4-.66-1.3-1-2.68-1-1.04 0-2.15.11-3.32.32-1.15.22-2.1.5-2.84.84l-1.24-3.86Zm6.6 14.8a4.1 4.1 0 0 0 2.48-.67 5.1 5.1 0 0 0 1.36-1.51v-2.59a13.8 13.8 0 0 0-2.4-.04 8.3 8.3 0 0 0-2 .36 3.4 3.4 0 0 0-1.4.8c-.35.34-.52.78-.52 1.31 0 .74.21 1.33.64 1.75.45.4 1.07.6 1.84.6ZM141.71.9h3.8l.6 2.4h.16a6.65 6.65 0 0 1 2.45-2.24 7.75 7.75 0 0 1 3.48-.71c2.5 0 4.39.8 5.64 2.39 1.25 1.56 1.88 4.1 1.88 7.6 0 1.7-.2 3.24-.6 4.62-.4 1.35-1 2.5-1.8 3.46a7.58 7.58 0 0 1-2.88 2.19c-1.12.5-2.42.76-3.88.76-.83 0-1.51-.07-2.04-.2a6.4 6.4 0 0 1-1.6-.56v8.16h-5.2V.9Zm8.93 3.83c-1.02 0-1.82.25-2.4.75-.56.5-1 1.26-1.33 2.27v8.28c.38.3.78.53 1.2.72.46.16 1.05.24 1.77.24 1.5 0 2.61-.52 3.36-1.55.75-1.07 1.12-2.8 1.12-5.22 0-1.75-.3-3.1-.88-4.06-.59-.96-1.54-1.43-2.84-1.43Zm19.29 7.84h-1.4v8.24h-5.2V.91h5.2v8.47l1.24-.55L174.45.9h5.56l-4.84 7.57-2.04 1.51 2.24 1.55 5.4 9.28h-5.96l-4.88-8.24Z"/><path fill="#F1C650" d="M88.23 14.48a3.63 3.63 0 1 0 0-7.26 3.63 3.63 0 0 0 0 7.26Z"/></svg>