<svg xmlns="http://www.w3.org/2000/svg" fill="none" viewBox="0 0 187 48"><g fill="#000" clip-path="url(#a)"><path d="M9.43.37.21 5.67l9.22 5.3-9.22 5.2 9.22 5.3L.21 26.7 9.43 32l12-6.79L27.97 32V21.52l9.22-5.3L9.43.37ZM26.3 27.6 11.1 11.88l15.18 8.6v7.12ZM186.79 24h-3.27v-5.3h-2.94V24h-3.35v2.81h3.36v13.74h2.93V26.77h3.27V24Zm-16.77-.41a5.6 5.6 0 0 0-4.95 2.48V24h-2.93v16.55h2.93v-9.47a4.78 4.78 0 0 1 1.26-3.65 4.38 4.38 0 0 1 4.29-.95c.43.15.82.4 1.16.7a3.44 3.44 0 0 1 .92 2.65v10.6h2.94V29.67a7.14 7.14 0 0 0-.76-3.31 5.58 5.58 0 0 0-2.01-2.15 6.29 6.29 0 0 0-2.85-.67v.05Zm-24.11 7.49a5.45 5.45 0 0 1 1.84-3.48 5.8 5.8 0 0 1 3.78-1.32 5.1 5.1 0 0 1 5.28 4.8h-10.9Zm13.84 2.48a9.88 9.88 0 0 0-.92-5.71 7.62 7.62 0 0 0-7.21-4.39 9.2 9.2 0 0 0-4.54 1.16 8.04 8.04 0 0 0-3.1 3.15 8.83 8.83 0 0 0-1.09 4.46 8.83 8.83 0 0 0 1.1 4.47 8.04 8.04 0 0 0 3.1 3.15A9.2 9.2 0 0 0 151.6 41a8.8 8.8 0 0 0 4.87-1.41 7.03 7.03 0 0 0 2.76-3.64h-3.02a3.58 3.58 0 0 1-1.76 1.74 6.4 6.4 0 0 1-6.62-.58 5.54 5.54 0 0 1-1.93-3.56h13.84Zm-28.3 4.5a6.09 6.09 0 0 1-3.02-.74 6 6 0 0 1-2.18-2.15 6.26 6.26 0 0 1 0-5.96 6 6 0 0 1 2.18-2.15 6.48 6.48 0 0 1 6.03 0 6 6 0 0 1 2.18 2.15 6.26 6.26 0 0 1 0 5.96 6 6 0 0 1-2.18 2.15 6.2 6.2 0 0 1-3.02.75ZM137.4 24v2.9a7.4 7.4 0 0 0-2.69-2.4 7.84 7.84 0 0 0-3.68-.91c-1.5 0-2.98.4-4.28 1.15a8.05 8.05 0 0 0-3.1 3.15 8.5 8.5 0 0 0-1.18 4.3 8.82 8.82 0 0 0 4.28 7.53 8.26 8.26 0 0 0 7.88.3 7.6 7.6 0 0 0 2.77-2.45v2.32a5 5 0 0 1-1.43 3.72 5.84 5.84 0 0 1-4.1 1.33 5.69 5.69 0 0 1-2.77-.58 4.55 4.55 0 0 1-1.85-1.4 2.89 2.89 0 0 1-.58-1.75h-2.94c0 1.2.42 2.37 1.17 3.31a6.86 6.86 0 0 0 3.02 2.24 10.01 10.01 0 0 0 8.13-.08 7.37 7.37 0 0 0 3.11-2.65 7.58 7.58 0 0 0 1.17-4.22V24h-2.93Zm-20.46 16.55h2.98V24h-2.94l-.04 16.55Zm0-19.53h2.98v-3.64h-2.94l-.04 3.64Zm-6.54 19.53h2.93V16.68h-2.93v23.87Zm-6.54 0h2.93V16.68h-2.93v23.87Zm-16.27-9.43a5.46 5.46 0 0 1 1.84-3.48 5.8 5.8 0 0 1 3.78-1.32 5.08 5.08 0 0 1 5.28 4.8h-10.9Zm13.83 2.48a9.9 9.9 0 0 0-.92-5.71 7.62 7.62 0 0 0-7.21-4.39 9.2 9.2 0 0 0-4.53 1.16 8.04 8.04 0 0 0-3.1 3.15 8.84 8.84 0 0 0-1.1 4.47 8.84 8.84 0 0 0 1.1 4.46 8.04 8.04 0 0 0 3.1 3.15 9.2 9.2 0 0 0 4.53 1.16 8.8 8.8 0 0 0 4.86-1.4 7.03 7.03 0 0 0 2.77-3.65H97.9a3.57 3.57 0 0 1-1.76 1.74 6.4 6.4 0 0 1-6.62-.58 5.23 5.23 0 0 1-1.93-3.56h13.83ZM84.15 24h-3.27v-5.3h-2.9V24h-3.35v2.81H78v13.74h2.93V26.77h3.27L84.15 24ZM63.73 38.2c-1.05 0-2.1-.25-3.02-.75a6 6 0 0 1-2.18-2.15 6.27 6.27 0 0 1 0-5.96 5.37 5.37 0 0 1 2.18-2.15 6.48 6.48 0 0 1 6.04 0 6 6 0 0 1 2.18 2.15 6.27 6.27 0 0 1 0 5.96 5.82 5.82 0 0 1-5.2 2.9Zm6-20.82v9.43a7.27 7.27 0 0 0-6.38-3.22 8.2 8.2 0 0 0-4.19 1.15 8.79 8.79 0 0 0 0 15.06 8.18 8.18 0 0 0 4.2 1.17 7.57 7.57 0 0 0 3.68-.83 8.22 8.22 0 0 0 2.69-2.4v2.81h2.93V17.38h-2.93ZM43.3 38.23a6.22 6.22 0 0 1-3.02-.74 6 6 0 0 1-2.18-2.15 6.27 6.27 0 0 1 0-5.96 5.37 5.37 0 0 1 2.18-2.15 6.48 6.48 0 0 1 6.04 0 6 6 0 0 1 2.18 2.15 6.27 6.27 0 0 1 0 5.96 5.82 5.82 0 0 1-5.2 2.9ZM49.27 24v2.81a7.27 7.27 0 0 0-6.38-3.22 8.56 8.56 0 0 0-8.55 8.69 8.8 8.8 0 0 0 4.27 7.52 8.55 8.55 0 0 0 4.28 1.17 7.57 7.57 0 0 0 3.7-.83 8.22 8.22 0 0 0 2.68-2.4v2.81h2.93V24h-2.93Z"/></g><defs><clipPath id="a"><path fill="#fff" d="M0 0h187v48H0z"/></clipPath></defs></svg>