<svg xmlns="http://www.w3.org/2000/svg" fill="none" viewBox="0 0 179 44"><g fill="#fff" clip-path="url(#a)"><path d="M64.1 26.88c-1.77 0-2.48-1.24-2.48-3.39v-5.94h5.11v-2.27h-5.11v-3.8h-2.48v12.24c0 3.49 1.25 5.43 4.38 5.43 1.55 0 2.81-.55 3.57-1.15l-.78-1.87a3.9 3.9 0 0 1-2.22.75Zm10.68-11.91c-1.74 0-3.41.48-4.66 1.24l.66 1.94a7.45 7.45 0 0 1 3.84-1.01c2.76 0 3.17 1.76 3.17 4.3a6.43 6.43 0 0 0-3.47-.87c-3 0-5.27 1.55-5.27 4.34 0 2.63 1.75 4.2 4.28 4.2 2.3 0 3.63-.93 4.46-1.98v1.76h2.34v-8.36c0-3.53-1.39-5.56-5.35-5.56Zm3 10.2a4.54 4.54 0 0 1-3.6 1.77c-1.6 0-2.51-.85-2.51-2.15 0-1.57 1.48-2.25 2.97-2.25a5.4 5.4 0 0 1 3.13.91v1.73Zm13.51-10.2c-1.92 0-3.78.81-4.73 1.92v-1.61h-2.48v19.7h2.48v-6.7c.99.63 2.45.92 3.94.92 4.38 0 7.26-3.17 7.26-7.34-.02-4-2.5-6.89-6.47-6.89Zm-1.03 11.97a6.38 6.38 0 0 1-3.72-1.07v-6.76a5.32 5.32 0 0 1 4.02-1.87c2.88 0 4.52 1.97 4.52 4.72.02 2.89-1.84 4.98-4.82 4.98Zm23.4-11.95-4.09.97c-.95-.64-2.16-1-3.53-1-3.5 0-5.7 2.26-5.7 4.99 0 2 1.14 3.7 3.13 4.47a1.8 1.8 0 0 0-.38 1.14c0 .4.1.82.34 1.13-2.68.54-4.46 1.93-4.46 4.14 0 2.96 3.03 4.34 7.1 4.34 4.06 0 7.1-1.43 7.1-4.34 0-2.96-3.04-4.4-7.1-4.4-.28 0-.56.04-.84.04a1.6 1.6 0 0 1-.28-.9c0-.26.04-.53.16-.76.32.04.62.04.93.04 3.45 0 5.71-2.2 5.71-4.9 0-.85-.21-1.67-.65-2.37l2.64-.63-.08-1.96Zm-7.6 13.46c2.98 0 4.78.9 4.78 2.42 0 1.55-1.88 2.36-4.78 2.36-2.87 0-4.77-.85-4.77-2.36 0-1.51 1.8-2.42 4.77-2.42Zm-.02-5.54c-2.04 0-3.37-1.24-3.37-2.94s1.33-3.02 3.37-3.02c2.09 0 3.37 1.33 3.37 3.02 0 1.76-1.42 2.94-3.37 2.94Zm16.04-7.94c-4.58 0-7.2 3.16-7.2 7.13 0 4.3 2.96 7.12 7.48 7.12 1.86 0 3.89-.58 5.23-1.78l-.77-1.92a6.55 6.55 0 0 1-4.28 1.44c-2.74 0-4.66-1.51-4.88-4.09h10.73c.1-.42.16-.97.16-1.63 0-3.8-2.88-6.27-6.47-6.27Zm-4.56 5.9c.28-2.08 1.89-3.63 4.44-3.63 2.42 0 3.9 1.39 4.03 3.64h-8.47Zm16.7-4v-1.6h-2.48v13.62h2.47v-9.66c.54-1 1.31-1.94 2.92-1.94a3 3 0 0 1 1.88.53l.88-2.27c-.46-.33-1.04-.52-2.17-.52-1.78 0-2.8.81-3.5 1.84Zm8.3 12.02H145V15.26h-2.48V28.9Zm1.31-20.2c-.87 0-1.6.59-1.6 1.46 0 1 .75 1.57 1.6 1.57.77 0 1.53-.58 1.53-1.57a1.5 1.5 0 0 0-1.53-1.45Zm12.63 6.34a6.5 6.5 0 0 0-4.56 1.92v-1.67h-2.48v13.63h2.48v-9.83a5.4 5.4 0 0 1 3.94-1.77c2.6 0 3.95 1.34 3.95 4.19v7.41h2.48v-7.88c0-4.28-2.18-6-5.81-6ZM179 21.2c0-3.76-2.88-6.24-6.48-6.24-4.58 0-7.2 3.16-7.2 7.13 0 4.3 2.96 7.12 7.47 7.12 1.87 0 3.89-.58 5.24-1.78l-.78-1.92a6.54 6.54 0 0 1-4.28 1.44c-2.73 0-4.66-1.51-4.87-4.09h10.72c.12-.44.18-.99.18-1.66Zm-11.04-.33c.28-2.1 1.88-3.64 4.44-3.64 2.42 0 3.9 1.39 4.02 3.64h-8.46Zm-123.02-.05c0-.04 0-.1-.02-.14a21.7 21.7 0 0 0-1.78-7.4c-2.24 12.5-13.42 21.97-26.86 21.97a27.64 27.64 0 0 1-14.34-3.97c.22.46.46.93.72 1.37v.02c.25.43.51.85.79 1.28l.04.06c.55.83 1.17 1.6 1.82 2.36l.1.12a23.1 23.1 0 0 0 4.6 3.9l.22.14c.38.24.75.47 1.15.68a15.84 15.84 0 0 0 1.4.72l.25.11c.37.18.75.33 1.14.47l.26.1a37.46 37.46 0 0 0 2.82.83l.33.08c.48.1.96.19 1.43.25l.2.02a29.01 29.01 0 0 0 3.2.21c12.46 0 22.57-9.84 22.57-21.98l-.04-1.2ZM39.41 7.53a22.77 22.77 0 0 0-4.74-4 20.88 20.88 0 0 1-16.05 7.43A21 21 0 0 1 6.02 6.8 21.94 21.94 0 0 0 0 19.15a27.4 27.4 0 0 0 14.63 4.19 27.04 27.04 0 0 0 24.78-15.8Zm-8.72-6a23.14 23.14 0 0 0-17.65.45 27.67 27.67 0 0 0 17.65-.45Z"/></g><defs><clipPath id="a"><path fill="#fff" d="M0 0h179v44H0z"/></clipPath></defs></svg>