<svg xmlns="http://www.w3.org/2000/svg" fill="none" viewBox="0 0 595 500"><path fill="#F0145A" fill-rule="evenodd" d="M46.8 687.46H0L207.75 48.05A69.54 69.54 0 0 1 273.88 0h83.65c25.23 0 46.29 10.66 59.38 28.66 13.08 18.01 16.8 41.05 9.16 64.56l-21.46 66.03a69.27 69.27 0 0 1-62.19 47.9s-.14-.05 39.88-123.23c3.53-10.87 2.24-21.51-3.3-29.14-5.55-7.63-14.9-12.15-27.27-12.15h-71.79A32.55 32.55 0 0 0 249 65.11L46.8 687.46Z" clip-rule="evenodd"/><path fill="url(#a)" fill-rule="evenodd" d="M342.42 207.16H248.1l41.56-126.4 47.01.28-27.3 83.35 46.88.03-13.83 42.74Z" clip-rule="evenodd"/><defs><linearGradient id="a" x1="248.09" x2="353.01" y1="182.95" y2="237.78" gradientUnits="userSpaceOnUse"><stop stop-color="#F0145A"/><stop offset="1" stop-color="#693264"/></linearGradient></defs></svg>