<svg xmlns="http://www.w3.org/2000/svg" fill="none" viewBox="0 0 156 62"><path fill="#46466E" d="M10.35 57.1a3.9 3.9 0 0 0-1.13-2.83 3.67 3.67 0 0 0-2.74-1.16c-.97 0-1.8.3-2.51.93a3.83 3.83 0 0 0-1.3 2.23H1.63v-3H0v7.63h1.63v-3.1h1.04c.16.93.6 1.71 1.3 2.33.7.62 1.53.94 2.51.94 1.07 0 1.99-.38 2.74-1.16a3.88 3.88 0 0 0 1.13-2.82Zm-1.63 0c0 .71-.22 1.31-.66 1.78a2.09 2.09 0 0 1-3.15 0 2.49 2.49 0 0 1-.66-1.79c0-.72.22-1.32.66-1.8a2.11 2.11 0 0 1 3.15 0c.44.48.66 1.08.66 1.8Zm4.24-3.82v7.63h1.63V58.4h1.58a2.7 2.7 0 0 0 1.95-.74c.52-.5.78-1.1.78-1.82 0-.73-.26-1.33-.78-1.83a2.73 2.73 0 0 0-1.95-.73h-3.21Zm3.16 1.47c.33 0 .6.1.82.32.22.2.32.46.32.77a1 1 0 0 1-.32.77c-.22.2-.5.32-.82.32h-1.53v-2.18h1.53Zm12.14 6.15v-7.62h-1.41l-3.76 4.85v-4.85h-1.64v7.63h1.42l3.76-4.85v4.85h1.63Zm2.06-1.47v3.06h1.64V60.9h4.58v1.58h1.63v-3.06h-.93v-6.15h-5.28v2.34a7.5 7.5 0 0 1-.42 2.53c-.1.26-.22.5-.37.73-.14.22-.22.36-.28.42l-.13.13h-.44Zm3.27-3.8v-.88h2.02v4.68h-3.22l.14-.13c.07-.08.17-.23.29-.43.12-.2.23-.45.35-.72a7.5 7.5 0 0 0 .42-2.53Zm13.72 5.27v-7.62H45.9l-3.76 4.85v-4.85H40.5v7.63h1.42l3.76-4.85v4.85h1.63Zm4.57-7.62h-1.63v2.34c0 .92.24 1.62.72 2.13.49.5 1.15.76 2 .76.73 0 1.33-.14 1.8-.44v2.84h1.63v-7.63h-1.63v3.21l-.19.14a2.37 2.37 0 0 1-1.34.4c-.43 0-.77-.11-1.01-.35a1.5 1.5 0 0 1-.35-1.06v-2.34Zm14.11 0h-1.64v3.05h-3.27v-3.05h-1.63v7.63h1.63V57.8h3.27v3.1H66v-7.62Zm6.96 4.42H71.1l.93-2.52.92 2.51Zm.55 1.4.65 1.8h1.75l-3-7.62h-1.74l-3 7.63h1.74l.66-1.8h2.94Zm9.52-5.82H81.4v7.63h1.63v-2.18l.98-1.1 2.24 3.28h1.9l-3.05-4.47 2.84-3.16h-1.91l-3 3.32v-3.32Zm8.44 3.82c0-.7.24-1.3.72-1.78a2.3 2.3 0 0 1 1.73-.73c.69 0 1.27.23 1.74.73.47.47.71 1.07.71 1.77s-.24 1.3-.71 1.78a2.3 2.3 0 0 1-1.74.73 2.3 2.3 0 0 1-1.73-.73 2.4 2.4 0 0 1-.72-1.78Zm-1.69 0a4.06 4.06 0 0 0 4.14 3.98 4.06 4.06 0 0 0 4.14-3.99 4.06 4.06 0 0 0-4.14-3.98 4.06 4.06 0 0 0-4.14 3.98Zm14.98-.5-2.62-3.32h-1.47v7.63h1.64v-5.07l2.45 3.1 2.45-3.12v5.09h1.63v-7.63h-1.44l-2.64 3.32Zm13.61-3.32h-6.48v7.63h1.63v-6.16h3.21v6.16h1.64v-7.63Zm6.97 4.42h-1.85l.92-2.52.93 2.51Zm.55 1.4.65 1.8h1.74l-3-7.62h-1.74l-3 7.63h1.75l.65-1.8h2.94Zm11.1-5.82h-1.63v3.05h-3.27v-3.05h-1.63v7.63h1.63V57.8h3.27v3.1h1.63v-7.62Zm4.68 0h-1.63v7.63h1.63v-7.63Zm8.71 0H147c-.76 0-1.38.24-1.87.72a2.4 2.4 0 0 0-.74 1.78c0 .3.05.6.14.87a2.33 2.33 0 0 0 .75 1.05c.16.13.26.22.33.25l.14.07-1.63 2.89h1.74l1.47-2.67h1.42v2.67h1.63v-7.63Zm-4.36 2.5a1.01 1.01 0 0 1 1.03-1.04h1.7v2.02h-1.7c-.28 0-.53-.1-.73-.28a.93.93 0 0 1-.3-.7Z"/><path fill="#F0145A" d="M4.98 0H0v35.98h4.98V22.63c0-2.26.56-4.04 1.69-5.3a5.86 5.86 0 0 1 4.56-1.9c1.64 0 3 .6 4.1 1.75A6.27 6.27 0 0 1 17 21.63V36h5V21.63c0-3.32-.9-5.93-2.71-7.88a9.18 9.18 0 0 0-7.06-2.94 10.39 10.39 0 0 0-6.93 2.76c-.15.15-.27.25-.32.33V0Z"/><path fill="#323264" d="M33.13 0H28v35.95h5.13V0Zm30.29 25.42.26-2.57a11.7 11.7 0 0 0-3.44-8.63 11.69 11.69 0 0 0-8.63-3.44c-3.44 0-6.42 1.24-8.88 3.7a12.06 12.06 0 0 0-3.7 8.88c0 3.6 1.28 6.68 3.8 9.25a12.24 12.24 0 0 0 9.04 3.85 13 13 0 0 0 3.8-.57c1.23-.4 2.26-.82 2.98-1.23a16.91 16.91 0 0 0 3.54-2.77c.2-.26.36-.41.46-.57L59.31 28l-.77.97a9.06 9.06 0 0 1-2.61 1.9 8.6 8.6 0 0 1-4.06.98c-2 0-3.7-.62-5.14-1.9a7.4 7.4 0 0 1-2.56-4.52h19.25Zm-11.8-10.27c1.9 0 3.43.56 4.72 1.64a7.29 7.29 0 0 1 2.3 4.26H44.38a8.27 8.27 0 0 1 2.57-4.26 6.92 6.92 0 0 1 4.67-1.64Zm35.75 19.31c0 2.25-.67 4.1-2.05 5.54a6.81 6.81 0 0 1-5.14 2.1 9.7 9.7 0 0 1-6.42-2.51l-.92-.92c-.16-.16-.26-.31-.36-.41l-3.34 3.33.41.52c.26.36.72.82 1.34 1.33.61.46 1.33.98 2.15 1.5.83.45 1.85.86 3.14 1.22 1.28.36 2.62.57 4 .57a12 12 0 0 0 8.78-3.55 12 12 0 0 0 3.55-8.78V11.3h-5.14v2.56l-.87-.77a9.37 9.37 0 0 0-2.67-1.54 10.81 10.81 0 0 0-12.02 2.82 12.09 12.09 0 0 0-3.44 8.74 12.1 12.1 0 0 0 3.44 8.73 10.8 10.8 0 0 0 14.28 1.59c.46-.36.82-.62.92-.72l.36-.36v2.1ZM73.51 23.1c0-2.16.66-3.96 2.05-5.45a6.52 6.52 0 0 1 4.88-2.26c1.85 0 3.5.77 4.88 2.26a7.87 7.87 0 0 1 2.05 5.45 7.9 7.9 0 0 1-2.05 5.44 6.52 6.52 0 0 1-4.88 2.26 6.5 6.5 0 0 1-4.88-2.26 7.65 7.65 0 0 1-2.05-5.44Zm45.79 12.84V20.03a8.6 8.6 0 0 0-2.87-6.58c-1.9-1.8-4.36-2.67-7.4-2.67a12.8 12.8 0 0 0-6.21 1.6c-.66.4-1.33.87-1.95 1.43-.61.52-.97.88-1.18 1.08-.15.2-.3.36-.4.51l3.33 3.34.67-.87a6.27 6.27 0 0 1 2.2-1.64 7.5 7.5 0 0 1 3.55-.83c1.49 0 2.72.47 3.7 1.34.97.87 1.43 2 1.43 3.29l-8.98 1.54c-2.21.36-4 1.23-5.24 2.62A7.23 7.23 0 0 0 98 29.27c0 1.9.82 3.54 2.46 4.98a9.07 9.07 0 0 0 6.27 2.2c.87 0 1.7-.1 2.51-.35.88-.2 1.55-.46 2.11-.72a7.67 7.67 0 0 0 1.54-.92c.46-.36.77-.62.98-.72.15-.16.25-.31.3-.36v2.56h5.14Zm-11.8-4.1a5 5 0 0 1-3.19-.93c-.82-.61-1.18-1.33-1.18-2.15a3 3 0 0 1 .83-2.21 4.12 4.12 0 0 1 2.26-1.13l7.95-1.29v.52c0 2.3-.56 4.05-1.74 5.34-1.18 1.23-2.83 1.85-4.93 1.85ZM130.64 0h-5.13v35.95h5.13V0Zm23.35 14.12-.3-.36c-.22-.2-.52-.46-.98-.82-.47-.36-.98-.67-1.55-1.03a11.18 11.18 0 0 0-5.13-1.13c-2.52 0-4.57.72-6.21 2.16-1.7 1.49-2.52 3.13-2.52 5.03 0 1.39.3 2.52.92 3.55.62.97 1.4 1.69 2.37 2.1.92.46 1.95.92 3.03 1.28 1.07.36 2.05.67 3.03.93.92.3 1.69.67 2.3 1.13.62.46.93 1.08.93 1.8 0 .92-.36 1.69-1.03 2.25-.66.52-1.7.83-3.08.83a7.8 7.8 0 0 1-3.34-.82 9.08 9.08 0 0 1-2.1-1.4c-.3-.35-.57-.66-.72-.86l-3.34 3.33.36.47c.26.3.62.66 1.13 1.07.57.47 1.18.88 1.85 1.29a13.15 13.15 0 0 0 6.16 1.54c2.72 0 4.98-.77 6.68-2.26a7.06 7.06 0 0 0 2.57-5.44 6.2 6.2 0 0 0-.93-3.5 5.61 5.61 0 0 0-2.36-2.15c-.92-.52-1.95-.93-3.03-1.29-1.08-.36-2.05-.72-3.03-.92a6.93 6.93 0 0 1-2.31-1.13 2.17 2.17 0 0 1-.93-1.8c0-.67.31-1.28.98-1.8a3.98 3.98 0 0 1 2.62-.77c.82 0 1.64.21 2.41.57.82.36 1.39.67 1.65.92l.56.57 3.34-3.34Z"/></svg>